<svg xmlns="http://www.w3.org/2000/svg" xmlns:xlink="http://www.w3.org/1999/xlink" width="723" zoomAndPan="magnify" viewBox="0 0 542.25 95.999999" height="128" preserveAspectRatio="xMidYMid meet" version="1.0"><defs><g/></defs><g fill="#efe7e5" fill-opacity="1"><g transform="translate(12.277214, 89.347796)"><g><path d="M 65.484375 -44.867188 C 65.484375 -44.867188 81.246094 -47.898438 81.246094 -62.453125 C 81.246094 -75.183594 70.332031 -86.097656 43.050781 -86.097656 C 24.253906 -86.097656 7.277344 -84.886719 7.277344 -84.886719 L 7.277344 0 C 7.277344 0 24.253906 1.210938 43.65625 1.210938 C 73.972656 1.210938 84.886719 -9.703125 84.886719 -23.039062 C 84.886719 -41.230469 65.484375 -44.261719 65.484375 -44.261719 Z M 38.804688 -64.269531 L 43.050781 -64.269531 C 47.292969 -64.269531 49.71875 -61.84375 49.71875 -58.8125 C 49.71875 -55.78125 47.292969 -53.355469 43.050781 -53.355469 L 38.804688 -53.355469 Z M 43.65625 -20.613281 C 41.230469 -20.613281 38.804688 -20.613281 38.804688 -20.613281 L 38.804688 -32.742188 L 43.65625 -32.742188 C 48.507812 -32.742188 50.929688 -30.316406 50.929688 -26.679688 C 50.929688 -23.039062 48.507812 -20.613281 43.65625 -20.613281 Z M 43.65625 -20.613281 "/></g></g></g><g fill="#efe7e5" fill-opacity="1"><g transform="translate(100.798444, 89.347796)"><g><path d="M 33.953125 -84.886719 L -2.425781 -84.886719 L 26.679688 -32.742188 L 26.679688 0 L 58.207031 0 L 58.207031 -32.742188 L 87.3125 -84.886719 L 50.929688 -84.886719 L 42.441406 -60.632812 Z M 33.953125 -84.886719 "/></g></g></g></svg>