<svg xmlns="http://www.w3.org/2000/svg" xmlns:xlink="http://www.w3.org/1999/xlink" width="723" zoomAndPan="magnify" viewBox="0 0 542.25 95.999999" height="128" preserveAspectRatio="xMidYMid meet" version="1.0"><defs><g/></defs><g fill="#efe7e5" fill-opacity="1"><g transform="translate(26.031651, 60.374028)"><g><path d="M 6.09375 -42.640625 C 11.28125 -46.203125 17.191406 -49.023438 23.828125 -51.109375 C 30.460938 -53.191406 35.945312 -54.234375 40.28125 -54.234375 C 44.613281 -54.234375 48.101562 -53.765625 50.75 -52.828125 C 53.394531 -51.898438 55.304688 -50.710938 56.484375 -49.265625 C 58.460938 -46.804688 59.453125 -44.664062 59.453125 -42.84375 C 59.453125 -40.65625 57.925781 -38.085938 54.875 -35.140625 C 53.320312 -33.640625 51.128906 -31.984375 48.296875 -30.171875 L 47.421875 -29.6875 C 47.046875 -29.582031 46.859375 -29.421875 46.859375 -29.203125 L 47.34375 -28.796875 C 49.425781 -27.941406 51.015625 -26.925781 52.109375 -25.75 C 53.203125 -24.570312 53.75 -22.835938 53.75 -20.546875 C 53.75 -17.390625 52.34375 -14.378906 49.53125 -11.515625 C 46.726562 -8.648438 43.425781 -6.347656 39.625 -4.609375 C 35.832031 -2.867188 32.273438 -1.488281 28.953125 -0.46875 C 25.640625 0.539062 23.273438 1.046875 21.859375 1.046875 C 20.441406 1.046875 19.171875 0.867188 18.046875 0.515625 C 16.929688 0.171875 16.023438 -0.238281 15.328125 -0.71875 C 13.878906 -1.738281 12.863281 -2.78125 12.28125 -3.84375 C 12.0625 -4.113281 11.875 -4.25 11.71875 -4.25 C 11.34375 -4.25 10.644531 -3.070312 9.625 -0.71875 C 8.613281 1.632812 8.078125 2.8125 8.015625 2.8125 L 8.015625 2.734375 C 7.859375 3.265625 7.59375 3.53125 7.21875 3.53125 C 6.363281 3.53125 5.546875 2.738281 4.765625 1.15625 C 3.992188 -0.414062 3.609375 -1.640625 3.609375 -2.515625 C 3.609375 -3.398438 4.140625 -4.898438 5.203125 -7.015625 C 6.273438 -9.128906 7.347656 -10.9375 8.421875 -12.4375 L 10.03125 -14.6875 C 11.257812 -17.351562 16.335938 -22.9375 25.265625 -31.4375 C 34.203125 -39.945312 39.257812 -44.203125 40.4375 -44.203125 C 40.96875 -44.203125 41.40625 -44.03125 41.75 -43.6875 C 42.101562 -43.34375 42.390625 -42.820312 42.609375 -42.125 C 42.609375 -41.695312 42.363281 -41.347656 41.875 -41.078125 L 30.5625 -28.890625 C 30.457031 -28.671875 30.40625 -28.519531 30.40625 -28.4375 C 30.40625 -28.363281 30.488281 -28.328125 30.65625 -28.328125 C 31.832031 -28.328125 34.503906 -29.234375 38.671875 -31.046875 C 42.847656 -32.867188 46.898438 -35.085938 50.828125 -37.703125 C 54.753906 -40.328125 56.71875 -42.492188 56.71875 -44.203125 C 56.71875 -46.078125 52.976562 -47.015625 45.5 -47.015625 C 40.738281 -47.015625 36.039062 -46.492188 31.40625 -45.453125 C 26.78125 -44.410156 22.820312 -43.148438 19.53125 -41.671875 C 16.25 -40.203125 13.296875 -38.664062 10.671875 -37.0625 C 8.046875 -35.457031 6.09375 -34.066406 4.8125 -32.890625 C 3.53125 -31.710938 2.890625 -30.960938 2.890625 -30.640625 C 2.890625 -30.328125 3.023438 -30.171875 3.296875 -30.171875 C 5.003906 -30.171875 7.820312 -31.09375 11.75 -32.9375 C 15.6875 -34.78125 18.082031 -36.007812 18.9375 -36.625 C 19.789062 -37.238281 20.335938 -37.546875 20.578125 -37.546875 C 20.816406 -37.546875 21.019531 -37.414062 21.1875 -37.15625 C 19.207031 -33.882812 16.488281 -31.113281 13.03125 -28.84375 C 9.582031 -26.570312 6.894531 -25.4375 4.96875 -25.4375 C 3.050781 -25.4375 1.460938 -26.222656 0.203125 -27.796875 C -1.054688 -29.378906 -1.6875 -30.757812 -1.6875 -31.9375 C -1.6875 -35.519531 0.90625 -39.085938 6.09375 -42.640625 Z M 49.828125 -23.671875 C 49.828125 -24.203125 49.488281 -24.628906 48.8125 -24.953125 C 48.144531 -25.273438 47.46875 -25.460938 46.78125 -25.515625 L 45.734375 -25.515625 C 42.359375 -25.515625 38.078125 -24.765625 32.890625 -23.265625 C 31.128906 -22.785156 30.035156 -22.546875 29.609375 -22.546875 C 29.179688 -22.546875 28.816406 -22.707031 28.515625 -23.03125 C 28.222656 -23.351562 28.007812 -23.660156 27.875 -23.953125 C 27.75 -24.242188 27.550781 -24.390625 27.28125 -24.390625 C 26.957031 -24.390625 26.609375 -24.203125 26.234375 -23.828125 L 12.359375 -5.296875 L 12.359375 -5.21875 C 12.617188 -4.738281 13.148438 -4.5 13.953125 -4.5 L 14.921875 -4.5 C 18.929688 -4.5 23.71875 -5.609375 29.28125 -7.828125 C 34.84375 -10.046875 39.65625 -12.691406 43.71875 -15.765625 C 47.789062 -18.835938 49.828125 -21.472656 49.828125 -23.671875 Z M 49.828125 -23.671875 "/></g></g></g><g fill="#efe7e5" fill-opacity="1"><g transform="translate(81.472522, 60.374028)"><g><path d="M 30.40625 -25.921875 C 32.925781 -25.648438 34.1875 -25.085938 34.1875 -24.234375 C 34.1875 -23.859375 33.96875 -23.429688 33.53125 -22.953125 C 25.988281 -14.546875 17.328125 -3.847656 7.546875 9.140625 C 4.710938 12.992188 1.828125 16.628906 -1.109375 20.046875 C -4.054688 23.472656 -6.8125 25.972656 -9.375 27.546875 C -11.945312 29.128906 -14.625 29.921875 -17.40625 29.921875 C -18.800781 29.921875 -20.03125 29.546875 -21.09375 28.796875 C -22.164062 28.054688 -22.703125 27.039062 -22.703125 25.75 C -22.703125 22.757812 -21.257812 19.660156 -18.375 16.453125 C -15.488281 13.242188 -12.253906 10.632812 -8.671875 8.625 C -5.085938 6.613281 -1.984375 5.453125 0.640625 5.140625 L 2.328125 5.375 C 2.859375 5.320312 4.820312 3.265625 8.21875 -0.796875 C 11.613281 -4.867188 13.328125 -7.023438 13.359375 -7.265625 C 13.390625 -7.503906 13.347656 -7.625 13.234375 -7.625 L 11.71875 -6.421875 C 7.707031 -2.671875 4.578125 -0.796875 2.328125 -0.796875 C 0.878906 -0.796875 0.15625 -1.8125 0.15625 -3.84375 C 0.15625 -6.570312 2.375 -10.878906 6.8125 -16.765625 C 11.257812 -22.648438 14.523438 -25.59375 16.609375 -25.59375 C 16.765625 -25.59375 16.953125 -25.539062 17.171875 -25.4375 C 18.671875 -25.0625 19.421875 -24.523438 19.421875 -23.828125 C 19.421875 -23.554688 19.351562 -23.351562 19.21875 -23.21875 C 19.082031 -23.09375 18.546875 -22.570312 17.609375 -21.65625 C 16.671875 -20.75 15.75 -19.800781 14.84375 -18.8125 C 13.9375 -17.820312 12.972656 -16.738281 11.953125 -15.5625 C 9.648438 -12.882812 8.5 -10.878906 8.5 -9.546875 C 8.5 -9.222656 8.671875 -9.0625 9.015625 -9.0625 C 9.367188 -9.0625 10.023438 -9.359375 10.984375 -9.953125 C 18.585938 -15.140625 24.523438 -20.085938 28.796875 -24.796875 C 29.171875 -25.546875 29.707031 -25.921875 30.40625 -25.921875 Z M -18.53125 26.390625 C -16.65625 25.804688 -14.140625 23.972656 -10.984375 20.890625 C -7.835938 17.816406 -5.140625 14.921875 -2.890625 12.203125 L 0.484375 8.015625 C 0.804688 7.585938 0.96875 7.320312 0.96875 7.21875 C 0.96875 7.113281 0.882812 7.0625 0.71875 7.0625 C -0.988281 7.0625 -3.429688 8.367188 -6.609375 10.984375 C -9.796875 13.609375 -12.632812 16.472656 -15.125 19.578125 C -17.613281 22.679688 -18.859375 24.875 -18.859375 26.15625 C -18.859375 26.3125 -18.75 26.390625 -18.53125 26.390625 Z M -18.53125 26.390625 "/></g></g></g></svg>