<svg xmlns="http://www.w3.org/2000/svg" xmlns:xlink="http://www.w3.org/1999/xlink" width="489" zoomAndPan="magnify" viewBox="0 0 366.75 122.249994" height="163" preserveAspectRatio="xMidYMid meet" version="1.0"><defs><g/><clipPath id="2fbb0357be"><path d="M 0.992188 0 L 365.507812 0 L 365.507812 121.503906 L 0.992188 121.503906 Z M 0.992188 0 " clip-rule="nonzero"/></clipPath></defs><g clip-path="url(#2fbb0357be)"><path fill="#ffffff" d="M 0.992188 0 L 365.757812 0 L 365.757812 129.046875 L 0.992188 129.046875 Z M 0.992188 0 " fill-opacity="1" fill-rule="nonzero"/><path fill="#ffffff" d="M 0.992188 0 L 365.757812 0 L 365.757812 121.585938 L 0.992188 121.585938 Z M 0.992188 0 " fill-opacity="1" fill-rule="nonzero"/></g><g fill="#ff7472" fill-opacity="1"><g transform="translate(0.955595, 63.947926)"><g><path d="M 4.25 0 L 4.25 -49.484375 L 17.84375 -49.484375 L 17.84375 -11.84375 L 40.28125 -11.84375 L 40.28125 0 Z M 4.25 0 "/></g></g></g><g fill="#ff7472" fill-opacity="1"><g transform="translate(41.938157, 63.947926)"><g><path d="M 3.34375 0 L 3.34375 -36.65625 L 16.59375 -36.65625 L 16.59375 0 Z M 3.34375 -39.734375 L 3.34375 -50.890625 L 16.59375 -50.890625 L 16.59375 -39.734375 Z M 3.34375 -39.734375 "/></g></g></g><g fill="#ff7472" fill-opacity="1"><g transform="translate(61.871848, 63.947926)"><g><path d="M 14.15625 0.703125 C 12.34375 0.703125 10.644531 0.398438 9.0625 -0.203125 C 7.476562 -0.804688 6.117188 -1.628906 4.984375 -2.671875 C 3.847656 -3.722656 2.953125 -4.96875 2.296875 -6.40625 C 1.648438 -7.851562 1.328125 -9.410156 1.328125 -11.078125 C 1.328125 -12.941406 1.71875 -14.640625 2.5 -16.171875 C 3.289062 -17.703125 4.382812 -19.023438 5.78125 -20.140625 C 7.175781 -21.253906 8.835938 -22.113281 10.765625 -22.71875 C 12.691406 -23.320312 14.816406 -23.625 17.140625 -23.625 C 20.117188 -23.625 22.582031 -23.160156 24.53125 -22.234375 L 24.53125 -23.34375 C 24.53125 -25.0625 24.03125 -26.335938 23.03125 -27.171875 C 22.03125 -28.015625 20.414062 -28.4375 18.1875 -28.4375 C 16.101562 -28.4375 14.175781 -28.097656 12.40625 -27.421875 C 10.644531 -26.753906 8.785156 -25.769531 6.828125 -24.46875 L 3 -32.6875 C 7.832031 -35.800781 13.335938 -37.359375 19.515625 -37.359375 C 25.367188 -37.359375 29.875 -36.054688 33.03125 -33.453125 C 36.195312 -30.847656 37.78125 -26.945312 37.78125 -21.75 L 37.78125 -14.640625 C 37.78125 -13.378906 38.007812 -12.503906 38.46875 -12.015625 C 38.9375 -11.535156 39.773438 -11.25 40.984375 -11.15625 L 40.984375 0 C 39.773438 0.226562 38.632812 0.398438 37.5625 0.515625 C 36.5 0.640625 35.550781 0.703125 34.71875 0.703125 C 32.34375 0.703125 30.539062 0.273438 29.3125 -0.578125 C 28.082031 -1.441406 27.28125 -2.710938 26.90625 -4.390625 L 26.625 -5.71875 C 25 -3.625 23.117188 -2.03125 20.984375 -0.9375 C 18.847656 0.15625 16.570312 0.703125 14.15625 0.703125 Z M 18.125 -8.78125 C 18.914062 -8.78125 19.726562 -8.90625 20.5625 -9.15625 C 21.394531 -9.414062 22.140625 -9.753906 22.796875 -10.171875 C 23.304688 -10.546875 23.722656 -10.953125 24.046875 -11.390625 C 24.367188 -11.835938 24.53125 -12.289062 24.53125 -12.75 L 24.53125 -15.46875 C 23.738281 -15.75 22.878906 -15.984375 21.953125 -16.171875 C 21.023438 -16.359375 20.191406 -16.453125 19.453125 -16.453125 C 17.816406 -16.453125 16.460938 -16.054688 15.390625 -15.265625 C 14.328125 -14.472656 13.796875 -13.472656 13.796875 -12.265625 C 13.796875 -11.242188 14.203125 -10.40625 15.015625 -9.75 C 15.828125 -9.101562 16.863281 -8.78125 18.125 -8.78125 Z M 18.125 -8.78125 "/></g></g></g><g fill="#ff7472" fill-opacity="1"><g transform="translate(103.969578, 63.947926)"><g/></g></g><g fill="#ff7472" fill-opacity="1"><g transform="translate(119.651681, 63.947926)"><g><path d="M 4.25 0 L 4.25 -49.484375 L 38.203125 -49.484375 L 38.203125 -37.640625 L 17.84375 -37.640625 L 17.84375 -29.421875 L 34.4375 -29.421875 L 34.4375 -18.40625 L 17.84375 -18.40625 L 17.84375 0 Z M 4.25 0 "/></g></g></g><g fill="#ff7472" fill-opacity="1"><g transform="translate(158.612994, 63.947926)"><g><path d="M 21.40625 0.703125 C 18.195312 0.703125 15.335938 0.203125 12.828125 -0.796875 C 10.316406 -1.796875 8.210938 -3.15625 6.515625 -4.875 C 4.816406 -6.59375 3.523438 -8.566406 2.640625 -10.796875 C 1.765625 -13.035156 1.328125 -15.382812 1.328125 -17.84375 C 1.328125 -20.488281 1.753906 -22.992188 2.609375 -25.359375 C 3.472656 -27.734375 4.75 -29.800781 6.4375 -31.5625 C 8.132812 -33.332031 10.226562 -34.738281 12.71875 -35.78125 C 15.207031 -36.832031 18.101562 -37.359375 21.40625 -37.359375 C 24.65625 -37.359375 27.535156 -36.832031 30.046875 -35.78125 C 32.554688 -34.738281 34.65625 -33.347656 36.34375 -31.609375 C 38.039062 -29.867188 39.316406 -27.847656 40.171875 -25.546875 C 41.035156 -23.242188 41.46875 -20.835938 41.46875 -18.328125 C 41.46875 -17.628906 41.429688 -16.921875 41.359375 -16.203125 C 41.296875 -15.484375 41.21875 -14.847656 41.125 -14.296875 L 15.40625 -14.296875 C 15.539062 -12.335938 16.257812 -10.925781 17.5625 -10.0625 C 18.863281 -9.207031 20.28125 -8.78125 21.8125 -8.78125 C 23.257812 -8.78125 24.617188 -9.101562 25.890625 -9.75 C 27.171875 -10.40625 28.019531 -11.316406 28.4375 -12.484375 L 39.65625 -9.265625 C 38.175781 -6.335938 35.890625 -3.941406 32.796875 -2.078125 C 29.703125 -0.222656 25.90625 0.703125 21.40625 0.703125 Z M 27.25 -22.234375 C 27.019531 -24.003906 26.367188 -25.398438 25.296875 -26.421875 C 24.234375 -27.441406 22.863281 -27.953125 21.1875 -27.953125 C 19.519531 -27.953125 18.148438 -27.441406 17.078125 -26.421875 C 16.003906 -25.398438 15.351562 -24.003906 15.125 -22.234375 Z M 27.25 -22.234375 "/></g></g></g><g fill="#ff7472" fill-opacity="1"><g transform="translate(201.128924, 63.947926)"><g><path d="M 26.703125 0.703125 C 21.171875 0.703125 17.21875 -1.4375 14.84375 -5.71875 L 14.84375 0 L 3.34375 0 L 3.34375 -50.890625 L 16.59375 -50.890625 L 16.59375 -31.234375 C 17.65625 -33.222656 19.160156 -34.738281 21.109375 -35.78125 C 23.066406 -36.832031 25.367188 -37.359375 28.015625 -37.359375 C 30.242188 -37.359375 32.320312 -36.867188 34.25 -35.890625 C 36.1875 -34.921875 37.847656 -33.585938 39.234375 -31.890625 C 40.628906 -30.191406 41.722656 -28.171875 42.515625 -25.828125 C 43.304688 -23.484375 43.703125 -20.9375 43.703125 -18.1875 C 43.703125 -15.445312 43.269531 -12.925781 42.40625 -10.625 C 41.550781 -8.320312 40.367188 -6.332031 38.859375 -4.65625 C 37.347656 -2.988281 35.546875 -1.675781 33.453125 -0.71875 C 31.367188 0.226562 29.117188 0.703125 26.703125 0.703125 Z M 22.859375 -10.453125 C 25.046875 -10.453125 26.800781 -11.148438 28.125 -12.546875 C 29.445312 -13.941406 30.109375 -15.800781 30.109375 -18.125 C 30.109375 -19.238281 29.929688 -20.28125 29.578125 -21.25 C 29.234375 -22.226562 28.769531 -23.085938 28.1875 -23.828125 C 27.613281 -24.578125 26.921875 -25.160156 26.109375 -25.578125 C 25.296875 -25.992188 24.398438 -26.203125 23.421875 -26.203125 C 22.023438 -26.203125 20.695312 -25.703125 19.4375 -24.703125 C 18.1875 -23.710938 17.238281 -22.398438 16.59375 -20.765625 L 16.59375 -14.21875 C 18.3125 -11.707031 20.398438 -10.453125 22.859375 -10.453125 Z M 22.859375 -10.453125 "/></g></g></g><g fill="#ff7472" fill-opacity="1"><g transform="translate(246.223699, 63.947926)"><g><path d="M 28.234375 -25.375 C 25.671875 -25.375 23.34375 -25.09375 21.25 -24.53125 C 19.164062 -23.976562 17.613281 -23.050781 16.59375 -21.75 L 16.59375 0 L 3.34375 0 L 3.34375 -36.65625 L 15.46875 -36.65625 L 15.46875 -29.6875 C 16.769531 -32.15625 18.382812 -34.050781 20.3125 -35.375 C 22.25 -36.695312 24.332031 -37.359375 26.5625 -37.359375 C 27.4375 -37.359375 27.992188 -37.335938 28.234375 -37.296875 Z M 28.234375 -25.375 "/></g></g></g><g fill="#ff7472" fill-opacity="1"><g transform="translate(275.287864, 63.947926)"><g><path d="M 21.40625 0.703125 C 18.195312 0.703125 15.335938 0.203125 12.828125 -0.796875 C 10.316406 -1.796875 8.210938 -3.15625 6.515625 -4.875 C 4.816406 -6.59375 3.523438 -8.566406 2.640625 -10.796875 C 1.765625 -13.035156 1.328125 -15.382812 1.328125 -17.84375 C 1.328125 -20.488281 1.753906 -22.992188 2.609375 -25.359375 C 3.472656 -27.734375 4.75 -29.800781 6.4375 -31.5625 C 8.132812 -33.332031 10.226562 -34.738281 12.71875 -35.78125 C 15.207031 -36.832031 18.101562 -37.359375 21.40625 -37.359375 C 24.65625 -37.359375 27.535156 -36.832031 30.046875 -35.78125 C 32.554688 -34.738281 34.65625 -33.347656 36.34375 -31.609375 C 38.039062 -29.867188 39.316406 -27.847656 40.171875 -25.546875 C 41.035156 -23.242188 41.46875 -20.835938 41.46875 -18.328125 C 41.46875 -17.628906 41.429688 -16.921875 41.359375 -16.203125 C 41.296875 -15.484375 41.21875 -14.847656 41.125 -14.296875 L 15.40625 -14.296875 C 15.539062 -12.335938 16.257812 -10.925781 17.5625 -10.0625 C 18.863281 -9.207031 20.28125 -8.78125 21.8125 -8.78125 C 23.257812 -8.78125 24.617188 -9.101562 25.890625 -9.75 C 27.171875 -10.40625 28.019531 -11.316406 28.4375 -12.484375 L 39.65625 -9.265625 C 38.175781 -6.335938 35.890625 -3.941406 32.796875 -2.078125 C 29.703125 -0.222656 25.90625 0.703125 21.40625 0.703125 Z M 27.25 -22.234375 C 27.019531 -24.003906 26.367188 -25.398438 25.296875 -26.421875 C 24.234375 -27.441406 22.863281 -27.953125 21.1875 -27.953125 C 19.519531 -27.953125 18.148438 -27.441406 17.078125 -26.421875 C 16.003906 -25.398438 15.351562 -24.003906 15.125 -22.234375 Z M 27.25 -22.234375 "/></g></g></g><g fill="#ff7472" fill-opacity="1"><g transform="translate(317.803806, 63.947926)"><g><path d="M 19.65625 0.703125 C 18.125 0.703125 16.472656 0.582031 14.703125 0.34375 C 12.941406 0.113281 11.210938 -0.179688 9.515625 -0.546875 C 7.816406 -0.921875 6.175781 -1.375 4.59375 -1.90625 C 3.019531 -2.445312 1.648438 -3.039062 0.484375 -3.6875 L 5.578125 -12.6875 C 8.128906 -11.34375 10.566406 -10.320312 12.890625 -9.625 C 15.210938 -8.925781 17.375 -8.578125 19.375 -8.578125 C 21.695312 -8.578125 22.859375 -9.15625 22.859375 -10.3125 C 22.859375 -10.914062 22.394531 -11.445312 21.46875 -11.90625 C 20.539062 -12.375 18.773438 -12.9375 16.171875 -13.59375 C 13.566406 -14.289062 11.378906 -14.988281 9.609375 -15.6875 C 7.847656 -16.382812 6.429688 -17.160156 5.359375 -18.015625 C 4.296875 -18.878906 3.53125 -19.832031 3.0625 -20.875 C 2.601562 -21.914062 2.375 -23.132812 2.375 -24.53125 C 2.375 -26.394531 2.753906 -28.113281 3.515625 -29.6875 C 4.285156 -31.269531 5.367188 -32.640625 6.765625 -33.796875 C 8.160156 -34.960938 9.820312 -35.859375 11.75 -36.484375 C 13.675781 -37.117188 15.773438 -37.4375 18.046875 -37.4375 C 20.515625 -37.4375 23.15625 -37.085938 25.96875 -36.390625 C 28.78125 -35.691406 31.648438 -34.664062 34.578125 -33.3125 L 29.484375 -24.890625 C 26.878906 -26.097656 24.71875 -26.96875 23 -27.5 C 21.28125 -28.03125 19.628906 -28.296875 18.046875 -28.296875 C 17.023438 -28.296875 16.203125 -28.144531 15.578125 -27.84375 C 14.953125 -27.539062 14.640625 -27.066406 14.640625 -26.421875 C 14.640625 -26.046875 14.726562 -25.726562 14.90625 -25.46875 C 15.09375 -25.21875 15.421875 -24.972656 15.890625 -24.734375 C 16.359375 -24.503906 17 -24.257812 17.8125 -24 C 18.625 -23.75 19.632812 -23.488281 20.84375 -23.21875 C 23.625 -22.519531 25.96875 -21.785156 27.875 -21.015625 C 29.78125 -20.242188 31.300781 -19.40625 32.4375 -18.5 C 33.582031 -17.59375 34.398438 -16.570312 34.890625 -15.4375 C 35.378906 -14.300781 35.625 -12.988281 35.625 -11.5 C 35.625 -7.738281 34.191406 -4.765625 31.328125 -2.578125 C 28.472656 -0.390625 24.582031 0.703125 19.65625 0.703125 Z M 19.65625 0.703125 "/></g></g></g><g fill="#000000" fill-opacity="1"><g transform="translate(178.545992, 104.412242)"><g/></g></g><g fill="#ff7472" fill-opacity="1"><g transform="translate(183.372632, 59.397669)"><g/></g></g><g fill="#ff7472" fill-opacity="1"><g transform="translate(3.40153, 102.174418)"><g><path d="M 22.296875 0 L 20.515625 0 L 20.515625 -7.640625 C 20.515625 -9.222656 20.257812 -10.390625 19.75 -11.140625 C 19.25 -11.898438 18.5 -12.28125 17.5 -12.28125 C 16.976562 -12.28125 16.484375 -12.179688 16.015625 -11.984375 C 15.554688 -11.796875 15.128906 -11.523438 14.734375 -11.171875 C 14.335938 -10.828125 13.988281 -10.410156 13.6875 -9.921875 C 13.394531 -9.441406 13.171875 -8.914062 13.015625 -8.34375 L 13.015625 0 L 11.234375 0 L 11.234375 -7.640625 C 11.234375 -9.265625 10.988281 -10.441406 10.5 -11.171875 C 10.007812 -11.910156 9.253906 -12.28125 8.234375 -12.28125 C 7.203125 -12.28125 6.285156 -11.921875 5.484375 -11.203125 C 4.679688 -10.484375 4.101562 -9.539062 3.75 -8.375 L 3.75 0 L 1.96875 0 L 1.96875 -13.671875 L 3.59375 -13.671875 L 3.59375 -10.578125 C 4.15625 -11.617188 4.890625 -12.429688 5.796875 -13.015625 C 6.703125 -13.609375 7.707031 -13.90625 8.8125 -13.90625 C 9.96875 -13.90625 10.890625 -13.582031 11.578125 -12.9375 C 12.273438 -12.289062 12.703125 -11.441406 12.859375 -10.390625 C 14.128906 -12.734375 15.882812 -13.90625 18.125 -13.90625 C 18.894531 -13.90625 19.546875 -13.765625 20.078125 -13.484375 C 20.609375 -13.203125 21.035156 -12.800781 21.359375 -12.28125 C 21.691406 -11.769531 21.929688 -11.148438 22.078125 -10.421875 C 22.222656 -9.703125 22.296875 -8.894531 22.296875 -8 Z M 22.296875 0 "/></g></g></g><g fill="#ff7472" fill-opacity="1"><g transform="translate(29.469037, 102.174418)"><g><path d="M 5.40625 0.265625 C 4.757812 0.265625 4.160156 0.15625 3.609375 -0.0625 C 3.054688 -0.28125 2.570312 -0.582031 2.15625 -0.96875 C 1.75 -1.351562 1.429688 -1.800781 1.203125 -2.3125 C 0.972656 -2.832031 0.859375 -3.390625 0.859375 -3.984375 C 0.859375 -4.578125 1 -5.128906 1.28125 -5.640625 C 1.5625 -6.148438 1.957031 -6.585938 2.46875 -6.953125 C 2.976562 -7.316406 3.582031 -7.597656 4.28125 -7.796875 C 4.976562 -8.003906 5.742188 -8.109375 6.578125 -8.109375 C 7.285156 -8.109375 7.992188 -8.046875 8.703125 -7.921875 C 9.421875 -7.796875 10.0625 -7.617188 10.625 -7.390625 L 10.625 -8.625 C 10.625 -9.832031 10.28125 -10.789062 9.59375 -11.5 C 8.914062 -12.207031 7.972656 -12.5625 6.765625 -12.5625 C 6.066406 -12.5625 5.347656 -12.421875 4.609375 -12.140625 C 3.878906 -11.867188 3.140625 -11.46875 2.390625 -10.9375 L 1.75 -12.125 C 3.519531 -13.3125 5.238281 -13.90625 6.90625 -13.90625 C 8.613281 -13.90625 9.957031 -13.421875 10.9375 -12.453125 C 11.914062 -11.492188 12.40625 -10.164062 12.40625 -8.46875 L 12.40625 -2.3125 C 12.40625 -1.820312 12.625 -1.578125 13.0625 -1.578125 L 13.0625 0 C 12.769531 0.0507812 12.539062 0.078125 12.375 0.078125 C 11.925781 0.078125 11.570312 -0.0351562 11.3125 -0.265625 C 11.0625 -0.492188 10.925781 -0.804688 10.90625 -1.203125 L 10.859375 -2.28125 C 10.234375 -1.457031 9.441406 -0.828125 8.484375 -0.390625 C 7.535156 0.046875 6.507812 0.265625 5.40625 0.265625 Z M 5.828125 -1.109375 C 6.753906 -1.109375 7.601562 -1.28125 8.375 -1.625 C 9.15625 -1.976562 9.75 -2.441406 10.15625 -3.015625 C 10.3125 -3.171875 10.425781 -3.335938 10.5 -3.515625 C 10.582031 -3.703125 10.625 -3.878906 10.625 -4.046875 L 10.625 -6.265625 C 10.03125 -6.492188 9.410156 -6.671875 8.765625 -6.796875 C 8.128906 -6.921875 7.484375 -6.984375 6.828125 -6.984375 C 5.566406 -6.984375 4.539062 -6.71875 3.75 -6.1875 C 2.96875 -5.664062 2.578125 -4.976562 2.578125 -4.125 C 2.578125 -3.695312 2.65625 -3.300781 2.8125 -2.9375 C 2.976562 -2.570312 3.207031 -2.253906 3.5 -1.984375 C 3.789062 -1.710938 4.132812 -1.5 4.53125 -1.34375 C 4.9375 -1.1875 5.367188 -1.109375 5.828125 -1.109375 Z M 5.828125 -1.109375 "/></g></g></g><g fill="#ff7472" fill-opacity="1"><g transform="translate(45.728666, 102.174418)"><g><path d="M 7.234375 0.265625 C 6.304688 0.265625 5.460938 0.0664062 4.703125 -0.328125 C 3.941406 -0.722656 3.289062 -1.25 2.75 -1.90625 C 2.207031 -2.5625 1.785156 -3.3125 1.484375 -4.15625 C 1.191406 -5.007812 1.046875 -5.898438 1.046875 -6.828125 C 1.046875 -7.765625 1.210938 -8.660156 1.546875 -9.515625 C 1.878906 -10.378906 2.335938 -11.132812 2.921875 -11.78125 C 3.503906 -12.425781 4.191406 -12.941406 4.984375 -13.328125 C 5.785156 -13.710938 6.644531 -13.90625 7.5625 -13.90625 C 8.082031 -13.90625 8.59375 -13.828125 9.09375 -13.671875 C 9.59375 -13.523438 10.0625 -13.328125 10.5 -13.078125 C 10.9375 -12.828125 11.332031 -12.519531 11.6875 -12.15625 C 12.039062 -11.800781 12.351562 -11.414062 12.625 -11 L 12.625 -13.671875 L 14.21875 -13.671875 L 14.21875 3.203125 C 14.21875 3.691406 14.4375 3.945312 14.875 3.96875 L 14.875 5.515625 C 14.695312 5.546875 14.523438 5.5625 14.359375 5.5625 C 14.191406 5.5625 14.03125 5.5625 13.875 5.5625 C 13.476562 5.53125 13.140625 5.359375 12.859375 5.046875 C 12.578125 4.742188 12.4375 4.382812 12.4375 3.96875 L 12.4375 -2.828125 C 11.769531 -1.816406 11 -1.046875 10.125 -0.515625 C 9.25 0.00390625 8.285156 0.265625 7.234375 0.265625 Z M 7.796875 -1.3125 C 8.316406 -1.3125 8.804688 -1.398438 9.265625 -1.578125 C 9.734375 -1.753906 10.164062 -1.984375 10.5625 -2.265625 C 10.957031 -2.554688 11.3125 -2.894531 11.625 -3.28125 C 11.9375 -3.675781 12.207031 -4.09375 12.4375 -4.53125 L 12.4375 -8.765625 C 12.363281 -9.234375 12.175781 -9.679688 11.875 -10.109375 C 11.582031 -10.535156 11.222656 -10.914062 10.796875 -11.25 C 10.367188 -11.582031 9.898438 -11.84375 9.390625 -12.03125 C 8.878906 -12.226562 8.378906 -12.328125 7.890625 -12.328125 C 7.160156 -12.328125 6.484375 -12.171875 5.859375 -11.859375 C 5.242188 -11.546875 4.710938 -11.128906 4.265625 -10.609375 C 3.816406 -10.097656 3.46875 -9.507812 3.21875 -8.84375 C 2.976562 -8.175781 2.859375 -7.492188 2.859375 -6.796875 C 2.859375 -6.054688 2.976562 -5.351562 3.21875 -4.6875 C 3.46875 -4.03125 3.8125 -3.453125 4.25 -2.953125 C 4.6875 -2.453125 5.207031 -2.050781 5.8125 -1.75 C 6.414062 -1.457031 7.078125 -1.3125 7.796875 -1.3125 Z M 7.796875 -1.3125 "/></g></g></g><g fill="#ff7472" fill-opacity="1"><g transform="translate(63.876442, 102.174418)"><g><path d="M 6.25 0.265625 C 4.757812 0.265625 3.648438 -0.226562 2.921875 -1.21875 C 2.203125 -2.207031 1.84375 -3.679688 1.84375 -5.640625 L 1.84375 -13.671875 L 3.625 -13.671875 L 3.625 -5.953125 C 3.625 -2.859375 4.679688 -1.3125 6.796875 -1.3125 C 7.316406 -1.3125 7.832031 -1.398438 8.34375 -1.578125 C 8.851562 -1.753906 9.320312 -2.003906 9.75 -2.328125 C 10.175781 -2.660156 10.554688 -3.054688 10.890625 -3.515625 C 11.234375 -3.972656 11.515625 -4.488281 11.734375 -5.0625 L 11.734375 -13.671875 L 13.515625 -13.671875 L 13.515625 -2.3125 C 13.515625 -1.820312 13.722656 -1.578125 14.140625 -1.578125 L 14.140625 0 C 13.929688 0.03125 13.757812 0.046875 13.625 0.046875 C 13.5 0.046875 13.410156 0.046875 13.359375 0.046875 C 12.929688 0.0351562 12.585938 -0.109375 12.328125 -0.390625 C 12.066406 -0.671875 11.9375 -1.046875 11.9375 -1.515625 L 11.9375 -3.09375 C 11.34375 -2.03125 10.53125 -1.203125 9.5 -0.609375 C 8.476562 -0.0234375 7.394531 0.265625 6.25 0.265625 Z M 6.25 0.265625 "/></g></g></g><g fill="#ff7472" fill-opacity="1"><g transform="translate(81.42106, 102.174418)"><g><path d="M 1.96875 0 L 1.96875 -13.671875 L 3.75 -13.671875 L 3.75 0 Z M 1.96875 -16.53125 L 1.96875 -19.15625 L 3.75 -19.15625 L 3.75 -16.53125 Z M 1.96875 -16.53125 "/></g></g></g><g fill="#ff7472" fill-opacity="1"><g transform="translate(89.105353, 102.174418)"><g><path d="M 2.046875 -19.15625 L 3.828125 -19.15625 L 3.828125 -3.09375 C 3.828125 -2.582031 3.96875 -2.179688 4.25 -1.890625 C 4.53125 -1.609375 4.925781 -1.46875 5.4375 -1.46875 C 5.625 -1.46875 5.847656 -1.492188 6.109375 -1.546875 C 6.367188 -1.597656 6.613281 -1.664062 6.84375 -1.75 L 7.15625 -0.3125 C 6.820312 -0.175781 6.414062 -0.0664062 5.9375 0.015625 C 5.457031 0.109375 5.046875 0.15625 4.703125 0.15625 C 3.878906 0.15625 3.226562 -0.0703125 2.75 -0.53125 C 2.28125 -1 2.046875 -1.65625 2.046875 -2.5 Z M 2.046875 -19.15625 "/></g></g></g><g fill="#ff7472" fill-opacity="1"><g transform="translate(98.205755, 102.174418)"><g><path d="M 2.046875 -19.15625 L 3.828125 -19.15625 L 3.828125 -3.09375 C 3.828125 -2.582031 3.96875 -2.179688 4.25 -1.890625 C 4.53125 -1.609375 4.925781 -1.46875 5.4375 -1.46875 C 5.625 -1.46875 5.847656 -1.492188 6.109375 -1.546875 C 6.367188 -1.597656 6.613281 -1.664062 6.84375 -1.75 L 7.15625 -0.3125 C 6.820312 -0.175781 6.414062 -0.0664062 5.9375 0.015625 C 5.457031 0.109375 5.046875 0.15625 4.703125 0.15625 C 3.878906 0.15625 3.226562 -0.0703125 2.75 -0.53125 C 2.28125 -1 2.046875 -1.65625 2.046875 -2.5 Z M 2.046875 -19.15625 "/></g></g></g><g fill="#ff7472" fill-opacity="1"><g transform="translate(107.306158, 102.174418)"><g><path d="M 5.40625 0.265625 C 4.757812 0.265625 4.160156 0.15625 3.609375 -0.0625 C 3.054688 -0.28125 2.570312 -0.582031 2.15625 -0.96875 C 1.75 -1.351562 1.429688 -1.800781 1.203125 -2.3125 C 0.972656 -2.832031 0.859375 -3.390625 0.859375 -3.984375 C 0.859375 -4.578125 1 -5.128906 1.28125 -5.640625 C 1.5625 -6.148438 1.957031 -6.585938 2.46875 -6.953125 C 2.976562 -7.316406 3.582031 -7.597656 4.28125 -7.796875 C 4.976562 -8.003906 5.742188 -8.109375 6.578125 -8.109375 C 7.285156 -8.109375 7.992188 -8.046875 8.703125 -7.921875 C 9.421875 -7.796875 10.0625 -7.617188 10.625 -7.390625 L 10.625 -8.625 C 10.625 -9.832031 10.28125 -10.789062 9.59375 -11.5 C 8.914062 -12.207031 7.972656 -12.5625 6.765625 -12.5625 C 6.066406 -12.5625 5.347656 -12.421875 4.609375 -12.140625 C 3.878906 -11.867188 3.140625 -11.46875 2.390625 -10.9375 L 1.75 -12.125 C 3.519531 -13.3125 5.238281 -13.90625 6.90625 -13.90625 C 8.613281 -13.90625 9.957031 -13.421875 10.9375 -12.453125 C 11.914062 -11.492188 12.40625 -10.164062 12.40625 -8.46875 L 12.40625 -2.3125 C 12.40625 -1.820312 12.625 -1.578125 13.0625 -1.578125 L 13.0625 0 C 12.769531 0.0507812 12.539062 0.078125 12.375 0.078125 C 11.925781 0.078125 11.570312 -0.0351562 11.3125 -0.265625 C 11.0625 -0.492188 10.925781 -0.804688 10.90625 -1.203125 L 10.859375 -2.28125 C 10.234375 -1.457031 9.441406 -0.828125 8.484375 -0.390625 C 7.535156 0.046875 6.507812 0.265625 5.40625 0.265625 Z M 5.828125 -1.109375 C 6.753906 -1.109375 7.601562 -1.28125 8.375 -1.625 C 9.15625 -1.976562 9.75 -2.441406 10.15625 -3.015625 C 10.3125 -3.171875 10.425781 -3.335938 10.5 -3.515625 C 10.582031 -3.703125 10.625 -3.878906 10.625 -4.046875 L 10.625 -6.265625 C 10.03125 -6.492188 9.410156 -6.671875 8.765625 -6.796875 C 8.128906 -6.921875 7.484375 -6.984375 6.828125 -6.984375 C 5.566406 -6.984375 4.539062 -6.71875 3.75 -6.1875 C 2.96875 -5.664062 2.578125 -4.976562 2.578125 -4.125 C 2.578125 -3.695312 2.65625 -3.300781 2.8125 -2.9375 C 2.976562 -2.570312 3.207031 -2.253906 3.5 -1.984375 C 3.789062 -1.710938 4.132812 -1.5 4.53125 -1.34375 C 4.9375 -1.1875 5.367188 -1.109375 5.828125 -1.109375 Z M 5.828125 -1.109375 "/></g></g></g><g fill="#ff7472" fill-opacity="1"><g transform="translate(123.565787, 102.174418)"><g><path d="M 7.578125 0.265625 C 6.640625 0.265625 5.765625 0.0664062 4.953125 -0.328125 C 4.148438 -0.722656 3.457031 -1.242188 2.875 -1.890625 C 2.300781 -2.535156 1.851562 -3.28125 1.53125 -4.125 C 1.207031 -4.976562 1.046875 -5.867188 1.046875 -6.796875 C 1.046875 -7.753906 1.203125 -8.664062 1.515625 -9.53125 C 1.835938 -10.394531 2.269531 -11.148438 2.8125 -11.796875 C 3.363281 -12.453125 4.019531 -12.96875 4.78125 -13.34375 C 5.539062 -13.71875 6.378906 -13.90625 7.296875 -13.90625 C 8.453125 -13.90625 9.472656 -13.601562 10.359375 -13 C 11.253906 -12.394531 11.957031 -11.664062 12.46875 -10.8125 L 12.46875 -19.15625 L 14.25 -19.15625 L 14.25 -2.3125 C 14.25 -1.820312 14.457031 -1.578125 14.875 -1.578125 L 14.875 0 C 14.613281 0.0507812 14.40625 0.078125 14.25 0.078125 C 13.820312 0.078125 13.453125 -0.0546875 13.140625 -0.328125 C 12.828125 -0.597656 12.671875 -0.925781 12.671875 -1.3125 L 12.671875 -2.65625 C 12.128906 -1.757812 11.394531 -1.046875 10.46875 -0.515625 C 9.539062 0.00390625 8.578125 0.265625 7.578125 0.265625 Z M 7.96875 -1.3125 C 8.40625 -1.3125 8.875 -1.398438 9.375 -1.578125 C 9.875 -1.753906 10.34375 -1.992188 10.78125 -2.296875 C 11.21875 -2.597656 11.585938 -2.953125 11.890625 -3.359375 C 12.203125 -3.773438 12.394531 -4.222656 12.46875 -4.703125 L 12.46875 -8.921875 C 12.289062 -9.390625 12.035156 -9.828125 11.703125 -10.234375 C 11.367188 -10.648438 10.988281 -11.015625 10.5625 -11.328125 C 10.132812 -11.648438 9.675781 -11.894531 9.1875 -12.0625 C 8.695312 -12.238281 8.210938 -12.328125 7.734375 -12.328125 C 7.003906 -12.328125 6.34375 -12.171875 5.75 -11.859375 C 5.15625 -11.546875 4.640625 -11.128906 4.203125 -10.609375 C 3.773438 -10.097656 3.445312 -9.507812 3.21875 -8.84375 C 3 -8.175781 2.890625 -7.492188 2.890625 -6.796875 C 2.890625 -6.054688 3.019531 -5.351562 3.28125 -4.6875 C 3.539062 -4.03125 3.894531 -3.453125 4.34375 -2.953125 C 4.800781 -2.453125 5.34375 -2.050781 5.96875 -1.75 C 6.59375 -1.457031 7.257812 -1.3125 7.96875 -1.3125 Z M 7.96875 -1.3125 "/></g></g></g><g fill="#ff7472" fill-opacity="1"><g transform="translate(141.844685, 102.174418)"><g><path d="M 7.796875 0.265625 C 6.796875 0.265625 5.882812 0.078125 5.0625 -0.296875 C 4.238281 -0.671875 3.523438 -1.179688 2.921875 -1.828125 C 2.316406 -2.484375 1.847656 -3.238281 1.515625 -4.09375 C 1.179688 -4.945312 1.015625 -5.847656 1.015625 -6.796875 C 1.015625 -7.753906 1.1875 -8.660156 1.53125 -9.515625 C 1.875 -10.378906 2.347656 -11.132812 2.953125 -11.78125 C 3.554688 -12.425781 4.269531 -12.941406 5.09375 -13.328125 C 5.914062 -13.710938 6.816406 -13.90625 7.796875 -13.90625 C 8.773438 -13.90625 9.675781 -13.710938 10.5 -13.328125 C 11.332031 -12.941406 12.050781 -12.425781 12.65625 -11.78125 C 13.257812 -11.132812 13.734375 -10.378906 14.078125 -9.515625 C 14.421875 -8.660156 14.59375 -7.753906 14.59375 -6.796875 C 14.59375 -5.847656 14.425781 -4.945312 14.09375 -4.09375 C 13.757812 -3.238281 13.289062 -2.484375 12.6875 -1.828125 C 12.082031 -1.179688 11.363281 -0.671875 10.53125 -0.296875 C 9.695312 0.078125 8.785156 0.265625 7.796875 0.265625 Z M 2.828125 -6.765625 C 2.828125 -5.992188 2.957031 -5.28125 3.21875 -4.625 C 3.488281 -3.96875 3.84375 -3.390625 4.28125 -2.890625 C 4.726562 -2.398438 5.253906 -2.015625 5.859375 -1.734375 C 6.460938 -1.453125 7.109375 -1.3125 7.796875 -1.3125 C 8.472656 -1.3125 9.113281 -1.453125 9.71875 -1.734375 C 10.320312 -2.023438 10.847656 -2.421875 11.296875 -2.921875 C 11.753906 -3.421875 12.113281 -4.003906 12.375 -4.671875 C 12.644531 -5.335938 12.78125 -6.054688 12.78125 -6.828125 C 12.78125 -7.578125 12.644531 -8.285156 12.375 -8.953125 C 12.113281 -9.628906 11.753906 -10.21875 11.296875 -10.71875 C 10.847656 -11.21875 10.320312 -11.609375 9.71875 -11.890625 C 9.113281 -12.179688 8.472656 -12.328125 7.796875 -12.328125 C 7.109375 -12.328125 6.46875 -12.179688 5.875 -11.890625 C 5.28125 -11.609375 4.753906 -11.210938 4.296875 -10.703125 C 3.847656 -10.191406 3.488281 -9.597656 3.21875 -8.921875 C 2.957031 -8.253906 2.828125 -7.535156 2.828125 -6.765625 Z M 2.828125 -6.765625 "/></g></g></g><g fill="#ff7472" fill-opacity="1"><g transform="translate(159.415528, 102.174418)"><g><path d="M 8.78125 -12.09375 C 7.582031 -12.0625 6.535156 -11.726562 5.640625 -11.09375 C 4.742188 -10.46875 4.113281 -9.601562 3.75 -8.5 L 3.75 0 L 1.96875 0 L 1.96875 -13.671875 L 3.640625 -13.671875 L 3.640625 -10.390625 C 4.148438 -11.441406 4.832031 -12.265625 5.6875 -12.859375 C 6.550781 -13.453125 7.472656 -13.75 8.453125 -13.75 C 8.585938 -13.75 8.695312 -13.738281 8.78125 -13.71875 Z M 8.78125 -12.09375 "/></g></g></g><g fill="#ff7472" fill-opacity="1"><g transform="translate(170.587648, 102.174418)"><g><path d="M 5.40625 0.265625 C 4.757812 0.265625 4.160156 0.15625 3.609375 -0.0625 C 3.054688 -0.28125 2.570312 -0.582031 2.15625 -0.96875 C 1.75 -1.351562 1.429688 -1.800781 1.203125 -2.3125 C 0.972656 -2.832031 0.859375 -3.390625 0.859375 -3.984375 C 0.859375 -4.578125 1 -5.128906 1.28125 -5.640625 C 1.5625 -6.148438 1.957031 -6.585938 2.46875 -6.953125 C 2.976562 -7.316406 3.582031 -7.597656 4.28125 -7.796875 C 4.976562 -8.003906 5.742188 -8.109375 6.578125 -8.109375 C 7.285156 -8.109375 7.992188 -8.046875 8.703125 -7.921875 C 9.421875 -7.796875 10.0625 -7.617188 10.625 -7.390625 L 10.625 -8.625 C 10.625 -9.832031 10.28125 -10.789062 9.59375 -11.5 C 8.914062 -12.207031 7.972656 -12.5625 6.765625 -12.5625 C 6.066406 -12.5625 5.347656 -12.421875 4.609375 -12.140625 C 3.878906 -11.867188 3.140625 -11.46875 2.390625 -10.9375 L 1.75 -12.125 C 3.519531 -13.3125 5.238281 -13.90625 6.90625 -13.90625 C 8.613281 -13.90625 9.957031 -13.421875 10.9375 -12.453125 C 11.914062 -11.492188 12.40625 -10.164062 12.40625 -8.46875 L 12.40625 -2.3125 C 12.40625 -1.820312 12.625 -1.578125 13.0625 -1.578125 L 13.0625 0 C 12.769531 0.0507812 12.539062 0.078125 12.375 0.078125 C 11.925781 0.078125 11.570312 -0.0351562 11.3125 -0.265625 C 11.0625 -0.492188 10.925781 -0.804688 10.90625 -1.203125 L 10.859375 -2.28125 C 10.234375 -1.457031 9.441406 -0.828125 8.484375 -0.390625 C 7.535156 0.046875 6.507812 0.265625 5.40625 0.265625 Z M 5.828125 -1.109375 C 6.753906 -1.109375 7.601562 -1.28125 8.375 -1.625 C 9.15625 -1.976562 9.75 -2.441406 10.15625 -3.015625 C 10.3125 -3.171875 10.425781 -3.335938 10.5 -3.515625 C 10.582031 -3.703125 10.625 -3.878906 10.625 -4.046875 L 10.625 -6.265625 C 10.03125 -6.492188 9.410156 -6.671875 8.765625 -6.796875 C 8.128906 -6.921875 7.484375 -6.984375 6.828125 -6.984375 C 5.566406 -6.984375 4.539062 -6.71875 3.75 -6.1875 C 2.96875 -5.664062 2.578125 -4.976562 2.578125 -4.125 C 2.578125 -3.695312 2.65625 -3.300781 2.8125 -2.9375 C 2.976562 -2.570312 3.207031 -2.253906 3.5 -1.984375 C 3.789062 -1.710938 4.132812 -1.5 4.53125 -1.34375 C 4.9375 -1.1875 5.367188 -1.109375 5.828125 -1.109375 Z M 5.828125 -1.109375 "/></g></g></g><g fill="#ff7472" fill-opacity="1"><g transform="translate(186.847277, 102.174418)"><g/></g></g><g fill="#ff7472" fill-opacity="1"><g transform="translate(195.501856, 102.174418)"><g><path d="M 2.75 4.203125 C 2.894531 4.210938 3.03125 4.222656 3.15625 4.234375 C 3.289062 4.242188 3.421875 4.25 3.546875 4.25 C 3.859375 4.25 4.101562 4.203125 4.28125 4.109375 C 4.46875 4.023438 4.648438 3.832031 4.828125 3.53125 C 5.003906 3.238281 5.203125 2.8125 5.421875 2.25 C 5.640625 1.695312 5.945312 0.945312 6.34375 0 L 0.390625 -13.671875 L 2.234375 -13.671875 L 7.296875 -1.65625 L 11.984375 -13.671875 L 13.6875 -13.671875 L 6.609375 3.96875 C 6.421875 4.46875 6.101562 4.90625 5.65625 5.28125 C 5.207031 5.65625 4.597656 5.84375 3.828125 5.84375 C 3.648438 5.84375 3.484375 5.835938 3.328125 5.828125 C 3.171875 5.828125 2.976562 5.804688 2.75 5.765625 Z M 2.75 4.203125 "/></g></g></g><g fill="#ff7472" fill-opacity="1"><g transform="translate(211.682801, 102.174418)"><g/></g></g><g fill="#ff7472" fill-opacity="1"><g transform="translate(220.337379, 102.174418)"><g><path d="M 2.625 0 L 2.625 -12.25 L 0.734375 -12.25 L 0.734375 -13.671875 L 2.625 -13.671875 L 2.625 -14.03125 C 2.625 -15.707031 2.984375 -17.019531 3.703125 -17.96875 C 4.421875 -18.925781 5.398438 -19.40625 6.640625 -19.40625 C 7.179688 -19.40625 7.703125 -19.328125 8.203125 -19.171875 C 8.710938 -19.015625 9.148438 -18.804688 9.515625 -18.546875 L 8.96875 -17.265625 C 8.726562 -17.453125 8.425781 -17.597656 8.0625 -17.703125 C 7.707031 -17.804688 7.347656 -17.859375 6.984375 -17.859375 C 6.140625 -17.859375 5.5 -17.535156 5.0625 -16.890625 C 4.625 -16.242188 4.40625 -15.3125 4.40625 -14.09375 L 4.40625 -13.671875 L 8.1875 -13.671875 L 8.1875 -12.25 L 4.40625 -12.25 L 4.40625 0 Z M 2.625 0 "/></g></g></g><g fill="#ff7472" fill-opacity="1"><g transform="translate(230.958779, 102.174418)"><g><path d="M 7.796875 0.265625 C 6.796875 0.265625 5.882812 0.078125 5.0625 -0.296875 C 4.238281 -0.671875 3.523438 -1.179688 2.921875 -1.828125 C 2.316406 -2.484375 1.847656 -3.238281 1.515625 -4.09375 C 1.179688 -4.945312 1.015625 -5.847656 1.015625 -6.796875 C 1.015625 -7.753906 1.1875 -8.660156 1.53125 -9.515625 C 1.875 -10.378906 2.347656 -11.132812 2.953125 -11.78125 C 3.554688 -12.425781 4.269531 -12.941406 5.09375 -13.328125 C 5.914062 -13.710938 6.816406 -13.90625 7.796875 -13.90625 C 8.773438 -13.90625 9.675781 -13.710938 10.5 -13.328125 C 11.332031 -12.941406 12.050781 -12.425781 12.65625 -11.78125 C 13.257812 -11.132812 13.734375 -10.378906 14.078125 -9.515625 C 14.421875 -8.660156 14.59375 -7.753906 14.59375 -6.796875 C 14.59375 -5.847656 14.425781 -4.945312 14.09375 -4.09375 C 13.757812 -3.238281 13.289062 -2.484375 12.6875 -1.828125 C 12.082031 -1.179688 11.363281 -0.671875 10.53125 -0.296875 C 9.695312 0.078125 8.785156 0.265625 7.796875 0.265625 Z M 2.828125 -6.765625 C 2.828125 -5.992188 2.957031 -5.28125 3.21875 -4.625 C 3.488281 -3.96875 3.84375 -3.390625 4.28125 -2.890625 C 4.726562 -2.398438 5.253906 -2.015625 5.859375 -1.734375 C 6.460938 -1.453125 7.109375 -1.3125 7.796875 -1.3125 C 8.472656 -1.3125 9.113281 -1.453125 9.71875 -1.734375 C 10.320312 -2.023438 10.847656 -2.421875 11.296875 -2.921875 C 11.753906 -3.421875 12.113281 -4.003906 12.375 -4.671875 C 12.644531 -5.335938 12.78125 -6.054688 12.78125 -6.828125 C 12.78125 -7.578125 12.644531 -8.285156 12.375 -8.953125 C 12.113281 -9.628906 11.753906 -10.21875 11.296875 -10.71875 C 10.847656 -11.21875 10.320312 -11.609375 9.71875 -11.890625 C 9.113281 -12.179688 8.472656 -12.328125 7.796875 -12.328125 C 7.109375 -12.328125 6.46875 -12.179688 5.875 -11.890625 C 5.28125 -11.609375 4.753906 -11.210938 4.296875 -10.703125 C 3.847656 -10.191406 3.488281 -9.597656 3.21875 -8.921875 C 2.957031 -8.253906 2.828125 -7.535156 2.828125 -6.765625 Z M 2.828125 -6.765625 "/></g></g></g><g fill="#ff7472" fill-opacity="1"><g transform="translate(248.52961, 102.174418)"><g><path d="M 8.78125 -12.09375 C 7.582031 -12.0625 6.535156 -11.726562 5.640625 -11.09375 C 4.742188 -10.46875 4.113281 -9.601562 3.75 -8.5 L 3.75 0 L 1.96875 0 L 1.96875 -13.671875 L 3.640625 -13.671875 L 3.640625 -10.390625 C 4.148438 -11.441406 4.832031 -12.265625 5.6875 -12.859375 C 6.550781 -13.453125 7.472656 -13.75 8.453125 -13.75 C 8.585938 -13.75 8.695312 -13.738281 8.78125 -13.71875 Z M 8.78125 -12.09375 "/></g></g></g><g fill="#ff7472" fill-opacity="1"><g transform="translate(259.701719, 102.174418)"><g><path d="M 22.296875 0 L 20.515625 0 L 20.515625 -7.640625 C 20.515625 -9.222656 20.257812 -10.390625 19.75 -11.140625 C 19.25 -11.898438 18.5 -12.28125 17.5 -12.28125 C 16.976562 -12.28125 16.484375 -12.179688 16.015625 -11.984375 C 15.554688 -11.796875 15.128906 -11.523438 14.734375 -11.171875 C 14.335938 -10.828125 13.988281 -10.410156 13.6875 -9.921875 C 13.394531 -9.441406 13.171875 -8.914062 13.015625 -8.34375 L 13.015625 0 L 11.234375 0 L 11.234375 -7.640625 C 11.234375 -9.265625 10.988281 -10.441406 10.5 -11.171875 C 10.007812 -11.910156 9.253906 -12.28125 8.234375 -12.28125 C 7.203125 -12.28125 6.285156 -11.921875 5.484375 -11.203125 C 4.679688 -10.484375 4.101562 -9.539062 3.75 -8.375 L 3.75 0 L 1.96875 0 L 1.96875 -13.671875 L 3.59375 -13.671875 L 3.59375 -10.578125 C 4.15625 -11.617188 4.890625 -12.429688 5.796875 -13.015625 C 6.703125 -13.609375 7.707031 -13.90625 8.8125 -13.90625 C 9.96875 -13.90625 10.890625 -13.582031 11.578125 -12.9375 C 12.273438 -12.289062 12.703125 -11.441406 12.859375 -10.390625 C 14.128906 -12.734375 15.882812 -13.90625 18.125 -13.90625 C 18.894531 -13.90625 19.546875 -13.765625 20.078125 -13.484375 C 20.609375 -13.203125 21.035156 -12.800781 21.359375 -12.28125 C 21.691406 -11.769531 21.929688 -11.148438 22.078125 -10.421875 C 22.222656 -9.703125 22.296875 -8.894531 22.296875 -8 Z M 22.296875 0 "/></g></g></g><g fill="#ff7472" fill-opacity="1"><g transform="translate(285.769237, 102.174418)"><g><path d="M 5.40625 0.265625 C 4.757812 0.265625 4.160156 0.15625 3.609375 -0.0625 C 3.054688 -0.28125 2.570312 -0.582031 2.15625 -0.96875 C 1.75 -1.351562 1.429688 -1.800781 1.203125 -2.3125 C 0.972656 -2.832031 0.859375 -3.390625 0.859375 -3.984375 C 0.859375 -4.578125 1 -5.128906 1.28125 -5.640625 C 1.5625 -6.148438 1.957031 -6.585938 2.46875 -6.953125 C 2.976562 -7.316406 3.582031 -7.597656 4.28125 -7.796875 C 4.976562 -8.003906 5.742188 -8.109375 6.578125 -8.109375 C 7.285156 -8.109375 7.992188 -8.046875 8.703125 -7.921875 C 9.421875 -7.796875 10.0625 -7.617188 10.625 -7.390625 L 10.625 -8.625 C 10.625 -9.832031 10.28125 -10.789062 9.59375 -11.5 C 8.914062 -12.207031 7.972656 -12.5625 6.765625 -12.5625 C 6.066406 -12.5625 5.347656 -12.421875 4.609375 -12.140625 C 3.878906 -11.867188 3.140625 -11.46875 2.390625 -10.9375 L 1.75 -12.125 C 3.519531 -13.3125 5.238281 -13.90625 6.90625 -13.90625 C 8.613281 -13.90625 9.957031 -13.421875 10.9375 -12.453125 C 11.914062 -11.492188 12.40625 -10.164062 12.40625 -8.46875 L 12.40625 -2.3125 C 12.40625 -1.820312 12.625 -1.578125 13.0625 -1.578125 L 13.0625 0 C 12.769531 0.0507812 12.539062 0.078125 12.375 0.078125 C 11.925781 0.078125 11.570312 -0.0351562 11.3125 -0.265625 C 11.0625 -0.492188 10.925781 -0.804688 10.90625 -1.203125 L 10.859375 -2.28125 C 10.234375 -1.457031 9.441406 -0.828125 8.484375 -0.390625 C 7.535156 0.046875 6.507812 0.265625 5.40625 0.265625 Z M 5.828125 -1.109375 C 6.753906 -1.109375 7.601562 -1.28125 8.375 -1.625 C 9.15625 -1.976562 9.75 -2.441406 10.15625 -3.015625 C 10.3125 -3.171875 10.425781 -3.335938 10.5 -3.515625 C 10.582031 -3.703125 10.625 -3.878906 10.625 -4.046875 L 10.625 -6.265625 C 10.03125 -6.492188 9.410156 -6.671875 8.765625 -6.796875 C 8.128906 -6.921875 7.484375 -6.984375 6.828125 -6.984375 C 5.566406 -6.984375 4.539062 -6.71875 3.75 -6.1875 C 2.96875 -5.664062 2.578125 -4.976562 2.578125 -4.125 C 2.578125 -3.695312 2.65625 -3.300781 2.8125 -2.9375 C 2.976562 -2.570312 3.207031 -2.253906 3.5 -1.984375 C 3.789062 -1.710938 4.132812 -1.5 4.53125 -1.34375 C 4.9375 -1.1875 5.367188 -1.109375 5.828125 -1.109375 Z M 5.828125 -1.109375 "/></g></g></g><g fill="#ff7472" fill-opacity="1"><g transform="translate(302.028855, 102.174418)"><g><path d="M 7.578125 0.265625 C 6.640625 0.265625 5.765625 0.0664062 4.953125 -0.328125 C 4.148438 -0.722656 3.457031 -1.242188 2.875 -1.890625 C 2.300781 -2.535156 1.851562 -3.28125 1.53125 -4.125 C 1.207031 -4.976562 1.046875 -5.867188 1.046875 -6.796875 C 1.046875 -7.753906 1.203125 -8.664062 1.515625 -9.53125 C 1.835938 -10.394531 2.269531 -11.148438 2.8125 -11.796875 C 3.363281 -12.453125 4.019531 -12.96875 4.78125 -13.34375 C 5.539062 -13.71875 6.378906 -13.90625 7.296875 -13.90625 C 8.453125 -13.90625 9.472656 -13.601562 10.359375 -13 C 11.253906 -12.394531 11.957031 -11.664062 12.46875 -10.8125 L 12.46875 -19.15625 L 14.25 -19.15625 L 14.25 -2.3125 C 14.25 -1.820312 14.457031 -1.578125 14.875 -1.578125 L 14.875 0 C 14.613281 0.0507812 14.40625 0.078125 14.25 0.078125 C 13.820312 0.078125 13.453125 -0.0546875 13.140625 -0.328125 C 12.828125 -0.597656 12.671875 -0.925781 12.671875 -1.3125 L 12.671875 -2.65625 C 12.128906 -1.757812 11.394531 -1.046875 10.46875 -0.515625 C 9.539062 0.00390625 8.578125 0.265625 7.578125 0.265625 Z M 7.96875 -1.3125 C 8.40625 -1.3125 8.875 -1.398438 9.375 -1.578125 C 9.875 -1.753906 10.34375 -1.992188 10.78125 -2.296875 C 11.21875 -2.597656 11.585938 -2.953125 11.890625 -3.359375 C 12.203125 -3.773438 12.394531 -4.222656 12.46875 -4.703125 L 12.46875 -8.921875 C 12.289062 -9.390625 12.035156 -9.828125 11.703125 -10.234375 C 11.367188 -10.648438 10.988281 -11.015625 10.5625 -11.328125 C 10.132812 -11.648438 9.675781 -11.894531 9.1875 -12.0625 C 8.695312 -12.238281 8.210938 -12.328125 7.734375 -12.328125 C 7.003906 -12.328125 6.34375 -12.171875 5.75 -11.859375 C 5.15625 -11.546875 4.640625 -11.128906 4.203125 -10.609375 C 3.773438 -10.097656 3.445312 -9.507812 3.21875 -8.84375 C 3 -8.175781 2.890625 -7.492188 2.890625 -6.796875 C 2.890625 -6.054688 3.019531 -5.351562 3.28125 -4.6875 C 3.539062 -4.03125 3.894531 -3.453125 4.34375 -2.953125 C 4.800781 -2.453125 5.34375 -2.050781 5.96875 -1.75 C 6.59375 -1.457031 7.257812 -1.3125 7.96875 -1.3125 Z M 7.96875 -1.3125 "/></g></g></g><g fill="#ff7472" fill-opacity="1"><g transform="translate(320.307741, 102.174418)"><g><path d="M 7.796875 0.265625 C 6.796875 0.265625 5.882812 0.078125 5.0625 -0.296875 C 4.238281 -0.671875 3.523438 -1.179688 2.921875 -1.828125 C 2.316406 -2.484375 1.847656 -3.238281 1.515625 -4.09375 C 1.179688 -4.945312 1.015625 -5.847656 1.015625 -6.796875 C 1.015625 -7.753906 1.1875 -8.660156 1.53125 -9.515625 C 1.875 -10.378906 2.347656 -11.132812 2.953125 -11.78125 C 3.554688 -12.425781 4.269531 -12.941406 5.09375 -13.328125 C 5.914062 -13.710938 6.816406 -13.90625 7.796875 -13.90625 C 8.773438 -13.90625 9.675781 -13.710938 10.5 -13.328125 C 11.332031 -12.941406 12.050781 -12.425781 12.65625 -11.78125 C 13.257812 -11.132812 13.734375 -10.378906 14.078125 -9.515625 C 14.421875 -8.660156 14.59375 -7.753906 14.59375 -6.796875 C 14.59375 -5.847656 14.425781 -4.945312 14.09375 -4.09375 C 13.757812 -3.238281 13.289062 -2.484375 12.6875 -1.828125 C 12.082031 -1.179688 11.363281 -0.671875 10.53125 -0.296875 C 9.695312 0.078125 8.785156 0.265625 7.796875 0.265625 Z M 2.828125 -6.765625 C 2.828125 -5.992188 2.957031 -5.28125 3.21875 -4.625 C 3.488281 -3.96875 3.84375 -3.390625 4.28125 -2.890625 C 4.726562 -2.398438 5.253906 -2.015625 5.859375 -1.734375 C 6.460938 -1.453125 7.109375 -1.3125 7.796875 -1.3125 C 8.472656 -1.3125 9.113281 -1.453125 9.71875 -1.734375 C 10.320312 -2.023438 10.847656 -2.421875 11.296875 -2.921875 C 11.753906 -3.421875 12.113281 -4.003906 12.375 -4.671875 C 12.644531 -5.335938 12.78125 -6.054688 12.78125 -6.828125 C 12.78125 -7.578125 12.644531 -8.285156 12.375 -8.953125 C 12.113281 -9.628906 11.753906 -10.21875 11.296875 -10.71875 C 10.847656 -11.21875 10.320312 -11.609375 9.71875 -11.890625 C 9.113281 -12.179688 8.472656 -12.328125 7.796875 -12.328125 C 7.109375 -12.328125 6.46875 -12.179688 5.875 -11.890625 C 5.28125 -11.609375 4.753906 -11.210938 4.296875 -10.703125 C 3.847656 -10.191406 3.488281 -9.597656 3.21875 -8.921875 C 2.957031 -8.253906 2.828125 -7.535156 2.828125 -6.765625 Z M 2.828125 -6.765625 "/></g></g></g><g fill="#ff7472" fill-opacity="1"><g transform="translate(337.878572, 102.174418)"><g><path d="M 8.78125 -12.09375 C 7.582031 -12.0625 6.535156 -11.726562 5.640625 -11.09375 C 4.742188 -10.46875 4.113281 -9.601562 3.75 -8.5 L 3.75 0 L 1.96875 0 L 1.96875 -13.671875 L 3.640625 -13.671875 L 3.640625 -10.390625 C 4.148438 -11.441406 4.832031 -12.265625 5.6875 -12.859375 C 6.550781 -13.453125 7.472656 -13.75 8.453125 -13.75 C 8.585938 -13.75 8.695312 -13.738281 8.78125 -13.71875 Z M 8.78125 -12.09375 "/></g></g></g><g fill="#ff7472" fill-opacity="1"><g transform="translate(349.050681, 102.174418)"><g><path d="M 5.40625 0.265625 C 4.757812 0.265625 4.160156 0.15625 3.609375 -0.0625 C 3.054688 -0.28125 2.570312 -0.582031 2.15625 -0.96875 C 1.75 -1.351562 1.429688 -1.800781 1.203125 -2.3125 C 0.972656 -2.832031 0.859375 -3.390625 0.859375 -3.984375 C 0.859375 -4.578125 1 -5.128906 1.28125 -5.640625 C 1.5625 -6.148438 1.957031 -6.585938 2.46875 -6.953125 C 2.976562 -7.316406 3.582031 -7.597656 4.28125 -7.796875 C 4.976562 -8.003906 5.742188 -8.109375 6.578125 -8.109375 C 7.285156 -8.109375 7.992188 -8.046875 8.703125 -7.921875 C 9.421875 -7.796875 10.0625 -7.617188 10.625 -7.390625 L 10.625 -8.625 C 10.625 -9.832031 10.28125 -10.789062 9.59375 -11.5 C 8.914062 -12.207031 7.972656 -12.5625 6.765625 -12.5625 C 6.066406 -12.5625 5.347656 -12.421875 4.609375 -12.140625 C 3.878906 -11.867188 3.140625 -11.46875 2.390625 -10.9375 L 1.75 -12.125 C 3.519531 -13.3125 5.238281 -13.90625 6.90625 -13.90625 C 8.613281 -13.90625 9.957031 -13.421875 10.9375 -12.453125 C 11.914062 -11.492188 12.40625 -10.164062 12.40625 -8.46875 L 12.40625 -2.3125 C 12.40625 -1.820312 12.625 -1.578125 13.0625 -1.578125 L 13.0625 0 C 12.769531 0.0507812 12.539062 0.078125 12.375 0.078125 C 11.925781 0.078125 11.570312 -0.0351562 11.3125 -0.265625 C 11.0625 -0.492188 10.925781 -0.804688 10.90625 -1.203125 L 10.859375 -2.28125 C 10.234375 -1.457031 9.441406 -0.828125 8.484375 -0.390625 C 7.535156 0.046875 6.507812 0.265625 5.40625 0.265625 Z M 5.828125 -1.109375 C 6.753906 -1.109375 7.601562 -1.28125 8.375 -1.625 C 9.15625 -1.976562 9.75 -2.441406 10.15625 -3.015625 C 10.3125 -3.171875 10.425781 -3.335938 10.5 -3.515625 C 10.582031 -3.703125 10.625 -3.878906 10.625 -4.046875 L 10.625 -6.265625 C 10.03125 -6.492188 9.410156 -6.671875 8.765625 -6.796875 C 8.128906 -6.921875 7.484375 -6.984375 6.828125 -6.984375 C 5.566406 -6.984375 4.539062 -6.71875 3.75 -6.1875 C 2.96875 -5.664062 2.578125 -4.976562 2.578125 -4.125 C 2.578125 -3.695312 2.65625 -3.300781 2.8125 -2.9375 C 2.976562 -2.570312 3.207031 -2.253906 3.5 -1.984375 C 3.789062 -1.710938 4.132812 -1.5 4.53125 -1.34375 C 4.9375 -1.1875 5.367188 -1.109375 5.828125 -1.109375 Z M 5.828125 -1.109375 "/></g></g></g></svg>