<svg xmlns="http://www.w3.org/2000/svg" xmlns:xlink="http://www.w3.org/1999/xlink" width="113" zoomAndPan="magnify" viewBox="0 0 84.75 30.000001" height="40" preserveAspectRatio="xMidYMid meet" version="1.0"><defs><g/></defs><g fill="#ffa7e4" fill-opacity="1"><g transform="translate(8.22956, 19.430819)"><g/></g></g><g fill="#000000" fill-opacity="1"><g transform="translate(42.843706, 25.233738)"><g/></g></g><g fill="#ff6b66" fill-opacity="1"><g transform="translate(2.659479, 18.115551)"><g><path d="M 1.03125 0 L 1.03125 -12.4375 L 2.875 -12.4375 L 2.875 -1.703125 L 8.640625 -1.703125 L 8.640625 0 Z M 1.03125 0 "/></g></g></g><g fill="#ff6b66" fill-opacity="1"><g transform="translate(11.657021, 18.115551)"><g><path d="M 2.75 0 L 1.046875 0 L 1.046875 -8.40625 L 2.734375 -8.40625 Z M 1.890625 -10.234375 C 1.585938 -10.234375 1.332031 -10.335938 1.125 -10.546875 C 0.914062 -10.765625 0.8125 -11.023438 0.8125 -11.328125 C 0.8125 -11.640625 0.914062 -11.898438 1.125 -12.109375 C 1.332031 -12.316406 1.585938 -12.421875 1.890625 -12.421875 C 2.191406 -12.421875 2.445312 -12.316406 2.65625 -12.109375 C 2.875 -11.898438 2.984375 -11.640625 2.984375 -11.328125 C 2.984375 -11.023438 2.875 -10.765625 2.65625 -10.546875 C 2.445312 -10.335938 2.191406 -10.234375 1.890625 -10.234375 Z M 1.890625 -10.234375 "/></g></g></g><g fill="#ff6b66" fill-opacity="1"><g transform="translate(15.340223, 18.115551)"><g><path d="M 8.953125 -8.40625 L 8.953125 0 L 7.515625 0 L 7.25 -0.96875 C 6.957031 -0.582031 6.582031 -0.289062 6.125 -0.09375 C 5.664062 0.101562 5.203125 0.203125 4.734375 0.203125 C 4.148438 0.203125 3.601562 0.09375 3.09375 -0.125 C 2.582031 -0.351562 2.132812 -0.664062 1.75 -1.0625 C 1.375 -1.46875 1.078125 -1.9375 0.859375 -2.46875 C 0.640625 -3.007812 0.53125 -3.582031 0.53125 -4.1875 C 0.53125 -4.800781 0.640625 -5.375 0.859375 -5.90625 C 1.078125 -6.445312 1.375 -6.914062 1.75 -7.3125 C 2.132812 -7.707031 2.582031 -8.019531 3.09375 -8.25 C 3.601562 -8.476562 4.148438 -8.59375 4.734375 -8.59375 C 5.203125 -8.59375 5.648438 -8.5 6.078125 -8.3125 C 6.515625 -8.132812 6.90625 -7.851562 7.25 -7.46875 L 7.515625 -8.40625 Z M 4.734375 -1.296875 C 5.078125 -1.296875 5.398438 -1.367188 5.703125 -1.515625 C 6.003906 -1.671875 6.265625 -1.878906 6.484375 -2.140625 C 6.710938 -2.410156 6.890625 -2.71875 7.015625 -3.0625 C 7.148438 -3.414062 7.21875 -3.789062 7.21875 -4.1875 C 7.21875 -4.59375 7.148438 -4.96875 7.015625 -5.3125 C 6.890625 -5.664062 6.710938 -5.972656 6.484375 -6.234375 C 6.265625 -6.492188 6.003906 -6.703125 5.703125 -6.859375 C 5.398438 -7.015625 5.078125 -7.09375 4.734375 -7.09375 C 4.398438 -7.09375 4.078125 -7.015625 3.765625 -6.859375 C 3.460938 -6.703125 3.203125 -6.492188 2.984375 -6.234375 C 2.765625 -5.972656 2.585938 -5.664062 2.453125 -5.3125 C 2.328125 -4.96875 2.265625 -4.59375 2.265625 -4.1875 C 2.265625 -3.789062 2.328125 -3.414062 2.453125 -3.0625 C 2.585938 -2.71875 2.765625 -2.410156 2.984375 -2.140625 C 3.203125 -1.878906 3.460938 -1.671875 3.765625 -1.515625 C 4.078125 -1.367188 4.398438 -1.296875 4.734375 -1.296875 Z M 4.734375 -1.296875 "/></g></g></g><g fill="#ff6b66" fill-opacity="1"><g transform="translate(25.039331, 18.115551)"><g/></g></g><g fill="#ff6b66" fill-opacity="1"><g transform="translate(29.617027, 18.115551)"><g><path d="M 9.375 -12.4375 L 9.375 -10.796875 L 2.8125 -10.796875 L 2.8125 -7.40625 L 8.75 -7.40625 L 8.75 -5.703125 L 2.8125 -5.703125 L 2.8125 0 L 0.984375 0 L 0.984375 -12.4375 Z M 9.375 -12.4375 "/></g></g></g><g fill="#ff6b66" fill-opacity="1"><g transform="translate(39.08812, 18.115551)"><g><path d="M 4.96875 0.203125 C 4.351562 0.203125 3.78125 0.09375 3.25 -0.125 C 2.71875 -0.351562 2.253906 -0.664062 1.859375 -1.0625 C 1.460938 -1.46875 1.148438 -1.9375 0.921875 -2.46875 C 0.691406 -3.007812 0.578125 -3.582031 0.578125 -4.1875 C 0.578125 -4.800781 0.6875 -5.375 0.90625 -5.90625 C 1.125 -6.445312 1.414062 -6.914062 1.78125 -7.3125 C 2.144531 -7.707031 2.570312 -8.019531 3.0625 -8.25 C 3.5625 -8.476562 4.09375 -8.59375 4.65625 -8.59375 C 5.226562 -8.59375 5.753906 -8.492188 6.234375 -8.296875 C 6.722656 -8.097656 7.144531 -7.785156 7.5 -7.359375 C 7.851562 -6.941406 8.128906 -6.410156 8.328125 -5.765625 C 8.535156 -5.117188 8.640625 -4.34375 8.640625 -3.4375 L 2.390625 -3.4375 C 2.472656 -3.132812 2.597656 -2.847656 2.765625 -2.578125 C 2.941406 -2.316406 3.148438 -2.085938 3.390625 -1.890625 C 3.628906 -1.703125 3.898438 -1.554688 4.203125 -1.453125 C 4.503906 -1.347656 4.816406 -1.296875 5.140625 -1.296875 C 5.585938 -1.296875 6 -1.378906 6.375 -1.546875 C 6.757812 -1.710938 7.085938 -1.925781 7.359375 -2.1875 L 8.40625 -1.140625 C 8 -0.734375 7.5 -0.40625 6.90625 -0.15625 C 6.3125 0.0820312 5.664062 0.203125 4.96875 0.203125 Z M 4.65625 -7.046875 C 4.382812 -7.046875 4.128906 -6.992188 3.890625 -6.890625 C 3.648438 -6.785156 3.425781 -6.640625 3.21875 -6.453125 C 3.007812 -6.265625 2.832031 -6.039062 2.6875 -5.78125 C 2.539062 -5.53125 2.4375 -5.253906 2.375 -4.953125 L 6.8125 -4.953125 C 6.78125 -5.234375 6.710938 -5.5 6.609375 -5.75 C 6.503906 -6.007812 6.359375 -6.234375 6.171875 -6.421875 C 5.984375 -6.617188 5.765625 -6.769531 5.515625 -6.875 C 5.265625 -6.988281 4.976562 -7.046875 4.65625 -7.046875 Z M 4.65625 -7.046875 "/></g></g></g><g fill="#ff6b66" fill-opacity="1"><g transform="translate(48.383823, 18.115551)"><g><path d="M 2.390625 0 L 1.03125 0 L 1.03125 -12.8125 L 2.734375 -12.8125 L 2.734375 -7.5 C 3.066406 -7.84375 3.445312 -8.109375 3.875 -8.296875 C 4.3125 -8.492188 4.816406 -8.59375 5.390625 -8.59375 C 5.972656 -8.59375 6.507812 -8.476562 7 -8.25 C 7.5 -8.019531 7.929688 -7.707031 8.296875 -7.3125 C 8.660156 -6.914062 8.941406 -6.445312 9.140625 -5.90625 C 9.347656 -5.375 9.453125 -4.800781 9.453125 -4.1875 C 9.453125 -3.582031 9.347656 -3.007812 9.140625 -2.46875 C 8.941406 -1.9375 8.660156 -1.46875 8.296875 -1.0625 C 7.929688 -0.664062 7.5 -0.351562 7 -0.125 C 6.507812 0.09375 5.972656 0.203125 5.390625 0.203125 C 4.835938 0.203125 4.34375 0.109375 3.90625 -0.078125 C 3.46875 -0.273438 3.078125 -0.539062 2.734375 -0.875 Z M 5.25 -7.046875 C 4.90625 -7.046875 4.582031 -6.992188 4.28125 -6.890625 C 3.976562 -6.796875 3.710938 -6.632812 3.484375 -6.40625 C 3.253906 -6.1875 3.070312 -5.894531 2.9375 -5.53125 C 2.8125 -5.164062 2.75 -4.71875 2.75 -4.1875 C 2.75 -3.695312 2.8125 -3.269531 2.9375 -2.90625 C 3.070312 -2.550781 3.253906 -2.253906 3.484375 -2.015625 C 3.710938 -1.773438 3.976562 -1.59375 4.28125 -1.46875 C 4.582031 -1.351562 4.90625 -1.296875 5.25 -1.296875 C 5.582031 -1.296875 5.898438 -1.367188 6.203125 -1.515625 C 6.515625 -1.671875 6.78125 -1.878906 7 -2.140625 C 7.21875 -2.410156 7.390625 -2.71875 7.515625 -3.0625 C 7.648438 -3.414062 7.71875 -3.789062 7.71875 -4.1875 C 7.71875 -4.59375 7.648438 -4.96875 7.515625 -5.3125 C 7.390625 -5.664062 7.21875 -5.96875 7 -6.21875 C 6.78125 -6.476562 6.515625 -6.679688 6.203125 -6.828125 C 5.898438 -6.972656 5.582031 -7.046875 5.25 -7.046875 Z M 5.25 -7.046875 "/></g></g></g><g fill="#ff6b66" fill-opacity="1"><g transform="translate(58.609099, 18.115551)"><g><path d="M 6.046875 -6.84375 C 5.972656 -6.875 5.894531 -6.910156 5.8125 -6.953125 C 5.738281 -6.972656 5.65625 -6.992188 5.5625 -7.015625 C 5.46875 -7.035156 5.367188 -7.046875 5.265625 -7.046875 C 4.921875 -7.046875 4.601562 -6.988281 4.3125 -6.875 C 4.019531 -6.769531 3.769531 -6.625 3.5625 -6.4375 C 3.351562 -6.25 3.1875 -6.03125 3.0625 -5.78125 C 2.9375 -5.53125 2.875 -5.265625 2.875 -4.984375 L 2.859375 0 L 1.15625 0 L 1.15625 -8.40625 L 2.515625 -8.40625 L 2.859375 -7.46875 C 3.097656 -7.8125 3.40625 -8.082031 3.78125 -8.28125 C 4.164062 -8.488281 4.644531 -8.59375 5.21875 -8.59375 C 5.582031 -8.59375 6.007812 -8.539062 6.5 -8.4375 Z M 6.046875 -6.84375 "/></g></g></g><g fill="#ff6b66" fill-opacity="1"><g transform="translate(65.238867, 18.115551)"><g><path d="M 4.96875 0.203125 C 4.351562 0.203125 3.78125 0.09375 3.25 -0.125 C 2.71875 -0.351562 2.253906 -0.664062 1.859375 -1.0625 C 1.460938 -1.46875 1.148438 -1.9375 0.921875 -2.46875 C 0.691406 -3.007812 0.578125 -3.582031 0.578125 -4.1875 C 0.578125 -4.800781 0.6875 -5.375 0.90625 -5.90625 C 1.125 -6.445312 1.414062 -6.914062 1.78125 -7.3125 C 2.144531 -7.707031 2.570312 -8.019531 3.0625 -8.25 C 3.5625 -8.476562 4.09375 -8.59375 4.65625 -8.59375 C 5.226562 -8.59375 5.753906 -8.492188 6.234375 -8.296875 C 6.722656 -8.097656 7.144531 -7.785156 7.5 -7.359375 C 7.851562 -6.941406 8.128906 -6.410156 8.328125 -5.765625 C 8.535156 -5.117188 8.640625 -4.34375 8.640625 -3.4375 L 2.390625 -3.4375 C 2.472656 -3.132812 2.597656 -2.847656 2.765625 -2.578125 C 2.941406 -2.316406 3.148438 -2.085938 3.390625 -1.890625 C 3.628906 -1.703125 3.898438 -1.554688 4.203125 -1.453125 C 4.503906 -1.347656 4.816406 -1.296875 5.140625 -1.296875 C 5.585938 -1.296875 6 -1.378906 6.375 -1.546875 C 6.757812 -1.710938 7.085938 -1.925781 7.359375 -2.1875 L 8.40625 -1.140625 C 8 -0.734375 7.5 -0.40625 6.90625 -0.15625 C 6.3125 0.0820312 5.664062 0.203125 4.96875 0.203125 Z M 4.65625 -7.046875 C 4.382812 -7.046875 4.128906 -6.992188 3.890625 -6.890625 C 3.648438 -6.785156 3.425781 -6.640625 3.21875 -6.453125 C 3.007812 -6.265625 2.832031 -6.039062 2.6875 -5.78125 C 2.539062 -5.53125 2.4375 -5.253906 2.375 -4.953125 L 6.8125 -4.953125 C 6.78125 -5.234375 6.710938 -5.5 6.609375 -5.75 C 6.503906 -6.007812 6.359375 -6.234375 6.171875 -6.421875 C 5.984375 -6.617188 5.765625 -6.769531 5.515625 -6.875 C 5.265625 -6.988281 4.976562 -7.046875 4.65625 -7.046875 Z M 4.65625 -7.046875 "/></g></g></g><g fill="#ff6b66" fill-opacity="1"><g transform="translate(74.534571, 18.115551)"><g><path d="M 4.890625 -1.75 C 4.992188 -1.84375 5.085938 -1.945312 5.171875 -2.0625 C 5.253906 -2.1875 5.296875 -2.320312 5.296875 -2.46875 C 5.296875 -2.65625 5.226562 -2.8125 5.09375 -2.9375 C 4.957031 -3.070312 4.789062 -3.179688 4.59375 -3.265625 C 4.40625 -3.359375 4.207031 -3.425781 4 -3.46875 C 3.789062 -3.519531 3.613281 -3.5625 3.46875 -3.59375 C 3.082031 -3.6875 2.71875 -3.800781 2.375 -3.9375 C 2.039062 -4.070312 1.75 -4.234375 1.5 -4.421875 C 1.25 -4.617188 1.050781 -4.847656 0.90625 -5.109375 C 0.757812 -5.378906 0.6875 -5.691406 0.6875 -6.046875 C 0.6875 -6.390625 0.765625 -6.707031 0.921875 -7 C 1.085938 -7.300781 1.304688 -7.566406 1.578125 -7.796875 C 1.859375 -8.023438 2.179688 -8.207031 2.546875 -8.34375 C 2.921875 -8.476562 3.3125 -8.546875 3.71875 -8.546875 C 4.082031 -8.546875 4.425781 -8.492188 4.75 -8.390625 C 5.082031 -8.285156 5.378906 -8.140625 5.640625 -7.953125 C 5.898438 -7.773438 6.117188 -7.554688 6.296875 -7.296875 C 6.484375 -7.035156 6.609375 -6.75 6.671875 -6.4375 L 5.140625 -6.078125 C 5.066406 -6.359375 4.910156 -6.585938 4.671875 -6.765625 C 4.441406 -6.953125 4.125 -7.046875 3.71875 -7.046875 C 3.582031 -7.046875 3.4375 -7.023438 3.28125 -6.984375 C 3.125 -6.953125 2.984375 -6.894531 2.859375 -6.8125 C 2.734375 -6.726562 2.625 -6.625 2.53125 -6.5 C 2.445312 -6.382812 2.40625 -6.253906 2.40625 -6.109375 C 2.40625 -5.941406 2.453125 -5.800781 2.546875 -5.6875 C 2.648438 -5.570312 2.769531 -5.472656 2.90625 -5.390625 C 3.050781 -5.316406 3.203125 -5.253906 3.359375 -5.203125 C 3.523438 -5.160156 3.679688 -5.125 3.828125 -5.09375 C 4.441406 -4.9375 4.953125 -4.769531 5.359375 -4.59375 C 5.773438 -4.414062 6.101562 -4.222656 6.34375 -4.015625 C 6.59375 -3.804688 6.765625 -3.578125 6.859375 -3.328125 C 6.960938 -3.078125 7.015625 -2.789062 7.015625 -2.46875 C 7.015625 -2.09375 6.929688 -1.742188 6.765625 -1.421875 C 6.597656 -1.097656 6.363281 -0.8125 6.0625 -0.5625 C 5.757812 -0.320312 5.398438 -0.132812 4.984375 0 C 4.578125 0.125 4.132812 0.1875 3.65625 0.1875 C 2.925781 0.1875 2.273438 0.0078125 1.703125 -0.34375 C 1.140625 -0.695312 0.757812 -1.171875 0.5625 -1.765625 L 2 -2.421875 C 2.1875 -2.015625 2.425781 -1.738281 2.71875 -1.59375 C 3.007812 -1.445312 3.34375 -1.375 3.71875 -1.375 C 4.1875 -1.375 4.578125 -1.5 4.890625 -1.75 Z M 4.890625 -1.75 "/></g></g></g><g fill="#000000" fill-opacity="1"><g transform="translate(42.475978, 27.101814)"><g/></g></g><g fill="#000000" fill-opacity="1"><g transform="translate(13.182972, 26.870593)"><g><path d="M 4.152344 -4.277344 L 2.789062 -1.320312 L 1.441406 -4.277344 L 0.421875 -4.277344 L 0.421875 0 L 1.363281 0 L 1.363281 -2.554688 L 2.519531 0 L 3.058594 0 L 4.222656 -2.546875 L 4.222656 0 L 5.164062 0 L 5.164062 -4.277344 Z M 4.152344 -4.277344 "/></g></g></g><g fill="#000000" fill-opacity="1"><g transform="translate(19.822862, 26.870593)"><g><path d="M 3.039062 0 L 4.042969 0 L 2.503906 -4.277344 L 1.449219 -4.277344 L -0.09375 0 L 0.914062 0 L 1.175781 -0.804688 L 2.773438 -0.804688 Z M 1.425781 -1.589844 L 1.976562 -3.289062 L 2.523438 -1.589844 Z M 1.425781 -1.589844 "/></g></g></g><g fill="#000000" fill-opacity="1"><g transform="translate(24.829521, 26.870593)"><g><path d="M 3.09375 0 L 4.351562 0 L 2.289062 -2.375 L 4.136719 -4.277344 L 2.925781 -4.277344 L 1.527344 -2.765625 L 1.363281 -2.765625 L 1.363281 -4.277344 L 0.421875 -4.277344 L 0.421875 0 L 1.363281 0 L 1.363281 -1.953125 L 1.496094 -1.953125 Z M 3.09375 0 "/></g></g></g><g fill="#000000" fill-opacity="1"><g transform="translate(30.085803, 26.870593)"><g><path d="M 3.03125 -3.453125 L 3.03125 -4.277344 L 0.457031 -4.277344 L 0.457031 0 L 3.03125 0 L 3.03125 -0.828125 L 1.398438 -0.828125 L 1.398438 -1.726562 L 2.796875 -1.726562 L 2.796875 -2.554688 L 1.398438 -2.554688 L 1.398438 -3.453125 Z M 3.03125 -3.453125 "/></g></g></g><g fill="#000000" fill-opacity="1"><g transform="translate(34.464848, 26.870593)"><g><path d="M 2.175781 0.0585938 C 3.1875 0.0585938 3.957031 -0.5625 3.957031 -1.371094 L 3.957031 -4.277344 L 3.015625 -4.277344 L 3.015625 -1.546875 C 3.015625 -1.113281 2.652344 -0.777344 2.175781 -0.777344 C 1.703125 -0.777344 1.339844 -1.113281 1.339844 -1.546875 L 1.339844 -4.277344 L 0.398438 -4.277344 L 0.398438 -1.371094 C 0.398438 -0.5625 1.175781 0.0585938 2.175781 0.0585938 Z M 2.175781 0.0585938 "/></g></g></g><g fill="#000000" fill-opacity="1"><g transform="translate(39.878035, 26.870593)"><g><path d="M 2.238281 -4.277344 L 0.421875 -4.277344 L 0.421875 0 L 1.363281 0 L 1.363281 -1.734375 L 2.238281 -1.734375 C 2.960938 -1.734375 3.515625 -2.269531 3.515625 -2.988281 C 3.515625 -3.703125 2.960938 -4.277344 2.238281 -4.277344 Z M 2.089844 -2.511719 L 1.363281 -2.511719 L 1.363281 -3.453125 L 2.089844 -3.453125 C 2.390625 -3.453125 2.617188 -3.257812 2.617188 -2.980469 C 2.617188 -2.695312 2.390625 -2.511719 2.089844 -2.511719 Z M 2.089844 -2.511719 "/></g></g></g><g fill="#000000" fill-opacity="1"><g transform="translate(44.478166, 26.870593)"><g/></g></g><g fill="#000000" fill-opacity="1"><g transform="translate(47.245375, 26.870593)"><g><path d="M 3.039062 0 L 4.042969 0 L 2.503906 -4.277344 L 1.449219 -4.277344 L -0.09375 0 L 0.914062 0 L 1.175781 -0.804688 L 2.773438 -0.804688 Z M 1.425781 -1.589844 L 1.976562 -3.289062 L 2.523438 -1.589844 Z M 1.425781 -1.589844 "/></g></g></g><g fill="#000000" fill-opacity="1"><g transform="translate(52.252035, 26.870593)"><g><path d="M 2.652344 -1.761719 C 3.160156 -1.910156 3.515625 -2.382812 3.515625 -2.96875 C 3.515625 -3.695312 2.972656 -4.277344 2.238281 -4.277344 L 0.421875 -4.277344 L 0.421875 0 L 1.363281 0 L 1.363281 -1.65625 L 1.738281 -1.65625 L 2.796875 0 L 3.851562 0 Z M 2.097656 -2.433594 L 1.363281 -2.433594 L 1.363281 -3.445312 L 2.097656 -3.445312 C 2.394531 -3.445312 2.617188 -3.230469 2.617188 -2.9375 C 2.617188 -2.640625 2.394531 -2.433594 2.097656 -2.433594 Z M 2.097656 -2.433594 "/></g></g></g><g fill="#000000" fill-opacity="1"><g transform="translate(57.123186, 26.870593)"><g><path d="M 3.058594 -4.277344 L -0.0351562 -4.277344 L -0.0351562 -3.445312 L 1.046875 -3.445312 L 1.046875 0 L 1.984375 0 L 1.984375 -3.445312 L 3.058594 -3.445312 Z M 3.058594 -4.277344 "/></g></g></g><g fill="#000000" fill-opacity="1"><g transform="translate(61.202686, 26.870593)"><g><path d="M 0.457031 0 L 1.398438 0 L 1.398438 -4.277344 L 0.457031 -4.277344 Z M 0.457031 0 "/></g></g></g><g fill="#000000" fill-opacity="1"><g transform="translate(64.105404, 26.870593)"><g><path d="M 1.738281 0.0585938 C 2.539062 0.0585938 3.214844 -0.414062 3.214844 -1.210938 C 3.214844 -2.796875 1.25 -2.402344 1.25 -3.144531 C 1.25 -3.386719 1.433594 -3.5 1.660156 -3.5 C 1.902344 -3.5 2.148438 -3.367188 2.359375 -3.132812 L 2.988281 -3.730469 C 2.675781 -4.09375 2.195312 -4.335938 1.667969 -4.335938 C 0.992188 -4.335938 0.300781 -3.929688 0.300781 -3.074219 C 0.300781 -1.617188 2.273438 -1.96875 2.273438 -1.21875 C 2.273438 -0.984375 2.074219 -0.828125 1.746094 -0.828125 C 1.355469 -0.828125 1.046875 -1.046875 0.890625 -1.382812 L 0.113281 -0.898438 C 0.390625 -0.363281 0.992188 0.0585938 1.738281 0.0585938 Z M 1.738281 0.0585938 "/></g></g></g><g fill="#000000" fill-opacity="1"><g transform="translate(68.541502, 26.870593)"><g><path d="M 3.058594 -4.277344 L -0.0351562 -4.277344 L -0.0351562 -3.445312 L 1.046875 -3.445312 L 1.046875 0 L 1.984375 0 L 1.984375 -3.445312 L 3.058594 -3.445312 Z M 3.058594 -4.277344 "/></g></g></g></svg>