<svg xmlns="http://www.w3.org/2000/svg" xmlns:xlink="http://www.w3.org/1999/xlink" width="489" zoomAndPan="magnify" viewBox="0 0 366.75 122.249994" height="163" preserveAspectRatio="xMidYMid meet" version="1.0"><defs><g/></defs><g fill="#5d0000" fill-opacity="1"><g transform="translate(1.514913, 71.977404)"><g><path d="M 4.9375 0 L 4.9375 -41.390625 L 10.546875 -41.390625 L 10.546875 -4.578125 L 31.46875 -4.578125 L 31.46875 0 Z M 4.9375 0 "/></g></g></g><g fill="#5d0000" fill-opacity="1"><g transform="translate(36.419538, 71.977404)"><g><path d="M 5.546875 0 L 5.546875 -41.390625 L 11.171875 -41.390625 L 11.171875 0 Z M 5.546875 0 "/></g></g></g><g fill="#5d0000" fill-opacity="1"><g transform="translate(54.579215, 71.977404)"><g><path d="M 34.28125 0 L 29.5625 -12.109375 L 10.6875 -12.109375 L 5.9375 0 L 0.125 0 L 17.015625 -41.390625 L 23.390625 -41.390625 L 40.015625 0 Z M 20.125 -37.171875 L 19.859375 -36.34375 C 19.367188 -34.71875 18.644531 -32.632812 17.6875 -30.09375 L 12.40625 -16.484375 L 27.875 -16.484375 L 22.5625 -30.140625 C 22.007812 -31.492188 21.460938 -33.023438 20.921875 -34.734375 Z M 20.125 -37.171875 "/></g></g></g><g fill="#5d0000" fill-opacity="1"><g transform="translate(96.152442, 71.977404)"><g/></g></g><g fill="#5d0000" fill-opacity="1"><g transform="translate(114.312119, 71.977404)"><g><path d="M 10.546875 -36.8125 L 10.546875 -21.421875 L 33.640625 -21.421875 L 33.640625 -16.78125 L 10.546875 -16.78125 L 10.546875 0 L 4.9375 0 L 4.9375 -41.390625 L 34.34375 -41.390625 L 34.34375 -36.8125 Z M 10.546875 -36.8125 "/></g></g></g><g fill="#5d0000" fill-opacity="1"><g transform="translate(152.506985, 71.977404)"><g><path d="M 4.9375 0 L 4.9375 -41.390625 L 36.34375 -41.390625 L 36.34375 -36.8125 L 10.546875 -36.8125 L 10.546875 -23.53125 L 34.578125 -23.53125 L 34.578125 -19.015625 L 10.546875 -19.015625 L 10.546875 -4.578125 L 37.546875 -4.578125 L 37.546875 0 Z M 4.9375 0 "/></g></g></g><g fill="#5d0000" fill-opacity="1"><g transform="translate(194.080219, 71.977404)"><g><path d="M 36.96875 -11.671875 C 36.96875 -7.984375 35.625 -5.113281 32.9375 -3.0625 C 30.25 -1.019531 26.515625 0 21.734375 0 L 4.9375 0 L 4.9375 -41.390625 L 19.984375 -41.390625 C 29.691406 -41.390625 34.546875 -38.039062 34.546875 -31.34375 C 34.546875 -28.894531 33.859375 -26.835938 32.484375 -25.171875 C 31.117188 -23.515625 29.179688 -22.398438 26.671875 -21.828125 C 29.960938 -21.441406 32.5 -20.34375 34.28125 -18.53125 C 36.070312 -16.71875 36.96875 -14.429688 36.96875 -11.671875 Z M 28.90625 -30.671875 C 28.90625 -32.898438 28.140625 -34.492188 26.609375 -35.453125 C 25.085938 -36.421875 22.878906 -36.90625 19.984375 -36.90625 L 10.546875 -36.90625 L 10.546875 -23.796875 L 19.984375 -23.796875 C 22.972656 -23.796875 25.207031 -24.359375 26.6875 -25.484375 C 28.164062 -26.609375 28.90625 -28.335938 28.90625 -30.671875 Z M 31.296875 -12.109375 C 31.296875 -16.984375 27.863281 -19.421875 21 -19.421875 L 10.546875 -19.421875 L 10.546875 -4.5 L 21.453125 -4.5 C 24.878906 -4.5 27.375 -5.132812 28.9375 -6.40625 C 30.507812 -7.675781 31.296875 -9.578125 31.296875 -12.109375 Z M 31.296875 -12.109375 "/></g></g></g><g fill="#5d0000" fill-opacity="1"><g transform="translate(235.653453, 71.977404)"><g><path d="M 34.203125 0 L 23.453125 -17.1875 L 10.546875 -17.1875 L 10.546875 0 L 4.9375 0 L 4.9375 -41.390625 L 24.421875 -41.390625 C 29.078125 -41.390625 32.671875 -40.347656 35.203125 -38.265625 C 37.742188 -36.179688 39.015625 -33.28125 39.015625 -29.5625 C 39.015625 -26.476562 38.117188 -23.890625 36.328125 -21.796875 C 34.535156 -19.703125 32.0625 -18.378906 28.90625 -17.828125 L 40.65625 0 Z M 33.375 -29.5 C 33.375 -31.90625 32.554688 -33.738281 30.921875 -35 C 29.285156 -36.269531 26.929688 -36.90625 23.859375 -36.90625 L 10.546875 -36.90625 L 10.546875 -21.625 L 24.09375 -21.625 C 27.050781 -21.625 29.335938 -22.3125 30.953125 -23.6875 C 32.566406 -25.070312 33.375 -27.007812 33.375 -29.5 Z M 33.375 -29.5 "/></g></g></g><g fill="#5d0000" fill-opacity="1"><g transform="translate(280.546288, 71.977404)"><g><path d="M 4.9375 0 L 4.9375 -41.390625 L 36.34375 -41.390625 L 36.34375 -36.8125 L 10.546875 -36.8125 L 10.546875 -23.53125 L 34.578125 -23.53125 L 34.578125 -19.015625 L 10.546875 -19.015625 L 10.546875 -4.578125 L 37.546875 -4.578125 L 37.546875 0 Z M 4.9375 0 "/></g></g></g><g fill="#5d0000" fill-opacity="1"><g transform="translate(322.119522, 71.977404)"><g><path d="M 37.375 -11.421875 C 37.375 -7.609375 35.878906 -4.648438 32.890625 -2.546875 C 29.898438 -0.453125 25.691406 0.59375 20.265625 0.59375 C 10.179688 0.59375 4.335938 -2.914062 2.734375 -9.9375 L 8.171875 -11.015625 C 8.796875 -8.523438 10.125 -6.695312 12.15625 -5.53125 C 14.195312 -4.375 16.972656 -3.796875 20.484375 -3.796875 C 24.097656 -3.796875 26.890625 -4.414062 28.859375 -5.65625 C 30.828125 -6.894531 31.8125 -8.722656 31.8125 -11.140625 C 31.8125 -12.484375 31.503906 -13.578125 30.890625 -14.421875 C 30.273438 -15.265625 29.410156 -15.957031 28.296875 -16.5 C 27.179688 -17.050781 25.847656 -17.515625 24.296875 -17.890625 C 22.753906 -18.265625 21.039062 -18.664062 19.15625 -19.09375 C 15.882812 -19.820312 13.398438 -20.546875 11.703125 -21.265625 C 10.015625 -21.992188 8.679688 -22.800781 7.703125 -23.6875 C 6.722656 -24.582031 5.972656 -25.625 5.453125 -26.8125 C 4.929688 -28.007812 4.671875 -29.382812 4.671875 -30.9375 C 4.671875 -34.476562 6.023438 -37.207031 8.734375 -39.125 C 11.453125 -41.050781 15.335938 -42.015625 20.390625 -42.015625 C 25.085938 -42.015625 28.679688 -41.296875 31.171875 -39.859375 C 33.660156 -38.421875 35.40625 -35.96875 36.40625 -32.5 L 30.875 -31.53125 C 30.269531 -33.71875 29.113281 -35.304688 27.40625 -36.296875 C 25.707031 -37.285156 23.347656 -37.78125 20.328125 -37.78125 C 17.015625 -37.78125 14.488281 -37.234375 12.75 -36.140625 C 11.007812 -35.046875 10.140625 -33.410156 10.140625 -31.234375 C 10.140625 -29.960938 10.472656 -28.910156 11.140625 -28.078125 C 11.816406 -27.242188 12.789062 -26.535156 14.0625 -25.953125 C 15.34375 -25.378906 17.882812 -24.671875 21.6875 -23.828125 C 22.957031 -23.535156 24.222656 -23.234375 25.484375 -22.921875 C 26.753906 -22.617188 27.960938 -22.257812 29.109375 -21.84375 C 30.265625 -21.425781 31.347656 -20.929688 32.359375 -20.359375 C 33.367188 -19.796875 34.242188 -19.101562 34.984375 -18.28125 C 35.734375 -17.457031 36.316406 -16.484375 36.734375 -15.359375 C 37.160156 -14.242188 37.375 -12.929688 37.375 -11.421875 Z M 37.375 -11.421875 "/></g></g></g><g fill="#5d0000" fill-opacity="1"><g transform="translate(30.462791, 104.138161)"><g><path d="M 6.90625 0 L 5.828125 0 L 5.828125 -8.5 L 4.015625 -3.234375 L 3.25 -3.234375 L 1.453125 -8.5 L 1.453125 0 L 0.390625 0 L 0.390625 -10.203125 L 1.78125 -10.203125 L 3.640625 -4.875 L 5.515625 -10.203125 L 6.90625 -10.203125 Z M 6.90625 0 "/></g></g></g><g fill="#5d0000" fill-opacity="1"><g transform="translate(43.249756, 104.138161)"><g><path d="M 7.78125 0 L 6.625 0 L 5.671875 -2.921875 L 1.640625 -2.921875 L 0.6875 0 L -0.46875 0 L 2.9375 -10.203125 L 4.390625 -10.203125 Z M 5.359375 -3.859375 L 3.65625 -9.125 L 1.9375 -3.859375 Z M 5.359375 -3.859375 "/></g></g></g><g fill="#5d0000" fill-opacity="1"><g transform="translate(56.03672, 104.138161)"><g><path d="M 7.5625 -5.09375 C 7.5625 -4.4375 7.5 -3.804688 7.375 -3.203125 C 7.25 -2.609375 7.050781 -2.070312 6.78125 -1.59375 C 6.507812 -1.125 6.15625 -0.734375 5.71875 -0.421875 C 5.28125 -0.109375 4.75 0.078125 4.125 0.140625 C 4.25 0.835938 4.488281 1.316406 4.84375 1.578125 C 5.207031 1.847656 5.742188 1.984375 6.453125 1.984375 C 6.628906 1.984375 6.78125 1.976562 6.90625 1.96875 C 7.039062 1.96875 7.164062 1.960938 7.28125 1.953125 L 7.28125 2.875 C 7.132812 2.882812 6.988281 2.890625 6.84375 2.890625 C 6.707031 2.898438 6.578125 2.90625 6.453125 2.90625 C 5.390625 2.90625 4.585938 2.675781 4.046875 2.21875 C 3.503906 1.769531 3.175781 1.070312 3.0625 0.125 C 2.488281 0.0507812 1.988281 -0.132812 1.5625 -0.4375 C 1.144531 -0.738281 0.800781 -1.117188 0.53125 -1.578125 C 0.257812 -2.046875 0.0625 -2.578125 -0.0625 -3.171875 C -0.195312 -3.773438 -0.265625 -4.414062 -0.265625 -5.09375 C -0.265625 -5.769531 -0.191406 -6.425781 -0.046875 -7.0625 C 0.0859375 -7.695312 0.3125 -8.257812 0.625 -8.75 C 0.945312 -9.238281 1.351562 -9.628906 1.84375 -9.921875 C 2.34375 -10.222656 2.945312 -10.375 3.65625 -10.375 C 4.351562 -10.375 4.953125 -10.222656 5.453125 -9.921875 C 5.953125 -9.628906 6.351562 -9.238281 6.65625 -8.75 C 6.96875 -8.257812 7.195312 -7.695312 7.34375 -7.0625 C 7.488281 -6.425781 7.5625 -5.769531 7.5625 -5.09375 Z M 6.484375 -5.09375 C 6.484375 -5.601562 6.4375 -6.113281 6.34375 -6.625 C 6.257812 -7.144531 6.109375 -7.613281 5.890625 -8.03125 C 5.679688 -8.457031 5.390625 -8.800781 5.015625 -9.0625 C 4.648438 -9.320312 4.195312 -9.453125 3.65625 -9.453125 C 3.09375 -9.453125 2.628906 -9.320312 2.265625 -9.0625 C 1.910156 -8.800781 1.625 -8.457031 1.40625 -8.03125 C 1.1875 -7.613281 1.03125 -7.144531 0.9375 -6.625 C 0.851562 -6.113281 0.8125 -5.601562 0.8125 -5.09375 C 0.8125 -3.738281 1.054688 -2.671875 1.546875 -1.890625 C 2.046875 -1.117188 2.75 -0.734375 3.65625 -0.734375 C 4.550781 -0.734375 5.242188 -1.117188 5.734375 -1.890625 C 6.234375 -2.671875 6.484375 -3.738281 6.484375 -5.09375 Z M 6.484375 -5.09375 "/></g></g></g><g fill="#5d0000" fill-opacity="1"><g transform="translate(68.823684, 104.138161)"><g><path d="M 6.90625 -3.640625 C 6.90625 -3.054688 6.835938 -2.53125 6.703125 -2.0625 C 6.578125 -1.59375 6.378906 -1.191406 6.109375 -0.859375 C 5.847656 -0.535156 5.507812 -0.28125 5.09375 -0.09375 C 4.6875 0.09375 4.203125 0.1875 3.640625 0.1875 C 3.066406 0.1875 2.578125 0.09375 2.171875 -0.09375 C 1.765625 -0.28125 1.425781 -0.535156 1.15625 -0.859375 C 0.894531 -1.191406 0.703125 -1.59375 0.578125 -2.0625 C 0.453125 -2.539062 0.390625 -3.070312 0.390625 -3.65625 L 0.390625 -10.203125 L 1.453125 -10.203125 L 1.453125 -3.640625 C 1.453125 -3.328125 1.476562 -3 1.53125 -2.65625 C 1.59375 -2.3125 1.703125 -2 1.859375 -1.71875 C 2.015625 -1.4375 2.234375 -1.203125 2.515625 -1.015625 C 2.804688 -0.828125 3.179688 -0.734375 3.640625 -0.734375 C 4.097656 -0.734375 4.46875 -0.828125 4.75 -1.015625 C 5.039062 -1.203125 5.265625 -1.4375 5.421875 -1.71875 C 5.585938 -2 5.695312 -2.3125 5.75 -2.65625 C 5.800781 -3 5.828125 -3.328125 5.828125 -3.640625 L 5.828125 -10.203125 L 6.90625 -10.203125 Z M 6.90625 -3.640625 "/></g></g></g><g fill="#5d0000" fill-opacity="1"><g transform="translate(81.610649, 104.138161)"><g><path d="M 5.828125 0 L 1.453125 0 L 1.453125 -0.921875 L 3.109375 -0.921875 L 3.109375 -9.28125 L 1.453125 -9.28125 L 1.453125 -10.203125 L 5.828125 -10.203125 L 5.828125 -9.28125 L 4.1875 -9.28125 L 4.1875 -0.921875 L 5.828125 -0.921875 Z M 5.828125 0 "/></g></g></g><g fill="#5d0000" fill-opacity="1"><g transform="translate(94.397611, 104.138161)"><g><path d="M 6.90625 0 L 0.390625 0 L 0.390625 -10.203125 L 1.453125 -10.203125 L 1.453125 -0.921875 L 6.90625 -0.921875 Z M 6.90625 0 "/></g></g></g><g fill="#5d0000" fill-opacity="1"><g transform="translate(107.184573, 104.138161)"><g><path d="M 6.90625 0 L 0.390625 0 L 0.390625 -10.203125 L 1.453125 -10.203125 L 1.453125 -0.921875 L 6.90625 -0.921875 Z M 6.90625 0 "/></g></g></g><g fill="#5d0000" fill-opacity="1"><g transform="translate(119.971535, 104.138161)"><g><path d="M 7.78125 0 L 6.625 0 L 5.671875 -2.921875 L 1.640625 -2.921875 L 0.6875 0 L -0.46875 0 L 2.9375 -10.203125 L 4.390625 -10.203125 Z M 5.359375 -3.859375 L 3.65625 -9.125 L 1.9375 -3.859375 Z M 5.359375 -3.859375 "/></g></g></g><g fill="#5d0000" fill-opacity="1"><g transform="translate(132.758497, 104.138161)"><g><path d="M 7.625 -5.09375 C 7.625 -4.40625 7.550781 -3.753906 7.40625 -3.140625 C 7.257812 -2.523438 7.03125 -1.984375 6.71875 -1.515625 C 6.40625 -1.046875 6 -0.675781 5.5 -0.40625 C 5 -0.132812 4.398438 0 3.703125 0 L 0.390625 0 L 0.390625 -10.203125 L 3.703125 -10.203125 C 4.390625 -10.203125 4.984375 -10.0625 5.484375 -9.78125 C 5.984375 -9.5 6.390625 -9.125 6.703125 -8.65625 C 7.015625 -8.1875 7.242188 -7.644531 7.390625 -7.03125 C 7.546875 -6.414062 7.625 -5.769531 7.625 -5.09375 Z M 6.546875 -5.09375 C 6.546875 -6.425781 6.296875 -7.457031 5.796875 -8.1875 C 5.296875 -8.914062 4.597656 -9.28125 3.703125 -9.28125 L 1.453125 -9.28125 L 1.453125 -0.921875 L 3.703125 -0.921875 C 4.597656 -0.921875 5.296875 -1.28125 5.796875 -2 C 6.296875 -2.726562 6.546875 -3.757812 6.546875 -5.09375 Z M 6.546875 -5.09375 "/></g></g></g><g fill="#5d0000" fill-opacity="1"><g transform="translate(145.545459, 104.138161)"><g><path d="M 7.5625 -5.09375 C 7.5625 -4.40625 7.488281 -3.742188 7.34375 -3.109375 C 7.207031 -2.472656 6.984375 -1.910156 6.671875 -1.421875 C 6.367188 -0.941406 5.96875 -0.550781 5.46875 -0.25 C 4.96875 0.0390625 4.363281 0.1875 3.65625 0.1875 C 2.9375 0.1875 2.328125 0.0390625 1.828125 -0.25 C 1.335938 -0.550781 0.9375 -0.941406 0.625 -1.421875 C 0.3125 -1.910156 0.0859375 -2.472656 -0.046875 -3.109375 C -0.191406 -3.742188 -0.265625 -4.40625 -0.265625 -5.09375 C -0.265625 -5.769531 -0.191406 -6.425781 -0.046875 -7.0625 C 0.0859375 -7.695312 0.3125 -8.257812 0.625 -8.75 C 0.945312 -9.238281 1.351562 -9.628906 1.84375 -9.921875 C 2.34375 -10.222656 2.945312 -10.375 3.65625 -10.375 C 4.351562 -10.375 4.953125 -10.222656 5.453125 -9.921875 C 5.953125 -9.628906 6.351562 -9.238281 6.65625 -8.75 C 6.96875 -8.257812 7.195312 -7.695312 7.34375 -7.0625 C 7.488281 -6.425781 7.5625 -5.769531 7.5625 -5.09375 Z M 6.484375 -5.09375 C 6.484375 -5.757812 6.414062 -6.363281 6.28125 -6.90625 C 6.15625 -7.445312 5.972656 -7.90625 5.734375 -8.28125 C 5.492188 -8.664062 5.195312 -8.957031 4.84375 -9.15625 C 4.5 -9.351562 4.101562 -9.453125 3.65625 -9.453125 C 3.09375 -9.453125 2.628906 -9.320312 2.265625 -9.0625 C 1.910156 -8.800781 1.625 -8.457031 1.40625 -8.03125 C 1.1875 -7.613281 1.03125 -7.144531 0.9375 -6.625 C 0.851562 -6.113281 0.8125 -5.601562 0.8125 -5.09375 C 0.8125 -4.582031 0.851562 -4.066406 0.9375 -3.546875 C 1.03125 -3.023438 1.1875 -2.554688 1.40625 -2.140625 C 1.625 -1.734375 1.910156 -1.394531 2.265625 -1.125 C 2.628906 -0.863281 3.09375 -0.734375 3.65625 -0.734375 C 4.207031 -0.734375 4.664062 -0.863281 5.03125 -1.125 C 5.394531 -1.394531 5.6875 -1.734375 5.90625 -2.140625 C 6.125 -2.554688 6.273438 -3.023438 6.359375 -3.546875 C 6.441406 -4.066406 6.484375 -4.582031 6.484375 -5.09375 Z M 6.484375 -5.09375 "/></g></g></g><g fill="#5d0000" fill-opacity="1"><g transform="translate(158.332421, 104.138161)"><g><path d="M 7.375 0 L 6.015625 0 L 3.046875 -4.375 L 1.453125 -4.375 L 1.453125 0 L 0.390625 0 L 0.390625 -10.203125 L 3.75 -10.203125 C 4.863281 -10.203125 5.726562 -9.957031 6.34375 -9.46875 C 6.957031 -8.976562 7.265625 -8.25 7.265625 -7.28125 C 7.265625 -6.851562 7.1875 -6.46875 7.03125 -6.125 C 6.882812 -5.789062 6.679688 -5.503906 6.421875 -5.265625 C 6.160156 -5.023438 5.847656 -4.832031 5.484375 -4.6875 C 5.128906 -4.539062 4.738281 -4.453125 4.3125 -4.421875 Z M 6.15625 -7.28125 C 6.15625 -7.976562 5.941406 -8.484375 5.515625 -8.796875 C 5.085938 -9.117188 4.5 -9.28125 3.75 -9.28125 L 1.453125 -9.28125 L 1.453125 -5.28125 L 3.75 -5.28125 C 4.5 -5.28125 5.085938 -5.4375 5.515625 -5.75 C 5.941406 -6.070312 6.15625 -6.582031 6.15625 -7.28125 Z M 6.15625 -7.28125 "/></g></g></g><g fill="#5d0000" fill-opacity="1"><g transform="translate(171.119383, 104.138161)"><g><path d="M 7.78125 0 L 6.625 0 L 5.671875 -2.921875 L 1.640625 -2.921875 L 0.6875 0 L -0.46875 0 L 2.9375 -10.203125 L 4.390625 -10.203125 Z M 5.359375 -3.859375 L 3.65625 -9.125 L 1.9375 -3.859375 Z M 5.359375 -3.859375 "/></g></g></g><g fill="#5d0000" fill-opacity="1"><g transform="translate(183.906345, 104.138161)"><g/></g></g><g fill="#5d0000" fill-opacity="1"><g transform="translate(196.693307, 104.138161)"><g><path d="M 7.4375 -9.28125 L 6.609375 -9.28125 L 4.1875 -4.40625 L 4.1875 -0.921875 L 5.828125 -0.921875 L 5.828125 0 L 1.453125 0 L 1.453125 -0.921875 L 3.109375 -0.921875 L 3.109375 -4.40625 L 0.671875 -9.28125 L -0.15625 -9.28125 L -0.15625 -10.203125 L 2.71875 -10.203125 L 2.71875 -9.28125 L 1.875 -9.28125 L 3.65625 -5.4375 L 5.40625 -9.28125 L 4.5625 -9.28125 L 4.5625 -10.203125 L 7.4375 -10.203125 Z M 7.4375 -9.28125 "/></g></g></g><g fill="#5d0000" fill-opacity="1"><g transform="translate(209.48027, 104.138161)"><g/></g></g><g fill="#5d0000" fill-opacity="1"><g transform="translate(222.267232, 104.138161)"><g><path d="M 6.90625 -9.28125 L 1.453125 -9.28125 L 1.453125 -5.640625 L 5.46875 -5.640625 L 5.46875 -4.71875 L 1.453125 -4.71875 L 1.453125 0 L 0.390625 0 L 0.390625 -10.203125 L 6.90625 -10.203125 Z M 6.90625 -9.28125 "/></g></g></g><g fill="#5d0000" fill-opacity="1"><g transform="translate(235.054205, 104.138161)"><g><path d="M 7.5625 -5.09375 C 7.5625 -4.40625 7.488281 -3.742188 7.34375 -3.109375 C 7.207031 -2.472656 6.984375 -1.910156 6.671875 -1.421875 C 6.367188 -0.941406 5.96875 -0.550781 5.46875 -0.25 C 4.96875 0.0390625 4.363281 0.1875 3.65625 0.1875 C 2.9375 0.1875 2.328125 0.0390625 1.828125 -0.25 C 1.335938 -0.550781 0.9375 -0.941406 0.625 -1.421875 C 0.3125 -1.910156 0.0859375 -2.472656 -0.046875 -3.109375 C -0.191406 -3.742188 -0.265625 -4.40625 -0.265625 -5.09375 C -0.265625 -5.769531 -0.191406 -6.425781 -0.046875 -7.0625 C 0.0859375 -7.695312 0.3125 -8.257812 0.625 -8.75 C 0.945312 -9.238281 1.351562 -9.628906 1.84375 -9.921875 C 2.34375 -10.222656 2.945312 -10.375 3.65625 -10.375 C 4.351562 -10.375 4.953125 -10.222656 5.453125 -9.921875 C 5.953125 -9.628906 6.351562 -9.238281 6.65625 -8.75 C 6.96875 -8.257812 7.195312 -7.695312 7.34375 -7.0625 C 7.488281 -6.425781 7.5625 -5.769531 7.5625 -5.09375 Z M 6.484375 -5.09375 C 6.484375 -5.757812 6.414062 -6.363281 6.28125 -6.90625 C 6.15625 -7.445312 5.972656 -7.90625 5.734375 -8.28125 C 5.492188 -8.664062 5.195312 -8.957031 4.84375 -9.15625 C 4.5 -9.351562 4.101562 -9.453125 3.65625 -9.453125 C 3.09375 -9.453125 2.628906 -9.320312 2.265625 -9.0625 C 1.910156 -8.800781 1.625 -8.457031 1.40625 -8.03125 C 1.1875 -7.613281 1.03125 -7.144531 0.9375 -6.625 C 0.851562 -6.113281 0.8125 -5.601562 0.8125 -5.09375 C 0.8125 -4.582031 0.851562 -4.066406 0.9375 -3.546875 C 1.03125 -3.023438 1.1875 -2.554688 1.40625 -2.140625 C 1.625 -1.734375 1.910156 -1.394531 2.265625 -1.125 C 2.628906 -0.863281 3.09375 -0.734375 3.65625 -0.734375 C 4.207031 -0.734375 4.664062 -0.863281 5.03125 -1.125 C 5.394531 -1.394531 5.6875 -1.734375 5.90625 -2.140625 C 6.125 -2.554688 6.273438 -3.023438 6.359375 -3.546875 C 6.441406 -4.066406 6.484375 -4.582031 6.484375 -5.09375 Z M 6.484375 -5.09375 "/></g></g></g><g fill="#5d0000" fill-opacity="1"><g transform="translate(247.841178, 104.138161)"><g><path d="M 7.375 0 L 6.015625 0 L 3.046875 -4.375 L 1.453125 -4.375 L 1.453125 0 L 0.390625 0 L 0.390625 -10.203125 L 3.75 -10.203125 C 4.863281 -10.203125 5.726562 -9.957031 6.34375 -9.46875 C 6.957031 -8.976562 7.265625 -8.25 7.265625 -7.28125 C 7.265625 -6.851562 7.1875 -6.46875 7.03125 -6.125 C 6.882812 -5.789062 6.679688 -5.503906 6.421875 -5.265625 C 6.160156 -5.023438 5.847656 -4.832031 5.484375 -4.6875 C 5.128906 -4.539062 4.738281 -4.453125 4.3125 -4.421875 Z M 6.15625 -7.28125 C 6.15625 -7.976562 5.941406 -8.484375 5.515625 -8.796875 C 5.085938 -9.117188 4.5 -9.28125 3.75 -9.28125 L 1.453125 -9.28125 L 1.453125 -5.28125 L 3.75 -5.28125 C 4.5 -5.28125 5.085938 -5.4375 5.515625 -5.75 C 5.941406 -6.070312 6.15625 -6.582031 6.15625 -7.28125 Z M 6.15625 -7.28125 "/></g></g></g><g fill="#5d0000" fill-opacity="1"><g transform="translate(260.628152, 104.138161)"><g><path d="M 6.90625 0 L 5.828125 0 L 5.828125 -8.5 L 4.015625 -3.234375 L 3.25 -3.234375 L 1.453125 -8.5 L 1.453125 0 L 0.390625 0 L 0.390625 -10.203125 L 1.78125 -10.203125 L 3.640625 -4.875 L 5.515625 -10.203125 L 6.90625 -10.203125 Z M 6.90625 0 "/></g></g></g><g fill="#5d0000" fill-opacity="1"><g transform="translate(273.415125, 104.138161)"><g><path d="M 7.78125 0 L 6.625 0 L 5.671875 -2.921875 L 1.640625 -2.921875 L 0.6875 0 L -0.46875 0 L 2.9375 -10.203125 L 4.390625 -10.203125 Z M 5.359375 -3.859375 L 3.65625 -9.125 L 1.9375 -3.859375 Z M 5.359375 -3.859375 "/></g></g></g><g fill="#5d0000" fill-opacity="1"><g transform="translate(286.202098, 104.138161)"><g><path d="M 7.625 -5.09375 C 7.625 -4.40625 7.550781 -3.753906 7.40625 -3.140625 C 7.257812 -2.523438 7.03125 -1.984375 6.71875 -1.515625 C 6.40625 -1.046875 6 -0.675781 5.5 -0.40625 C 5 -0.132812 4.398438 0 3.703125 0 L 0.390625 0 L 0.390625 -10.203125 L 3.703125 -10.203125 C 4.390625 -10.203125 4.984375 -10.0625 5.484375 -9.78125 C 5.984375 -9.5 6.390625 -9.125 6.703125 -8.65625 C 7.015625 -8.1875 7.242188 -7.644531 7.390625 -7.03125 C 7.546875 -6.414062 7.625 -5.769531 7.625 -5.09375 Z M 6.546875 -5.09375 C 6.546875 -6.425781 6.296875 -7.457031 5.796875 -8.1875 C 5.296875 -8.914062 4.597656 -9.28125 3.703125 -9.28125 L 1.453125 -9.28125 L 1.453125 -0.921875 L 3.703125 -0.921875 C 4.597656 -0.921875 5.296875 -1.28125 5.796875 -2 C 6.296875 -2.726562 6.546875 -3.757812 6.546875 -5.09375 Z M 6.546875 -5.09375 "/></g></g></g><g fill="#5d0000" fill-opacity="1"><g transform="translate(298.989071, 104.138161)"><g><path d="M 7.5625 -5.09375 C 7.5625 -4.40625 7.488281 -3.742188 7.34375 -3.109375 C 7.207031 -2.472656 6.984375 -1.910156 6.671875 -1.421875 C 6.367188 -0.941406 5.96875 -0.550781 5.46875 -0.25 C 4.96875 0.0390625 4.363281 0.1875 3.65625 0.1875 C 2.9375 0.1875 2.328125 0.0390625 1.828125 -0.25 C 1.335938 -0.550781 0.9375 -0.941406 0.625 -1.421875 C 0.3125 -1.910156 0.0859375 -2.472656 -0.046875 -3.109375 C -0.191406 -3.742188 -0.265625 -4.40625 -0.265625 -5.09375 C -0.265625 -5.769531 -0.191406 -6.425781 -0.046875 -7.0625 C 0.0859375 -7.695312 0.3125 -8.257812 0.625 -8.75 C 0.945312 -9.238281 1.351562 -9.628906 1.84375 -9.921875 C 2.34375 -10.222656 2.945312 -10.375 3.65625 -10.375 C 4.351562 -10.375 4.953125 -10.222656 5.453125 -9.921875 C 5.953125 -9.628906 6.351562 -9.238281 6.65625 -8.75 C 6.96875 -8.257812 7.195312 -7.695312 7.34375 -7.0625 C 7.488281 -6.425781 7.5625 -5.769531 7.5625 -5.09375 Z M 6.484375 -5.09375 C 6.484375 -5.757812 6.414062 -6.363281 6.28125 -6.90625 C 6.15625 -7.445312 5.972656 -7.90625 5.734375 -8.28125 C 5.492188 -8.664062 5.195312 -8.957031 4.84375 -9.15625 C 4.5 -9.351562 4.101562 -9.453125 3.65625 -9.453125 C 3.09375 -9.453125 2.628906 -9.320312 2.265625 -9.0625 C 1.910156 -8.800781 1.625 -8.457031 1.40625 -8.03125 C 1.1875 -7.613281 1.03125 -7.144531 0.9375 -6.625 C 0.851562 -6.113281 0.8125 -5.601562 0.8125 -5.09375 C 0.8125 -4.582031 0.851562 -4.066406 0.9375 -3.546875 C 1.03125 -3.023438 1.1875 -2.554688 1.40625 -2.140625 C 1.625 -1.734375 1.910156 -1.394531 2.265625 -1.125 C 2.628906 -0.863281 3.09375 -0.734375 3.65625 -0.734375 C 4.207031 -0.734375 4.664062 -0.863281 5.03125 -1.125 C 5.394531 -1.394531 5.6875 -1.734375 5.90625 -2.140625 C 6.125 -2.554688 6.273438 -3.023438 6.359375 -3.546875 C 6.441406 -4.066406 6.484375 -4.582031 6.484375 -5.09375 Z M 6.484375 -5.09375 "/></g></g></g><g fill="#5d0000" fill-opacity="1"><g transform="translate(311.776045, 104.138161)"><g><path d="M 7.375 0 L 6.015625 0 L 3.046875 -4.375 L 1.453125 -4.375 L 1.453125 0 L 0.390625 0 L 0.390625 -10.203125 L 3.75 -10.203125 C 4.863281 -10.203125 5.726562 -9.957031 6.34375 -9.46875 C 6.957031 -8.976562 7.265625 -8.25 7.265625 -7.28125 C 7.265625 -6.851562 7.1875 -6.46875 7.03125 -6.125 C 6.882812 -5.789062 6.679688 -5.503906 6.421875 -5.265625 C 6.160156 -5.023438 5.847656 -4.832031 5.484375 -4.6875 C 5.128906 -4.539062 4.738281 -4.453125 4.3125 -4.421875 Z M 6.15625 -7.28125 C 6.15625 -7.976562 5.941406 -8.484375 5.515625 -8.796875 C 5.085938 -9.117188 4.5 -9.28125 3.75 -9.28125 L 1.453125 -9.28125 L 1.453125 -5.28125 L 3.75 -5.28125 C 4.5 -5.28125 5.085938 -5.4375 5.515625 -5.75 C 5.941406 -6.070312 6.15625 -6.582031 6.15625 -7.28125 Z M 6.15625 -7.28125 "/></g></g></g><g fill="#5d0000" fill-opacity="1"><g transform="translate(324.563018, 104.138161)"><g><path d="M 7.78125 0 L 6.625 0 L 5.671875 -2.921875 L 1.640625 -2.921875 L 0.6875 0 L -0.46875 0 L 2.9375 -10.203125 L 4.390625 -10.203125 Z M 5.359375 -3.859375 L 3.65625 -9.125 L 1.9375 -3.859375 Z M 5.359375 -3.859375 "/></g></g></g></svg>