<svg xmlns="http://www.w3.org/2000/svg" xmlns:xlink="http://www.w3.org/1999/xlink" width="489" zoomAndPan="magnify" viewBox="0 0 366.75 122.249994" height="163" preserveAspectRatio="xMidYMid meet" version="1.0"><defs><g/></defs><g fill="#5d0000" fill-opacity="1"><g transform="translate(143.093716, 75.39111)"><g/></g></g><g fill="#5d0000" fill-opacity="1"><g transform="translate(144.143764, 104.627798)"><g/></g></g><g fill="#000000" fill-opacity="1"><g transform="translate(30.969423, 99.761032)"><g><path d="M 0.328125 0.359375 C 0.609375 -0.242188 1.375 -1.921875 2.625 -4.671875 C 3.875 -7.421875 5.203125 -10.390625 6.609375 -13.578125 C 6.753906 -13.921875 6.828125 -14.222656 6.828125 -14.484375 C 6.828125 -14.671875 6.773438 -14.8125 6.671875 -14.90625 C 6.578125 -15.007812 6.378906 -15.0625 6.078125 -15.0625 C 5.492188 -15.0625 4.992188 -14.859375 4.578125 -14.453125 C 4.171875 -14.046875 3.863281 -13.535156 3.65625 -12.921875 C 3.445312 -12.304688 3.34375 -11.679688 3.34375 -11.046875 C 3.34375 -10.859375 3.359375 -10.628906 3.390625 -10.359375 C 3.015625 -10.359375 2.726562 -10.550781 2.53125 -10.9375 C 2.332031 -11.320312 2.234375 -11.734375 2.234375 -12.171875 C 2.234375 -12.785156 2.453125 -13.378906 2.890625 -13.953125 C 3.328125 -14.523438 3.878906 -14.988281 4.546875 -15.34375 C 5.222656 -15.695312 5.882812 -15.875 6.53125 -15.875 C 7.039062 -15.875 7.453125 -15.734375 7.765625 -15.453125 C 8.085938 -15.171875 8.332031 -14.671875 8.5 -13.953125 C 8.664062 -13.234375 8.75 -12.226562 8.75 -10.9375 C 8.75 -9.75 8.660156 -7.960938 8.484375 -5.578125 C 8.398438 -4.441406 8.335938 -3.332031 8.296875 -2.25 C 8.796875 -4.175781 9.722656 -6.375 11.078125 -8.84375 C 12.441406 -11.3125 13.609375 -13.257812 14.578125 -14.6875 C 14.804688 -15.039062 14.988281 -15.28125 15.125 -15.40625 C 15.269531 -15.53125 15.453125 -15.59375 15.671875 -15.59375 C 15.878906 -15.59375 16.113281 -15.539062 16.375 -15.4375 C 16.007812 -14.550781 15.679688 -13.519531 15.390625 -12.34375 C 14.890625 -10.40625 14.425781 -8.175781 14 -5.65625 C 13.582031 -3.132812 13.375 -1.210938 13.375 0.109375 C 13.375 0.460938 13.390625 0.726562 13.421875 0.90625 C 13.453125 1.082031 13.503906 1.273438 13.578125 1.484375 L 13.71875 1.921875 C 13.21875 1.921875 12.835938 1.835938 12.578125 1.671875 C 12.316406 1.515625 12.140625 1.265625 12.046875 0.921875 C 11.953125 0.585938 11.90625 0.0976562 11.90625 -0.546875 C 11.90625 -2.117188 12.085938 -3.796875 12.453125 -5.578125 C 12.816406 -7.359375 13.367188 -9.644531 14.109375 -12.4375 C 13.460938 -11.59375 12.742188 -10.390625 11.953125 -8.828125 C 11.160156 -7.265625 10.421875 -5.664062 9.734375 -4.03125 C 9.046875 -2.40625 8.535156 -1.082031 8.203125 -0.0625 C 8.035156 -0.0078125 7.925781 0.015625 7.875 0.015625 C 7.5 0.015625 7.242188 -0.195312 7.109375 -0.625 C 6.972656 -1.0625 6.90625 -1.742188 6.90625 -2.671875 C 6.90625 -3.492188 6.960938 -5.082031 7.078125 -7.4375 C 7.191406 -9.75 7.25 -11.28125 7.25 -12.03125 C 7.25 -12.445312 7.234375 -12.859375 7.203125 -13.265625 C 6.148438 -10.816406 5.238281 -8.644531 4.46875 -6.75 C 3.457031 -4.3125 2.703125 -2.539062 2.203125 -1.4375 C 1.703125 -0.332031 1.242188 0.5 0.828125 1.0625 C 0.421875 1.632812 0.0195312 1.921875 -0.375 1.921875 Z M 0.328125 0.359375 "/></g></g></g><g fill="#000000" fill-opacity="1"><g transform="translate(47.786033, 99.761032)"><g><path d="M 1.0625 1.03125 C 0.570312 1.03125 0.175781 0.875 -0.125 0.5625 C -0.425781 0.25 -0.578125 -0.203125 -0.578125 -0.796875 C -0.578125 -1.660156 -0.265625 -2.628906 0.359375 -3.703125 C 0.984375 -4.773438 1.773438 -5.6875 2.734375 -6.4375 C 3.691406 -7.1875 4.625 -7.5625 5.53125 -7.5625 C 6.101562 -7.5625 6.582031 -7.40625 6.96875 -7.09375 C 7.351562 -6.789062 7.546875 -6.394531 7.546875 -5.90625 C 7.546875 -5.570312 7.445312 -5.328125 7.25 -5.171875 C 7.0625 -5.023438 6.796875 -4.953125 6.453125 -4.953125 C 6.523438 -5.222656 6.5625 -5.484375 6.5625 -5.734375 C 6.5625 -6.097656 6.472656 -6.394531 6.296875 -6.625 C 6.128906 -6.851562 5.859375 -6.96875 5.484375 -6.96875 C 4.835938 -6.96875 4.15625 -6.609375 3.4375 -5.890625 C 2.726562 -5.171875 2.132812 -4.3125 1.65625 -3.3125 C 1.1875 -2.3125 0.953125 -1.453125 0.953125 -0.734375 C 0.953125 -0.160156 1.148438 0.125 1.546875 0.125 C 2.128906 0.125 2.816406 -0.335938 3.609375 -1.265625 C 4.410156 -2.203125 5.265625 -3.335938 6.171875 -4.671875 C 6.359375 -4.640625 6.550781 -4.578125 6.75 -4.484375 C 6.957031 -4.390625 7.0625 -4.269531 7.0625 -4.125 C 7.0625 -4.007812 6.988281 -3.820312 6.84375 -3.5625 C 6.707031 -3.300781 6.625 -3.148438 6.59375 -3.109375 C 6.34375 -2.679688 6.144531 -2.300781 6 -1.96875 C 5.851562 -1.644531 5.78125 -1.34375 5.78125 -1.0625 C 5.78125 -0.8125 5.84375 -0.585938 5.96875 -0.390625 C 6.09375 -0.191406 6.28125 -0.09375 6.53125 -0.09375 C 6.957031 -0.09375 7.492188 -0.394531 8.140625 -1 C 8.785156 -1.613281 9.421875 -2.472656 10.046875 -3.578125 L 10.28125 -3.34375 C 9.96875 -2.570312 9.566406 -1.878906 9.078125 -1.265625 C 8.597656 -0.660156 8.078125 -0.191406 7.515625 0.140625 C 6.960938 0.484375 6.425781 0.65625 5.90625 0.65625 C 5.394531 0.65625 5.003906 0.503906 4.734375 0.203125 C 4.460938 -0.0976562 4.328125 -0.457031 4.328125 -0.875 C 4.328125 -1.070312 4.347656 -1.285156 4.390625 -1.515625 C 3.722656 -0.640625 3.128906 0 2.609375 0.40625 C 2.085938 0.820312 1.570312 1.03125 1.0625 1.03125 Z M 1.0625 1.03125 "/></g></g></g><g fill="#000000" fill-opacity="1"><g transform="translate(57.395521, 99.761032)"><g><path d="M 4.28125 6.171875 C 3.757812 6.171875 3.5 5.632812 3.5 4.5625 C 3.5 3.769531 3.617188 2.71875 3.859375 1.40625 C 4.109375 0.101562 4.425781 -1.082031 4.8125 -2.15625 C 4.1875 -1.28125 3.578125 -0.59375 2.984375 -0.09375 C 2.390625 0.40625 1.835938 0.65625 1.328125 0.65625 C 0.898438 0.65625 0.515625 0.5 0.171875 0.1875 C -0.160156 -0.125 -0.328125 -0.597656 -0.328125 -1.234375 C -0.328125 -2.085938 -0.015625 -3.039062 0.609375 -4.09375 C 1.234375 -5.144531 2.023438 -6.035156 2.984375 -6.765625 C 3.953125 -7.503906 4.90625 -7.875 5.84375 -7.875 C 6.34375 -7.875 6.753906 -7.769531 7.078125 -7.5625 C 7.410156 -7.351562 7.578125 -7.097656 7.578125 -6.796875 C 7.578125 -6.585938 7.507812 -6.394531 7.375 -6.21875 C 7.25 -6.050781 7.078125 -5.96875 6.859375 -5.96875 C 6.859375 -6.320312 6.753906 -6.613281 6.546875 -6.84375 C 6.335938 -7.070312 6.019531 -7.1875 5.59375 -7.1875 C 4.84375 -7.1875 4.128906 -6.84375 3.453125 -6.15625 C 2.785156 -5.476562 2.242188 -4.675781 1.828125 -3.75 C 1.421875 -2.820312 1.21875 -2.054688 1.21875 -1.453125 C 1.21875 -1.128906 1.285156 -0.867188 1.421875 -0.671875 C 1.554688 -0.484375 1.742188 -0.390625 1.984375 -0.390625 C 2.492188 -0.390625 3.078125 -0.796875 3.734375 -1.609375 C 4.390625 -2.429688 5.179688 -3.585938 6.109375 -5.078125 C 6.390625 -5.523438 6.710938 -5.75 7.078125 -5.75 C 7.367188 -5.75 7.515625 -5.617188 7.515625 -5.359375 C 7.515625 -5.222656 7.460938 -5.046875 7.359375 -4.828125 C 7.253906 -4.617188 7.140625 -4.390625 7.015625 -4.140625 C 6.691406 -3.566406 6.410156 -3.015625 6.171875 -2.484375 C 5.941406 -1.960938 5.742188 -1.347656 5.578125 -0.640625 C 6.285156 -0.703125 6.941406 -0.953125 7.546875 -1.390625 C 8.160156 -1.828125 8.734375 -2.546875 9.265625 -3.546875 L 9.53125 -3.3125 C 9.070312 -2.28125 8.484375 -1.503906 7.765625 -0.984375 C 7.054688 -0.472656 6.3125 -0.179688 5.53125 -0.109375 C 5.78125 0.679688 5.90625 1.507812 5.90625 2.375 C 5.90625 3.050781 5.832031 3.679688 5.6875 4.265625 C 5.539062 4.847656 5.34375 5.3125 5.09375 5.65625 C 4.851562 6 4.582031 6.171875 4.28125 6.171875 Z M 4.875 4.953125 C 5.03125 4.953125 5.160156 4.660156 5.265625 4.078125 C 5.367188 3.503906 5.421875 2.875 5.421875 2.1875 C 5.421875 1.582031 5.367188 1.03125 5.265625 0.53125 C 5.085938 1.28125 4.945312 2 4.84375 2.6875 C 4.75 3.375 4.703125 3.925781 4.703125 4.34375 C 4.703125 4.75 4.757812 4.953125 4.875 4.953125 Z M 4.875 4.953125 "/></g></g></g><g fill="#000000" fill-opacity="1"><g transform="translate(66.233613, 99.761032)"><g><path d="M 1.65625 0.65625 C 1.164062 0.65625 0.765625 0.4375 0.453125 0 C 0.148438 -0.425781 0 -0.945312 0 -1.5625 C 0 -2.101562 0.113281 -2.773438 0.34375 -3.578125 C 0.570312 -4.378906 0.84375 -5.078125 1.15625 -5.671875 C 1.46875 -6.265625 1.726562 -6.5625 1.9375 -6.5625 C 2.03125 -6.5625 2.160156 -6.519531 2.328125 -6.4375 C 2.492188 -6.351562 2.632812 -6.25 2.75 -6.125 C 2.445312 -5.644531 2.125 -4.953125 1.78125 -4.046875 C 1.445312 -3.140625 1.28125 -2.359375 1.28125 -1.703125 C 1.28125 -1.359375 1.332031 -1.023438 1.4375 -0.703125 C 1.550781 -0.378906 1.765625 -0.21875 2.078125 -0.21875 C 2.585938 -0.21875 3.144531 -0.691406 3.75 -1.640625 C 4.363281 -2.585938 5.023438 -3.789062 5.734375 -5.25 L 6.078125 -5.96875 C 6.785156 -5.84375 7.140625 -5.65625 7.140625 -5.40625 C 7.140625 -5.375 7.101562 -5.269531 7.03125 -5.09375 C 6.96875 -4.925781 6.910156 -4.78125 6.859375 -4.65625 C 6.515625 -3.90625 6.226562 -3.203125 6 -2.546875 C 5.78125 -1.890625 5.671875 -1.332031 5.671875 -0.875 C 5.671875 -0.289062 5.910156 0 6.390625 0 C 6.710938 0 7.09375 -0.140625 7.53125 -0.421875 C 7.976562 -0.710938 8.425781 -1.128906 8.875 -1.671875 C 9.332031 -2.210938 9.734375 -2.847656 10.078125 -3.578125 L 10.359375 -3.375 C 10.054688 -2.59375 9.65625 -1.894531 9.15625 -1.28125 C 8.664062 -0.675781 8.132812 -0.203125 7.5625 0.140625 C 6.988281 0.484375 6.445312 0.65625 5.9375 0.65625 C 4.90625 0.65625 4.390625 0.113281 4.390625 -0.96875 C 4.390625 -1.257812 4.441406 -1.628906 4.546875 -2.078125 C 4.078125 -1.234375 3.601562 -0.566406 3.125 -0.078125 C 2.65625 0.410156 2.164062 0.65625 1.65625 0.65625 Z M 1.65625 0.65625 "/></g></g></g><g fill="#000000" fill-opacity="1"><g transform="translate(75.887184, 99.761032)"><g><path d="M 4.234375 -9.53125 C 3.972656 -9.53125 3.753906 -9.59375 3.578125 -9.71875 C 3.410156 -9.84375 3.328125 -10.019531 3.328125 -10.25 C 3.328125 -10.539062 3.503906 -10.800781 3.859375 -11.03125 C 4.210938 -11.269531 4.570312 -11.390625 4.9375 -11.390625 C 5.425781 -11.390625 5.671875 -11.164062 5.671875 -10.71875 C 5.671875 -10.4375 5.519531 -10.164062 5.21875 -9.90625 C 4.914062 -9.65625 4.585938 -9.53125 4.234375 -9.53125 Z M 1.59375 0.578125 C 1.039062 0.578125 0.617188 0.398438 0.328125 0.046875 C 0.0351562 -0.296875 -0.109375 -0.738281 -0.109375 -1.28125 C -0.109375 -1.851562 0.0507812 -2.644531 0.375 -3.65625 C 0.707031 -4.675781 1.117188 -5.566406 1.609375 -6.328125 C 2.109375 -7.085938 2.59375 -7.46875 3.0625 -7.46875 C 3.195312 -7.46875 3.3125 -7.421875 3.40625 -7.328125 C 3.5 -7.242188 3.546875 -7.128906 3.546875 -6.984375 C 3.546875 -6.785156 3.3125 -6.296875 2.84375 -5.515625 C 2.351562 -4.703125 1.960938 -3.972656 1.671875 -3.328125 C 1.390625 -2.691406 1.25 -2.085938 1.25 -1.515625 C 1.25 -1.003906 1.332031 -0.65625 1.5 -0.46875 C 1.675781 -0.289062 1.957031 -0.203125 2.34375 -0.203125 C 3.488281 -0.203125 4.617188 -1.328125 5.734375 -3.578125 L 5.9375 -3.34375 C 5.519531 -2.113281 4.910156 -1.148438 4.109375 -0.453125 C 3.304688 0.234375 2.46875 0.578125 1.59375 0.578125 Z M 1.59375 0.578125 "/></g></g></g><g fill="#000000" fill-opacity="1"><g transform="translate(81.198851, 99.761032)"><g><path d="M 1.828125 0.65625 C 1.222656 0.65625 0.773438 0.445312 0.484375 0.03125 C 0.203125 -0.375 0.0625 -0.921875 0.0625 -1.609375 C 0.0625 -2.929688 0.515625 -4.726562 1.421875 -7 C 2.335938 -9.269531 3.359375 -11.316406 4.484375 -13.140625 C 5.609375 -14.960938 6.421875 -15.875 6.921875 -15.875 C 7.128906 -15.875 7.300781 -15.691406 7.4375 -15.328125 C 7.582031 -14.972656 7.65625 -14.613281 7.65625 -14.25 C 7.65625 -13.570312 7.378906 -12.570312 6.828125 -11.25 C 6.273438 -9.9375 5.550781 -8.601562 4.65625 -7.25 C 3.757812 -5.894531 2.800781 -4.800781 1.78125 -3.96875 C 1.59375 -3.113281 1.5 -2.367188 1.5 -1.734375 C 1.5 -0.609375 1.820312 -0.046875 2.46875 -0.046875 C 3.007812 -0.046875 3.5625 -0.390625 4.125 -1.078125 C 4.695312 -1.765625 5.203125 -2.597656 5.640625 -3.578125 L 5.96875 -3.390625 C 4.707031 -0.691406 3.328125 0.65625 1.828125 0.65625 Z M 1.984375 -4.71875 C 2.796875 -5.53125 3.585938 -6.546875 4.359375 -7.765625 C 5.128906 -8.992188 5.753906 -10.171875 6.234375 -11.296875 C 6.722656 -12.421875 6.96875 -13.234375 6.96875 -13.734375 C 6.96875 -13.972656 6.914062 -14.09375 6.8125 -14.09375 C 6.601562 -14.09375 6.175781 -13.585938 5.53125 -12.578125 C 4.894531 -11.566406 4.238281 -10.332031 3.5625 -8.875 C 2.894531 -7.425781 2.367188 -6.039062 1.984375 -4.71875 Z M 1.984375 -4.71875 "/></g></g></g><g fill="#000000" fill-opacity="1"><g transform="translate(86.400317, 99.761032)"><g><path d="M 1.828125 0.65625 C 1.222656 0.65625 0.773438 0.445312 0.484375 0.03125 C 0.203125 -0.375 0.0625 -0.921875 0.0625 -1.609375 C 0.0625 -2.929688 0.515625 -4.726562 1.421875 -7 C 2.335938 -9.269531 3.359375 -11.316406 4.484375 -13.140625 C 5.609375 -14.960938 6.421875 -15.875 6.921875 -15.875 C 7.128906 -15.875 7.300781 -15.691406 7.4375 -15.328125 C 7.582031 -14.972656 7.65625 -14.613281 7.65625 -14.25 C 7.65625 -13.570312 7.378906 -12.570312 6.828125 -11.25 C 6.273438 -9.9375 5.550781 -8.601562 4.65625 -7.25 C 3.757812 -5.894531 2.800781 -4.800781 1.78125 -3.96875 C 1.59375 -3.113281 1.5 -2.367188 1.5 -1.734375 C 1.5 -0.609375 1.820312 -0.046875 2.46875 -0.046875 C 3.007812 -0.046875 3.5625 -0.390625 4.125 -1.078125 C 4.695312 -1.765625 5.203125 -2.597656 5.640625 -3.578125 L 5.96875 -3.390625 C 4.707031 -0.691406 3.328125 0.65625 1.828125 0.65625 Z M 1.984375 -4.71875 C 2.796875 -5.53125 3.585938 -6.546875 4.359375 -7.765625 C 5.128906 -8.992188 5.753906 -10.171875 6.234375 -11.296875 C 6.722656 -12.421875 6.96875 -13.234375 6.96875 -13.734375 C 6.96875 -13.972656 6.914062 -14.09375 6.8125 -14.09375 C 6.601562 -14.09375 6.175781 -13.585938 5.53125 -12.578125 C 4.894531 -11.566406 4.238281 -10.332031 3.5625 -8.875 C 2.894531 -7.425781 2.367188 -6.039062 1.984375 -4.71875 Z M 1.984375 -4.71875 "/></g></g></g><g fill="#000000" fill-opacity="1"><g transform="translate(91.601783, 99.761032)"><g><path d="M 1.0625 1.03125 C 0.570312 1.03125 0.175781 0.875 -0.125 0.5625 C -0.425781 0.25 -0.578125 -0.203125 -0.578125 -0.796875 C -0.578125 -1.660156 -0.265625 -2.628906 0.359375 -3.703125 C 0.984375 -4.773438 1.773438 -5.6875 2.734375 -6.4375 C 3.691406 -7.1875 4.625 -7.5625 5.53125 -7.5625 C 6.101562 -7.5625 6.582031 -7.40625 6.96875 -7.09375 C 7.351562 -6.789062 7.546875 -6.394531 7.546875 -5.90625 C 7.546875 -5.570312 7.445312 -5.328125 7.25 -5.171875 C 7.0625 -5.023438 6.796875 -4.953125 6.453125 -4.953125 C 6.523438 -5.222656 6.5625 -5.484375 6.5625 -5.734375 C 6.5625 -6.097656 6.472656 -6.394531 6.296875 -6.625 C 6.128906 -6.851562 5.859375 -6.96875 5.484375 -6.96875 C 4.835938 -6.96875 4.15625 -6.609375 3.4375 -5.890625 C 2.726562 -5.171875 2.132812 -4.3125 1.65625 -3.3125 C 1.1875 -2.3125 0.953125 -1.453125 0.953125 -0.734375 C 0.953125 -0.160156 1.148438 0.125 1.546875 0.125 C 2.128906 0.125 2.816406 -0.335938 3.609375 -1.265625 C 4.410156 -2.203125 5.265625 -3.335938 6.171875 -4.671875 C 6.359375 -4.640625 6.550781 -4.578125 6.75 -4.484375 C 6.957031 -4.390625 7.0625 -4.269531 7.0625 -4.125 C 7.0625 -4.007812 6.988281 -3.820312 6.84375 -3.5625 C 6.707031 -3.300781 6.625 -3.148438 6.59375 -3.109375 C 6.34375 -2.679688 6.144531 -2.300781 6 -1.96875 C 5.851562 -1.644531 5.78125 -1.34375 5.78125 -1.0625 C 5.78125 -0.8125 5.84375 -0.585938 5.96875 -0.390625 C 6.09375 -0.191406 6.28125 -0.09375 6.53125 -0.09375 C 6.957031 -0.09375 7.492188 -0.394531 8.140625 -1 C 8.785156 -1.613281 9.421875 -2.472656 10.046875 -3.578125 L 10.28125 -3.34375 C 9.96875 -2.570312 9.566406 -1.878906 9.078125 -1.265625 C 8.597656 -0.660156 8.078125 -0.191406 7.515625 0.140625 C 6.960938 0.484375 6.425781 0.65625 5.90625 0.65625 C 5.394531 0.65625 5.003906 0.503906 4.734375 0.203125 C 4.460938 -0.0976562 4.328125 -0.457031 4.328125 -0.875 C 4.328125 -1.070312 4.347656 -1.285156 4.390625 -1.515625 C 3.722656 -0.640625 3.128906 0 2.609375 0.40625 C 2.085938 0.820312 1.570312 1.03125 1.0625 1.03125 Z M 1.0625 1.03125 "/></g></g></g><g fill="#000000" fill-opacity="1"><g transform="translate(101.211272, 99.761032)"><g><path d="M 1.296875 0.65625 C 0.867188 0.65625 0.484375 0.5 0.140625 0.1875 C -0.191406 -0.125 -0.359375 -0.582031 -0.359375 -1.1875 C -0.359375 -2 -0.0507812 -2.941406 0.5625 -4.015625 C 1.1875 -5.097656 1.960938 -6.019531 2.890625 -6.78125 C 3.816406 -7.550781 4.710938 -7.9375 5.578125 -7.9375 C 6.222656 -7.9375 6.546875 -7.707031 6.546875 -7.25 C 6.546875 -7.195312 6.53125 -7.09375 6.5 -6.9375 C 6.351562 -7.164062 6.078125 -7.28125 5.671875 -7.28125 C 4.929688 -7.28125 4.210938 -6.929688 3.515625 -6.234375 C 2.828125 -5.535156 2.265625 -4.710938 1.828125 -3.765625 C 1.398438 -2.828125 1.1875 -2.054688 1.1875 -1.453125 C 1.1875 -1.128906 1.253906 -0.867188 1.390625 -0.671875 C 1.535156 -0.484375 1.734375 -0.390625 1.984375 -0.390625 C 2.378906 -0.390625 2.863281 -0.644531 3.4375 -1.15625 C 4.007812 -1.664062 4.585938 -2.382812 5.171875 -3.3125 C 5.765625 -4.238281 6.289062 -5.285156 6.75 -6.453125 C 7.894531 -9.421875 8.851562 -11.734375 9.625 -13.390625 C 10.394531 -15.046875 11.046875 -15.875 11.578125 -15.875 C 11.691406 -15.875 11.789062 -15.828125 11.875 -15.734375 C 11.96875 -15.640625 12.015625 -15.515625 12.015625 -15.359375 C 12.015625 -15.140625 11.894531 -14.757812 11.65625 -14.21875 C 11.425781 -13.6875 11.046875 -12.863281 10.515625 -11.75 C 9.429688 -9.488281 8.5625 -7.53125 7.90625 -5.875 C 7.257812 -4.21875 6.9375 -2.773438 6.9375 -1.546875 C 6.9375 -1.054688 6.960938 -0.726562 7.015625 -0.5625 C 7.066406 -0.394531 7.210938 -0.3125 7.453125 -0.3125 C 7.765625 -0.3125 8.128906 -0.445312 8.546875 -0.71875 C 8.960938 -0.988281 9.375 -1.367188 9.78125 -1.859375 C 10.195312 -2.347656 10.550781 -2.921875 10.84375 -3.578125 L 11.109375 -3.375 C 10.828125 -2.632812 10.441406 -1.960938 9.953125 -1.359375 C 9.472656 -0.765625 8.957031 -0.296875 8.40625 0.046875 C 7.851562 0.398438 7.328125 0.578125 6.828125 0.578125 C 6.328125 0.578125 5.957031 0.414062 5.71875 0.09375 C 5.488281 -0.226562 5.375 -0.617188 5.375 -1.078125 C 5.375 -1.578125 5.515625 -2.363281 5.796875 -3.4375 C 5.046875 -2.207031 4.269531 -1.21875 3.46875 -0.46875 C 2.664062 0.28125 1.941406 0.65625 1.296875 0.65625 Z M 1.296875 0.65625 "/></g></g></g><g fill="#000000" fill-opacity="1"><g transform="translate(111.636251, 99.761032)"><g><path d="M 1.515625 0.703125 C 0.921875 0.703125 0.484375 0.519531 0.203125 0.15625 C -0.078125 -0.207031 -0.21875 -0.691406 -0.21875 -1.296875 C -0.21875 -1.898438 -0.09375 -2.53125 0.15625 -3.1875 C 0.40625 -3.851562 0.726562 -4.40625 1.125 -4.84375 C 1.519531 -5.289062 1.914062 -5.515625 2.3125 -5.515625 C 2.445312 -5.515625 2.601562 -5.476562 2.78125 -5.40625 C 2.601562 -5.257812 2.390625 -4.9375 2.140625 -4.4375 C 1.890625 -3.9375 1.671875 -3.398438 1.484375 -2.828125 C 1.304688 -2.265625 1.21875 -1.804688 1.21875 -1.453125 C 1.21875 -0.617188 1.476562 -0.203125 2 -0.203125 C 2.3125 -0.203125 2.679688 -0.363281 3.109375 -0.6875 C 3.535156 -1.007812 3.953125 -1.4375 4.359375 -1.96875 C 3.953125 -2.300781 3.632812 -2.738281 3.40625 -3.28125 C 3.175781 -3.820312 3.0625 -4.390625 3.0625 -4.984375 C 3.0625 -5.742188 3.253906 -6.394531 3.640625 -6.9375 C 4.035156 -7.488281 4.5625 -7.765625 5.21875 -7.765625 C 5.78125 -7.765625 6.175781 -7.613281 6.40625 -7.3125 C 6.632812 -7.007812 6.75 -6.59375 6.75 -6.0625 C 6.75 -5.5 6.613281 -4.867188 6.34375 -4.171875 C 6.070312 -3.472656 5.710938 -2.796875 5.265625 -2.140625 C 5.535156 -1.992188 5.816406 -1.921875 6.109375 -1.921875 C 6.535156 -1.921875 6.972656 -2.046875 7.421875 -2.296875 C 7.878906 -2.554688 8.226562 -2.957031 8.46875 -3.5 L 8.734375 -3.28125 C 8.453125 -2.632812 8.050781 -2.15625 7.53125 -1.84375 C 7.019531 -1.539062 6.492188 -1.390625 5.953125 -1.390625 C 5.554688 -1.390625 5.203125 -1.460938 4.890625 -1.609375 C 4.359375 -0.921875 3.796875 -0.363281 3.203125 0.0625 C 2.609375 0.488281 2.046875 0.703125 1.515625 0.703125 Z M 4.765625 -2.53125 C 5.140625 -3.101562 5.445312 -3.6875 5.6875 -4.28125 C 5.925781 -4.882812 6.046875 -5.4375 6.046875 -5.9375 C 6.046875 -6.34375 5.984375 -6.648438 5.859375 -6.859375 C 5.734375 -7.066406 5.570312 -7.171875 5.375 -7.171875 C 5.175781 -7.171875 4.96875 -7.066406 4.75 -6.859375 C 4.539062 -6.660156 4.363281 -6.390625 4.21875 -6.046875 C 4.082031 -5.703125 4.015625 -5.328125 4.015625 -4.921875 C 4.015625 -4.460938 4.078125 -4.019531 4.203125 -3.59375 C 4.328125 -3.175781 4.515625 -2.820312 4.765625 -2.53125 Z M 4.765625 -2.53125 "/></g></g></g><g fill="#000000" fill-opacity="1"><g transform="translate(119.680899, 99.761032)"><g><path d="M 3.8125 0.578125 C 3.3125 0.578125 2.914062 0.441406 2.625 0.171875 C 2.34375 -0.0859375 2.203125 -0.429688 2.203125 -0.859375 C 2.203125 -1.359375 2.414062 -2.078125 2.84375 -3.015625 C 3.03125 -3.503906 3.171875 -3.890625 3.265625 -4.171875 C 3.367188 -4.460938 3.421875 -4.734375 3.421875 -4.984375 C 3.421875 -5.347656 3.332031 -5.632812 3.15625 -5.84375 C 2.988281 -6.0625 2.800781 -6.238281 2.59375 -6.375 C 2.394531 -6.519531 2.257812 -6.613281 2.1875 -6.65625 C 1.863281 -5.832031 1.515625 -5.023438 1.140625 -4.234375 C 0.773438 -3.453125 0.46875 -2.847656 0.21875 -2.421875 L 0.015625 -2.796875 C 0.722656 -4.160156 1.320312 -5.554688 1.8125 -6.984375 C 1.664062 -7.128906 1.59375 -7.304688 1.59375 -7.515625 C 1.59375 -7.785156 1.644531 -8.035156 1.75 -8.265625 C 1.863281 -8.503906 1.992188 -8.6875 2.140625 -8.8125 C 2.296875 -8.945312 2.421875 -9.015625 2.515625 -9.015625 C 2.722656 -9.015625 2.828125 -8.835938 2.828125 -8.484375 C 2.828125 -8.429688 2.785156 -8.300781 2.703125 -8.09375 C 2.628906 -7.882812 2.585938 -7.742188 2.578125 -7.671875 C 2.578125 -7.523438 2.640625 -7.390625 2.765625 -7.265625 C 2.890625 -7.140625 3.09375 -6.984375 3.375 -6.796875 C 3.832031 -6.472656 4.1875 -6.148438 4.4375 -5.828125 C 4.695312 -5.515625 4.828125 -5.109375 4.828125 -4.609375 C 4.828125 -4.285156 4.773438 -3.960938 4.671875 -3.640625 C 4.566406 -3.328125 4.414062 -2.914062 4.21875 -2.40625 C 3.882812 -1.695312 3.71875 -1.1875 3.71875 -0.875 C 3.71875 -0.4375 3.941406 -0.21875 4.390625 -0.21875 C 4.828125 -0.21875 5.296875 -0.394531 5.796875 -0.75 C 6.304688 -1.101562 6.773438 -1.539062 7.203125 -2.0625 C 7.628906 -2.582031 7.941406 -3.0625 8.140625 -3.5 L 8.421875 -3.28125 C 7.960938 -2.269531 7.300781 -1.375 6.4375 -0.59375 C 5.570312 0.1875 4.695312 0.578125 3.8125 0.578125 Z M 3.8125 0.578125 "/></g></g></g><g fill="#000000" fill-opacity="1"><g transform="translate(127.350861, 99.761032)"><g><path d="M 1.0625 1.03125 C 0.570312 1.03125 0.175781 0.875 -0.125 0.5625 C -0.425781 0.25 -0.578125 -0.203125 -0.578125 -0.796875 C -0.578125 -1.660156 -0.265625 -2.628906 0.359375 -3.703125 C 0.984375 -4.773438 1.773438 -5.6875 2.734375 -6.4375 C 3.691406 -7.1875 4.625 -7.5625 5.53125 -7.5625 C 6.101562 -7.5625 6.582031 -7.40625 6.96875 -7.09375 C 7.351562 -6.789062 7.546875 -6.394531 7.546875 -5.90625 C 7.546875 -5.570312 7.445312 -5.328125 7.25 -5.171875 C 7.0625 -5.023438 6.796875 -4.953125 6.453125 -4.953125 C 6.523438 -5.222656 6.5625 -5.484375 6.5625 -5.734375 C 6.5625 -6.097656 6.472656 -6.394531 6.296875 -6.625 C 6.128906 -6.851562 5.859375 -6.96875 5.484375 -6.96875 C 4.835938 -6.96875 4.15625 -6.609375 3.4375 -5.890625 C 2.726562 -5.171875 2.132812 -4.3125 1.65625 -3.3125 C 1.1875 -2.3125 0.953125 -1.453125 0.953125 -0.734375 C 0.953125 -0.160156 1.148438 0.125 1.546875 0.125 C 2.128906 0.125 2.816406 -0.335938 3.609375 -1.265625 C 4.410156 -2.203125 5.265625 -3.335938 6.171875 -4.671875 C 6.359375 -4.640625 6.550781 -4.578125 6.75 -4.484375 C 6.957031 -4.390625 7.0625 -4.269531 7.0625 -4.125 C 7.0625 -4.007812 6.988281 -3.820312 6.84375 -3.5625 C 6.707031 -3.300781 6.625 -3.148438 6.59375 -3.109375 C 6.34375 -2.679688 6.144531 -2.300781 6 -1.96875 C 5.851562 -1.644531 5.78125 -1.34375 5.78125 -1.0625 C 5.78125 -0.8125 5.84375 -0.585938 5.96875 -0.390625 C 6.09375 -0.191406 6.28125 -0.09375 6.53125 -0.09375 C 6.957031 -0.09375 7.492188 -0.394531 8.140625 -1 C 8.785156 -1.613281 9.421875 -2.472656 10.046875 -3.578125 L 10.28125 -3.34375 C 9.96875 -2.570312 9.566406 -1.878906 9.078125 -1.265625 C 8.597656 -0.660156 8.078125 -0.191406 7.515625 0.140625 C 6.960938 0.484375 6.425781 0.65625 5.90625 0.65625 C 5.394531 0.65625 5.003906 0.503906 4.734375 0.203125 C 4.460938 -0.0976562 4.328125 -0.457031 4.328125 -0.875 C 4.328125 -1.070312 4.347656 -1.285156 4.390625 -1.515625 C 3.722656 -0.640625 3.128906 0 2.609375 0.40625 C 2.085938 0.820312 1.570312 1.03125 1.0625 1.03125 Z M 1.0625 1.03125 "/></g></g></g><g fill="#000000" fill-opacity="1"><g transform="translate(136.96035, 99.761032)"><g/></g></g><g fill="#000000" fill-opacity="1"><g transform="translate(142.690786, 99.761032)"><g><path d="M 0.953125 6.171875 C 0.554688 6.171875 0.226562 6.066406 -0.03125 5.859375 C -0.300781 5.660156 -0.4375 5.375 -0.4375 5 C -0.4375 4.414062 -0.25 3.898438 0.125 3.453125 C 0.5 3.003906 0.957031 2.613281 1.5 2.28125 C 2.039062 1.945312 2.820312 1.523438 3.84375 1.015625 C 4.28125 -0.117188 4.691406 -1.460938 5.078125 -3.015625 C 4.546875 -2.148438 4.015625 -1.46875 3.484375 -0.96875 C 2.953125 -0.46875 2.410156 -0.21875 1.859375 -0.21875 C 1.378906 -0.21875 0.960938 -0.367188 0.609375 -0.671875 C 0.265625 -0.984375 0.09375 -1.425781 0.09375 -2 C 0.09375 -2.53125 0.207031 -3.175781 0.4375 -3.9375 C 0.675781 -4.707031 0.945312 -5.378906 1.25 -5.953125 C 1.5625 -6.523438 1.820312 -6.8125 2.03125 -6.8125 C 2.164062 -6.8125 2.359375 -6.753906 2.609375 -6.640625 C 2.867188 -6.535156 3 -6.425781 3 -6.3125 C 2.707031 -5.882812 2.390625 -5.195312 2.046875 -4.25 C 1.710938 -3.300781 1.546875 -2.546875 1.546875 -1.984375 C 1.546875 -1.398438 1.8125 -1.109375 2.34375 -1.109375 C 2.738281 -1.109375 3.203125 -1.378906 3.734375 -1.921875 C 4.273438 -2.460938 4.785156 -3.128906 5.265625 -3.921875 C 5.335938 -4.171875 5.410156 -4.507812 5.484375 -4.9375 C 5.546875 -5.21875 5.664062 -5.472656 5.84375 -5.703125 C 6.03125 -5.941406 6.285156 -6.0625 6.609375 -6.0625 C 6.742188 -6.0625 6.898438 -6.039062 7.078125 -6 C 7.078125 -5.601562 6.910156 -4.785156 6.578125 -3.546875 C 6.242188 -2.316406 5.835938 -1.078125 5.359375 0.171875 C 6.085938 -0.117188 6.773438 -0.578125 7.421875 -1.203125 C 8.078125 -1.828125 8.601562 -2.617188 9 -3.578125 L 9.28125 -3.34375 C 8.738281 -1.625 7.347656 -0.253906 5.109375 0.765625 C 4.460938 2.359375 3.78125 3.65625 3.0625 4.65625 C 2.351562 5.664062 1.648438 6.171875 0.953125 6.171875 Z M 0.84375 5.46875 C 1 5.46875 1.222656 5.332031 1.515625 5.0625 C 1.816406 4.789062 2.148438 4.359375 2.515625 3.765625 C 2.878906 3.179688 3.242188 2.441406 3.609375 1.546875 C 2.835938 1.953125 2.226562 2.296875 1.78125 2.578125 C 1.332031 2.867188 0.960938 3.195312 0.671875 3.5625 C 0.390625 3.9375 0.25 4.351562 0.25 4.8125 C 0.25 4.957031 0.296875 5.101562 0.390625 5.25 C 0.492188 5.394531 0.644531 5.46875 0.84375 5.46875 Z M 0.84375 5.46875 "/></g></g></g><g fill="#000000" fill-opacity="1"><g transform="translate(151.264392, 99.761032)"><g/></g></g><g fill="#000000" fill-opacity="1"><g transform="translate(156.994828, 99.761032)"><g><path d="M 3.34375 1.921875 C 2.726562 1.878906 2.328125 1.71875 2.140625 1.4375 C 1.953125 1.15625 1.859375 0.734375 1.859375 0.171875 C 1.859375 -0.441406 2.003906 -1.21875 2.296875 -2.15625 C 2.585938 -3.101562 3.039062 -4.421875 3.65625 -6.109375 C 3.75 -6.316406 3.867188 -6.625 4.015625 -7.03125 C 3.648438 -7 3.082031 -6.929688 2.3125 -6.828125 L 1.5625 -6.71875 C 1.625 -7.6875 2.585938 -8.203125 4.453125 -8.265625 C 5.410156 -10.898438 6.265625 -12.992188 7.015625 -14.546875 C 6.628906 -14.578125 6.34375 -14.59375 6.15625 -14.59375 C 5.207031 -14.59375 4.476562 -14.492188 3.96875 -14.296875 C 3.46875 -14.109375 3.117188 -13.820312 2.921875 -13.4375 C 2.722656 -13.0625 2.625 -12.550781 2.625 -11.90625 C 2.625 -11.300781 2.71875 -10.71875 2.90625 -10.15625 C 1.9375 -10.320312 1.453125 -10.898438 1.453125 -11.890625 C 1.453125 -12.628906 1.71875 -13.289062 2.25 -13.875 C 2.789062 -14.46875 3.523438 -14.929688 4.453125 -15.265625 C 5.378906 -15.597656 6.398438 -15.765625 7.515625 -15.765625 C 8.054688 -15.765625 8.828125 -15.707031 9.828125 -15.59375 C 9.972656 -15.570312 10.265625 -15.539062 10.703125 -15.5 C 11.148438 -15.457031 11.550781 -15.4375 11.90625 -15.4375 C 12.488281 -15.4375 13.03125 -15.507812 13.53125 -15.65625 C 13.019531 -15.0625 12.578125 -14.65625 12.203125 -14.4375 C 11.835938 -14.21875 11.453125 -14.109375 11.046875 -14.109375 C 10.765625 -14.109375 10.265625 -14.160156 9.546875 -14.265625 C 9.179688 -14.335938 8.640625 -14.410156 7.921875 -14.484375 C 7.503906 -13.484375 6.796875 -11.40625 5.796875 -8.25 C 6.503906 -8.195312 7.164062 -8.128906 7.78125 -8.046875 C 8.707031 -7.960938 9.332031 -7.910156 9.65625 -7.890625 C 9.488281 -7.660156 9.289062 -7.492188 9.0625 -7.390625 C 8.84375 -7.296875 8.492188 -7.234375 8.015625 -7.203125 C 7.535156 -7.179688 6.6875 -7.15625 5.46875 -7.125 L 4.5 -3.84375 C 3.757812 -1.363281 3.375 0.554688 3.34375 1.921875 Z M 3.34375 1.921875 "/></g></g></g><g fill="#000000" fill-opacity="1"><g transform="translate(167.618163, 99.761032)"><g><path d="M 1.515625 0.703125 C 0.921875 0.703125 0.484375 0.519531 0.203125 0.15625 C -0.078125 -0.207031 -0.21875 -0.691406 -0.21875 -1.296875 C -0.21875 -1.898438 -0.09375 -2.53125 0.15625 -3.1875 C 0.40625 -3.851562 0.726562 -4.40625 1.125 -4.84375 C 1.519531 -5.289062 1.914062 -5.515625 2.3125 -5.515625 C 2.445312 -5.515625 2.601562 -5.476562 2.78125 -5.40625 C 2.601562 -5.257812 2.390625 -4.9375 2.140625 -4.4375 C 1.890625 -3.9375 1.671875 -3.398438 1.484375 -2.828125 C 1.304688 -2.265625 1.21875 -1.804688 1.21875 -1.453125 C 1.21875 -0.617188 1.476562 -0.203125 2 -0.203125 C 2.3125 -0.203125 2.679688 -0.363281 3.109375 -0.6875 C 3.535156 -1.007812 3.953125 -1.4375 4.359375 -1.96875 C 3.953125 -2.300781 3.632812 -2.738281 3.40625 -3.28125 C 3.175781 -3.820312 3.0625 -4.390625 3.0625 -4.984375 C 3.0625 -5.742188 3.253906 -6.394531 3.640625 -6.9375 C 4.035156 -7.488281 4.5625 -7.765625 5.21875 -7.765625 C 5.78125 -7.765625 6.175781 -7.613281 6.40625 -7.3125 C 6.632812 -7.007812 6.75 -6.59375 6.75 -6.0625 C 6.75 -5.5 6.613281 -4.867188 6.34375 -4.171875 C 6.070312 -3.472656 5.710938 -2.796875 5.265625 -2.140625 C 5.535156 -1.992188 5.816406 -1.921875 6.109375 -1.921875 C 6.535156 -1.921875 6.972656 -2.046875 7.421875 -2.296875 C 7.878906 -2.554688 8.226562 -2.957031 8.46875 -3.5 L 8.734375 -3.28125 C 8.453125 -2.632812 8.050781 -2.15625 7.53125 -1.84375 C 7.019531 -1.539062 6.492188 -1.390625 5.953125 -1.390625 C 5.554688 -1.390625 5.203125 -1.460938 4.890625 -1.609375 C 4.359375 -0.921875 3.796875 -0.363281 3.203125 0.0625 C 2.609375 0.488281 2.046875 0.703125 1.515625 0.703125 Z M 4.765625 -2.53125 C 5.140625 -3.101562 5.445312 -3.6875 5.6875 -4.28125 C 5.925781 -4.882812 6.046875 -5.4375 6.046875 -5.9375 C 6.046875 -6.34375 5.984375 -6.648438 5.859375 -6.859375 C 5.734375 -7.066406 5.570312 -7.171875 5.375 -7.171875 C 5.175781 -7.171875 4.96875 -7.066406 4.75 -6.859375 C 4.539062 -6.660156 4.363281 -6.390625 4.21875 -6.046875 C 4.082031 -5.703125 4.015625 -5.328125 4.015625 -4.921875 C 4.015625 -4.460938 4.078125 -4.019531 4.203125 -3.59375 C 4.328125 -3.175781 4.515625 -2.820312 4.765625 -2.53125 Z M 4.765625 -2.53125 "/></g></g></g><g fill="#000000" fill-opacity="1"><g transform="translate(175.662811, 99.761032)"><g><path d="M 3.8125 0.578125 C 3.3125 0.578125 2.914062 0.441406 2.625 0.171875 C 2.34375 -0.0859375 2.203125 -0.429688 2.203125 -0.859375 C 2.203125 -1.359375 2.414062 -2.078125 2.84375 -3.015625 C 3.03125 -3.503906 3.171875 -3.890625 3.265625 -4.171875 C 3.367188 -4.460938 3.421875 -4.734375 3.421875 -4.984375 C 3.421875 -5.347656 3.332031 -5.632812 3.15625 -5.84375 C 2.988281 -6.0625 2.800781 -6.238281 2.59375 -6.375 C 2.394531 -6.519531 2.257812 -6.613281 2.1875 -6.65625 C 1.863281 -5.832031 1.515625 -5.023438 1.140625 -4.234375 C 0.773438 -3.453125 0.46875 -2.847656 0.21875 -2.421875 L 0.015625 -2.796875 C 0.722656 -4.160156 1.320312 -5.554688 1.8125 -6.984375 C 1.664062 -7.128906 1.59375 -7.304688 1.59375 -7.515625 C 1.59375 -7.785156 1.644531 -8.035156 1.75 -8.265625 C 1.863281 -8.503906 1.992188 -8.6875 2.140625 -8.8125 C 2.296875 -8.945312 2.421875 -9.015625 2.515625 -9.015625 C 2.722656 -9.015625 2.828125 -8.835938 2.828125 -8.484375 C 2.828125 -8.429688 2.785156 -8.300781 2.703125 -8.09375 C 2.628906 -7.882812 2.585938 -7.742188 2.578125 -7.671875 C 2.578125 -7.523438 2.640625 -7.390625 2.765625 -7.265625 C 2.890625 -7.140625 3.09375 -6.984375 3.375 -6.796875 C 3.832031 -6.472656 4.1875 -6.148438 4.4375 -5.828125 C 4.695312 -5.515625 4.828125 -5.109375 4.828125 -4.609375 C 4.828125 -4.285156 4.773438 -3.960938 4.671875 -3.640625 C 4.566406 -3.328125 4.414062 -2.914062 4.21875 -2.40625 C 3.882812 -1.695312 3.71875 -1.1875 3.71875 -0.875 C 3.71875 -0.4375 3.941406 -0.21875 4.390625 -0.21875 C 4.828125 -0.21875 5.296875 -0.394531 5.796875 -0.75 C 6.304688 -1.101562 6.773438 -1.539062 7.203125 -2.0625 C 7.628906 -2.582031 7.941406 -3.0625 8.140625 -3.5 L 8.421875 -3.28125 C 7.960938 -2.269531 7.300781 -1.375 6.4375 -0.59375 C 5.570312 0.1875 4.695312 0.578125 3.8125 0.578125 Z M 3.8125 0.578125 "/></g></g></g><g fill="#000000" fill-opacity="1"><g transform="translate(183.332773, 99.761032)"><g><path d="M 11.109375 0.6875 C 10.628906 0.6875 10.265625 0.535156 10.015625 0.234375 C 9.765625 -0.0664062 9.640625 -0.453125 9.640625 -0.921875 C 9.640625 -1.316406 9.753906 -1.898438 9.984375 -2.671875 C 10.054688 -2.921875 10.125 -3.171875 10.1875 -3.421875 C 10.257812 -3.671875 10.296875 -3.882812 10.296875 -4.0625 C 10.296875 -4.320312 10.234375 -4.515625 10.109375 -4.640625 C 9.984375 -4.773438 9.832031 -4.84375 9.65625 -4.84375 C 9.320312 -4.84375 8.957031 -4.601562 8.5625 -4.125 C 8.175781 -3.65625 7.578125 -2.800781 6.765625 -1.5625 C 6.554688 -1.238281 6.269531 -0.695312 5.90625 0.0625 L 5.703125 0.484375 C 5.472656 0.484375 5.226562 0.441406 4.96875 0.359375 C 4.707031 0.285156 4.578125 0.179688 4.578125 0.046875 C 4.578125 -0.0546875 4.703125 -0.445312 4.953125 -1.125 C 5.265625 -2.03125 5.507812 -2.796875 5.6875 -3.421875 C 5.875 -4.046875 5.96875 -4.582031 5.96875 -5.03125 C 5.96875 -5.582031 5.785156 -5.859375 5.421875 -5.859375 C 5.015625 -5.859375 4.484375 -5.523438 3.828125 -4.859375 C 3.171875 -4.203125 2.523438 -3.367188 1.890625 -2.359375 C 1.265625 -1.359375 0.773438 -0.375 0.421875 0.59375 C 0.203125 0.59375 -0.046875 0.539062 -0.328125 0.4375 C -0.617188 0.332031 -0.765625 0.226562 -0.765625 0.125 C -0.765625 0.0820312 -0.664062 -0.257812 -0.46875 -0.90625 C -0.125 -1.882812 0.160156 -2.785156 0.390625 -3.609375 C 0.617188 -4.429688 0.738281 -5.144531 0.75 -5.75 C 0.851562 -5.875 1 -5.984375 1.1875 -6.078125 C 1.382812 -6.171875 1.578125 -6.21875 1.765625 -6.21875 C 2.160156 -6.21875 2.359375 -6.023438 2.359375 -5.640625 C 2.359375 -5.242188 2.164062 -4.40625 1.78125 -3.125 C 2.5 -4.269531 3.273438 -5.253906 4.109375 -6.078125 C 4.941406 -6.898438 5.71875 -7.3125 6.4375 -7.3125 C 6.863281 -7.3125 7.164062 -7.15625 7.34375 -6.84375 C 7.53125 -6.539062 7.625 -6.140625 7.625 -5.640625 C 7.625 -5.140625 7.550781 -4.59375 7.40625 -4 C 7.257812 -3.414062 7.101562 -2.925781 6.9375 -2.53125 C 7.5 -3.550781 8.082031 -4.375 8.6875 -5 C 9.289062 -5.625 9.929688 -5.9375 10.609375 -5.9375 C 11.046875 -5.9375 11.363281 -5.800781 11.5625 -5.53125 C 11.757812 -5.269531 11.859375 -4.929688 11.859375 -4.515625 C 11.859375 -4.234375 11.820312 -3.9375 11.75 -3.625 C 11.675781 -3.3125 11.566406 -2.925781 11.421875 -2.46875 C 11.171875 -1.6875 11.046875 -1.144531 11.046875 -0.84375 C 11.046875 -0.34375 11.265625 -0.09375 11.703125 -0.09375 C 12.242188 -0.09375 12.757812 -0.425781 13.25 -1.09375 C 13.738281 -1.757812 14.207031 -2.585938 14.65625 -3.578125 L 14.921875 -3.265625 C 14.515625 -2.171875 13.976562 -1.238281 13.3125 -0.46875 C 12.65625 0.300781 11.921875 0.6875 11.109375 0.6875 Z M 11.109375 0.6875 "/></g></g></g><g fill="#000000" fill-opacity="1"><g transform="translate(197.570686, 99.761032)"><g><path d="M 1.0625 1.03125 C 0.570312 1.03125 0.175781 0.875 -0.125 0.5625 C -0.425781 0.25 -0.578125 -0.203125 -0.578125 -0.796875 C -0.578125 -1.660156 -0.265625 -2.628906 0.359375 -3.703125 C 0.984375 -4.773438 1.773438 -5.6875 2.734375 -6.4375 C 3.691406 -7.1875 4.625 -7.5625 5.53125 -7.5625 C 6.101562 -7.5625 6.582031 -7.40625 6.96875 -7.09375 C 7.351562 -6.789062 7.546875 -6.394531 7.546875 -5.90625 C 7.546875 -5.570312 7.445312 -5.328125 7.25 -5.171875 C 7.0625 -5.023438 6.796875 -4.953125 6.453125 -4.953125 C 6.523438 -5.222656 6.5625 -5.484375 6.5625 -5.734375 C 6.5625 -6.097656 6.472656 -6.394531 6.296875 -6.625 C 6.128906 -6.851562 5.859375 -6.96875 5.484375 -6.96875 C 4.835938 -6.96875 4.15625 -6.609375 3.4375 -5.890625 C 2.726562 -5.171875 2.132812 -4.3125 1.65625 -3.3125 C 1.1875 -2.3125 0.953125 -1.453125 0.953125 -0.734375 C 0.953125 -0.160156 1.148438 0.125 1.546875 0.125 C 2.128906 0.125 2.816406 -0.335938 3.609375 -1.265625 C 4.410156 -2.203125 5.265625 -3.335938 6.171875 -4.671875 C 6.359375 -4.640625 6.550781 -4.578125 6.75 -4.484375 C 6.957031 -4.390625 7.0625 -4.269531 7.0625 -4.125 C 7.0625 -4.007812 6.988281 -3.820312 6.84375 -3.5625 C 6.707031 -3.300781 6.625 -3.148438 6.59375 -3.109375 C 6.34375 -2.679688 6.144531 -2.300781 6 -1.96875 C 5.851562 -1.644531 5.78125 -1.34375 5.78125 -1.0625 C 5.78125 -0.8125 5.84375 -0.585938 5.96875 -0.390625 C 6.09375 -0.191406 6.28125 -0.09375 6.53125 -0.09375 C 6.957031 -0.09375 7.492188 -0.394531 8.140625 -1 C 8.785156 -1.613281 9.421875 -2.472656 10.046875 -3.578125 L 10.28125 -3.34375 C 9.96875 -2.570312 9.566406 -1.878906 9.078125 -1.265625 C 8.597656 -0.660156 8.078125 -0.191406 7.515625 0.140625 C 6.960938 0.484375 6.425781 0.65625 5.90625 0.65625 C 5.394531 0.65625 5.003906 0.503906 4.734375 0.203125 C 4.460938 -0.0976562 4.328125 -0.457031 4.328125 -0.875 C 4.328125 -1.070312 4.347656 -1.285156 4.390625 -1.515625 C 3.722656 -0.640625 3.128906 0 2.609375 0.40625 C 2.085938 0.820312 1.570312 1.03125 1.0625 1.03125 Z M 1.0625 1.03125 "/></g></g></g><g fill="#000000" fill-opacity="1"><g transform="translate(207.180174, 99.761032)"><g><path d="M 1.296875 0.65625 C 0.867188 0.65625 0.484375 0.5 0.140625 0.1875 C -0.191406 -0.125 -0.359375 -0.582031 -0.359375 -1.1875 C -0.359375 -2 -0.0507812 -2.941406 0.5625 -4.015625 C 1.1875 -5.097656 1.960938 -6.019531 2.890625 -6.78125 C 3.816406 -7.550781 4.710938 -7.9375 5.578125 -7.9375 C 6.222656 -7.9375 6.546875 -7.707031 6.546875 -7.25 C 6.546875 -7.195312 6.53125 -7.09375 6.5 -6.9375 C 6.351562 -7.164062 6.078125 -7.28125 5.671875 -7.28125 C 4.929688 -7.28125 4.210938 -6.929688 3.515625 -6.234375 C 2.828125 -5.535156 2.265625 -4.710938 1.828125 -3.765625 C 1.398438 -2.828125 1.1875 -2.054688 1.1875 -1.453125 C 1.1875 -1.128906 1.253906 -0.867188 1.390625 -0.671875 C 1.535156 -0.484375 1.734375 -0.390625 1.984375 -0.390625 C 2.378906 -0.390625 2.863281 -0.644531 3.4375 -1.15625 C 4.007812 -1.664062 4.585938 -2.382812 5.171875 -3.3125 C 5.765625 -4.238281 6.289062 -5.285156 6.75 -6.453125 C 7.894531 -9.421875 8.851562 -11.734375 9.625 -13.390625 C 10.394531 -15.046875 11.046875 -15.875 11.578125 -15.875 C 11.691406 -15.875 11.789062 -15.828125 11.875 -15.734375 C 11.96875 -15.640625 12.015625 -15.515625 12.015625 -15.359375 C 12.015625 -15.140625 11.894531 -14.757812 11.65625 -14.21875 C 11.425781 -13.6875 11.046875 -12.863281 10.515625 -11.75 C 9.429688 -9.488281 8.5625 -7.53125 7.90625 -5.875 C 7.257812 -4.21875 6.9375 -2.773438 6.9375 -1.546875 C 6.9375 -1.054688 6.960938 -0.726562 7.015625 -0.5625 C 7.066406 -0.394531 7.210938 -0.3125 7.453125 -0.3125 C 7.765625 -0.3125 8.128906 -0.445312 8.546875 -0.71875 C 8.960938 -0.988281 9.375 -1.367188 9.78125 -1.859375 C 10.195312 -2.347656 10.550781 -2.921875 10.84375 -3.578125 L 11.109375 -3.375 C 10.828125 -2.632812 10.441406 -1.960938 9.953125 -1.359375 C 9.472656 -0.765625 8.957031 -0.296875 8.40625 0.046875 C 7.851562 0.398438 7.328125 0.578125 6.828125 0.578125 C 6.328125 0.578125 5.957031 0.414062 5.71875 0.09375 C 5.488281 -0.226562 5.375 -0.617188 5.375 -1.078125 C 5.375 -1.578125 5.515625 -2.363281 5.796875 -3.4375 C 5.046875 -2.207031 4.269531 -1.21875 3.46875 -0.46875 C 2.664062 0.28125 1.941406 0.65625 1.296875 0.65625 Z M 1.296875 0.65625 "/></g></g></g><g fill="#000000" fill-opacity="1"><g transform="translate(217.605153, 99.761032)"><g><path d="M 1.515625 0.703125 C 0.921875 0.703125 0.484375 0.519531 0.203125 0.15625 C -0.078125 -0.207031 -0.21875 -0.691406 -0.21875 -1.296875 C -0.21875 -1.898438 -0.09375 -2.53125 0.15625 -3.1875 C 0.40625 -3.851562 0.726562 -4.40625 1.125 -4.84375 C 1.519531 -5.289062 1.914062 -5.515625 2.3125 -5.515625 C 2.445312 -5.515625 2.601562 -5.476562 2.78125 -5.40625 C 2.601562 -5.257812 2.390625 -4.9375 2.140625 -4.4375 C 1.890625 -3.9375 1.671875 -3.398438 1.484375 -2.828125 C 1.304688 -2.265625 1.21875 -1.804688 1.21875 -1.453125 C 1.21875 -0.617188 1.476562 -0.203125 2 -0.203125 C 2.3125 -0.203125 2.679688 -0.363281 3.109375 -0.6875 C 3.535156 -1.007812 3.953125 -1.4375 4.359375 -1.96875 C 3.953125 -2.300781 3.632812 -2.738281 3.40625 -3.28125 C 3.175781 -3.820312 3.0625 -4.390625 3.0625 -4.984375 C 3.0625 -5.742188 3.253906 -6.394531 3.640625 -6.9375 C 4.035156 -7.488281 4.5625 -7.765625 5.21875 -7.765625 C 5.78125 -7.765625 6.175781 -7.613281 6.40625 -7.3125 C 6.632812 -7.007812 6.75 -6.59375 6.75 -6.0625 C 6.75 -5.5 6.613281 -4.867188 6.34375 -4.171875 C 6.070312 -3.472656 5.710938 -2.796875 5.265625 -2.140625 C 5.535156 -1.992188 5.816406 -1.921875 6.109375 -1.921875 C 6.535156 -1.921875 6.972656 -2.046875 7.421875 -2.296875 C 7.878906 -2.554688 8.226562 -2.957031 8.46875 -3.5 L 8.734375 -3.28125 C 8.453125 -2.632812 8.050781 -2.15625 7.53125 -1.84375 C 7.019531 -1.539062 6.492188 -1.390625 5.953125 -1.390625 C 5.554688 -1.390625 5.203125 -1.460938 4.890625 -1.609375 C 4.359375 -0.921875 3.796875 -0.363281 3.203125 0.0625 C 2.609375 0.488281 2.046875 0.703125 1.515625 0.703125 Z M 4.765625 -2.53125 C 5.140625 -3.101562 5.445312 -3.6875 5.6875 -4.28125 C 5.925781 -4.882812 6.046875 -5.4375 6.046875 -5.9375 C 6.046875 -6.34375 5.984375 -6.648438 5.859375 -6.859375 C 5.734375 -7.066406 5.570312 -7.171875 5.375 -7.171875 C 5.175781 -7.171875 4.96875 -7.066406 4.75 -6.859375 C 4.539062 -6.660156 4.363281 -6.390625 4.21875 -6.046875 C 4.082031 -5.703125 4.015625 -5.328125 4.015625 -4.921875 C 4.015625 -4.460938 4.078125 -4.019531 4.203125 -3.59375 C 4.328125 -3.175781 4.515625 -2.820312 4.765625 -2.53125 Z M 4.765625 -2.53125 "/></g></g></g><g fill="#000000" fill-opacity="1"><g transform="translate(225.649813, 99.761032)"><g><path d="M 3.8125 0.578125 C 3.3125 0.578125 2.914062 0.441406 2.625 0.171875 C 2.34375 -0.0859375 2.203125 -0.429688 2.203125 -0.859375 C 2.203125 -1.359375 2.414062 -2.078125 2.84375 -3.015625 C 3.03125 -3.503906 3.171875 -3.890625 3.265625 -4.171875 C 3.367188 -4.460938 3.421875 -4.734375 3.421875 -4.984375 C 3.421875 -5.347656 3.332031 -5.632812 3.15625 -5.84375 C 2.988281 -6.0625 2.800781 -6.238281 2.59375 -6.375 C 2.394531 -6.519531 2.257812 -6.613281 2.1875 -6.65625 C 1.863281 -5.832031 1.515625 -5.023438 1.140625 -4.234375 C 0.773438 -3.453125 0.46875 -2.847656 0.21875 -2.421875 L 0.015625 -2.796875 C 0.722656 -4.160156 1.320312 -5.554688 1.8125 -6.984375 C 1.664062 -7.128906 1.59375 -7.304688 1.59375 -7.515625 C 1.59375 -7.785156 1.644531 -8.035156 1.75 -8.265625 C 1.863281 -8.503906 1.992188 -8.6875 2.140625 -8.8125 C 2.296875 -8.945312 2.421875 -9.015625 2.515625 -9.015625 C 2.722656 -9.015625 2.828125 -8.835938 2.828125 -8.484375 C 2.828125 -8.429688 2.785156 -8.300781 2.703125 -8.09375 C 2.628906 -7.882812 2.585938 -7.742188 2.578125 -7.671875 C 2.578125 -7.523438 2.640625 -7.390625 2.765625 -7.265625 C 2.890625 -7.140625 3.09375 -6.984375 3.375 -6.796875 C 3.832031 -6.472656 4.1875 -6.148438 4.4375 -5.828125 C 4.695312 -5.515625 4.828125 -5.109375 4.828125 -4.609375 C 4.828125 -4.285156 4.773438 -3.960938 4.671875 -3.640625 C 4.566406 -3.328125 4.414062 -2.914062 4.21875 -2.40625 C 3.882812 -1.695312 3.71875 -1.1875 3.71875 -0.875 C 3.71875 -0.4375 3.941406 -0.21875 4.390625 -0.21875 C 4.828125 -0.21875 5.296875 -0.394531 5.796875 -0.75 C 6.304688 -1.101562 6.773438 -1.539062 7.203125 -2.0625 C 7.628906 -2.582031 7.941406 -3.0625 8.140625 -3.5 L 8.421875 -3.28125 C 7.960938 -2.269531 7.300781 -1.375 6.4375 -0.59375 C 5.570312 0.1875 4.695312 0.578125 3.8125 0.578125 Z M 3.8125 0.578125 "/></g></g></g><g fill="#000000" fill-opacity="1"><g transform="translate(233.319775, 99.761032)"><g><path d="M 1.0625 1.03125 C 0.570312 1.03125 0.175781 0.875 -0.125 0.5625 C -0.425781 0.25 -0.578125 -0.203125 -0.578125 -0.796875 C -0.578125 -1.660156 -0.265625 -2.628906 0.359375 -3.703125 C 0.984375 -4.773438 1.773438 -5.6875 2.734375 -6.4375 C 3.691406 -7.1875 4.625 -7.5625 5.53125 -7.5625 C 6.101562 -7.5625 6.582031 -7.40625 6.96875 -7.09375 C 7.351562 -6.789062 7.546875 -6.394531 7.546875 -5.90625 C 7.546875 -5.570312 7.445312 -5.328125 7.25 -5.171875 C 7.0625 -5.023438 6.796875 -4.953125 6.453125 -4.953125 C 6.523438 -5.222656 6.5625 -5.484375 6.5625 -5.734375 C 6.5625 -6.097656 6.472656 -6.394531 6.296875 -6.625 C 6.128906 -6.851562 5.859375 -6.96875 5.484375 -6.96875 C 4.835938 -6.96875 4.15625 -6.609375 3.4375 -5.890625 C 2.726562 -5.171875 2.132812 -4.3125 1.65625 -3.3125 C 1.1875 -2.3125 0.953125 -1.453125 0.953125 -0.734375 C 0.953125 -0.160156 1.148438 0.125 1.546875 0.125 C 2.128906 0.125 2.816406 -0.335938 3.609375 -1.265625 C 4.410156 -2.203125 5.265625 -3.335938 6.171875 -4.671875 C 6.359375 -4.640625 6.550781 -4.578125 6.75 -4.484375 C 6.957031 -4.390625 7.0625 -4.269531 7.0625 -4.125 C 7.0625 -4.007812 6.988281 -3.820312 6.84375 -3.5625 C 6.707031 -3.300781 6.625 -3.148438 6.59375 -3.109375 C 6.34375 -2.679688 6.144531 -2.300781 6 -1.96875 C 5.851562 -1.644531 5.78125 -1.34375 5.78125 -1.0625 C 5.78125 -0.8125 5.84375 -0.585938 5.96875 -0.390625 C 6.09375 -0.191406 6.28125 -0.09375 6.53125 -0.09375 C 6.957031 -0.09375 7.492188 -0.394531 8.140625 -1 C 8.785156 -1.613281 9.421875 -2.472656 10.046875 -3.578125 L 10.28125 -3.34375 C 9.96875 -2.570312 9.566406 -1.878906 9.078125 -1.265625 C 8.597656 -0.660156 8.078125 -0.191406 7.515625 0.140625 C 6.960938 0.484375 6.425781 0.65625 5.90625 0.65625 C 5.394531 0.65625 5.003906 0.503906 4.734375 0.203125 C 4.460938 -0.0976562 4.328125 -0.457031 4.328125 -0.875 C 4.328125 -1.070312 4.347656 -1.285156 4.390625 -1.515625 C 3.722656 -0.640625 3.128906 0 2.609375 0.40625 C 2.085938 0.820312 1.570312 1.03125 1.0625 1.03125 Z M 1.0625 1.03125 "/></g></g></g><g fill="#000000" fill-opacity="1"><g transform="translate(137.459992, 69.939767)"><g/></g></g><g fill="#e97dc7" fill-opacity="1"><g transform="translate(12.135605, 64.31427)"><g><path d="M 32.046875 7.015625 C 29.941406 7.015625 27.640625 6.554688 25.140625 5.640625 C 22.640625 4.734375 19.34375 3.335938 15.25 1.453125 L 11.0625 -0.484375 C 8.207031 2.691406 5.21875 4.28125 2.09375 4.28125 C 0.476562 4.28125 -0.941406 3.898438 -2.171875 3.140625 C -3.410156 2.390625 -4.351562 1.460938 -5 0.359375 C -5.644531 -0.742188 -5.96875 -1.78125 -5.96875 -2.75 C -5.96875 -3.820312 -5.492188 -4.679688 -4.546875 -5.328125 C -3.609375 -5.972656 -2.117188 -6.296875 -0.078125 -6.296875 C 2.285156 -6.296875 5.59375 -5.726562 9.84375 -4.59375 C 11.1875 -6.96875 12.453125 -9.78125 13.640625 -13.03125 C 14.828125 -16.289062 16.28125 -20.664062 18 -26.15625 L 19.9375 -32.28125 C 17.457031 -33.09375 15.503906 -34.28125 14.078125 -35.84375 C 12.660156 -37.40625 11.953125 -39.097656 11.953125 -40.921875 C 11.953125 -42.484375 12.421875 -43.9375 13.359375 -45.28125 C 14.296875 -46.625 15.492188 -47.296875 16.953125 -47.296875 C 16.578125 -46.816406 16.304688 -46.09375 16.140625 -45.125 C 15.984375 -44.15625 15.90625 -43.210938 15.90625 -42.296875 C 15.90625 -40.304688 16.320312 -38.609375 17.15625 -37.203125 C 17.988281 -35.804688 19.101562 -34.734375 20.5 -33.984375 C 22.976562 -41.566406 25.5625 -47.484375 28.25 -51.734375 C 30.9375 -55.992188 34.140625 -58.125 37.859375 -58.125 C 39.847656 -58.125 41.648438 -57.476562 43.265625 -56.1875 C 44.878906 -54.894531 45.6875 -52.796875 45.6875 -49.890625 C 45.6875 -47.191406 44.957031 -44.40625 43.5 -41.53125 C 42.050781 -38.65625 39.859375 -36.234375 36.921875 -34.265625 C 33.992188 -32.296875 30.457031 -31.3125 26.3125 -31.3125 L 25.015625 -31.3125 C 22.816406 -24.644531 20.851562 -19.128906 19.125 -14.765625 C 17.40625 -10.410156 15.5 -6.671875 13.40625 -3.546875 C 13.832031 -3.390625 14.285156 -3.242188 14.765625 -3.109375 C 15.253906 -2.972656 15.738281 -2.820312 16.21875 -2.65625 C 20.789062 -1.257812 24.445312 -0.226562 27.1875 0.4375 C 29.9375 1.113281 32.472656 1.453125 34.796875 1.453125 C 36.941406 1.453125 38.847656 1.019531 40.515625 0.15625 C 39.660156 2.582031 38.53125 4.332031 37.125 5.40625 C 35.726562 6.476562 34.035156 7.015625 32.046875 7.015625 Z M 25.5 -32.859375 C 28.519531 -32.859375 31.238281 -33.957031 33.65625 -36.15625 C 36.082031 -38.363281 37.96875 -40.988281 39.3125 -44.03125 C 40.65625 -47.070312 41.328125 -49.75 41.328125 -52.0625 C 41.328125 -53.519531 41.054688 -54.554688 40.515625 -55.171875 C 39.984375 -55.785156 39.285156 -56.09375 38.421875 -56.09375 C 36.160156 -56.09375 34.085938 -54.171875 32.203125 -50.328125 C 30.316406 -46.484375 28.082031 -40.660156 25.5 -32.859375 Z M 1.78125 1.9375 C 4.039062 1.9375 6.109375 0.695312 7.984375 -1.78125 C 4.003906 -3.394531 0.941406 -4.203125 -1.203125 -4.203125 C -2.984375 -4.203125 -3.875 -3.6875 -3.875 -2.65625 C -3.875 -1.632812 -3.320312 -0.613281 -2.21875 0.40625 C -1.113281 1.425781 0.21875 1.9375 1.78125 1.9375 Z M 1.78125 1.9375 "/></g></g></g><g fill="#e97dc7" fill-opacity="1"><g transform="translate(58.148332, 64.31427)"><g><path d="M 15.5 -34.875 C 14.53125 -34.875 13.734375 -35.101562 13.109375 -35.5625 C 12.492188 -36.019531 12.1875 -36.675781 12.1875 -37.53125 C 12.1875 -38.613281 12.832031 -39.582031 14.125 -40.4375 C 15.414062 -41.300781 16.734375 -41.734375 18.078125 -41.734375 C 19.859375 -41.734375 20.75 -40.898438 20.75 -39.234375 C 20.75 -38.210938 20.195312 -37.226562 19.09375 -36.28125 C 17.988281 -35.34375 16.789062 -34.875 15.5 -34.875 Z M 5.8125 2.09375 C 3.820312 2.09375 2.285156 1.460938 1.203125 0.203125 C 0.128906 -1.054688 -0.40625 -2.6875 -0.40625 -4.6875 C -0.40625 -6.78125 0.195312 -9.679688 1.40625 -13.390625 C 2.625 -17.109375 4.132812 -20.363281 5.9375 -23.15625 C 7.738281 -25.957031 9.5 -27.359375 11.21875 -27.359375 C 11.707031 -27.359375 12.125 -27.195312 12.46875 -26.875 C 12.820312 -26.550781 13 -26.125 13 -25.59375 C 13 -24.832031 12.132812 -23.03125 10.40625 -20.1875 C 8.632812 -17.21875 7.222656 -14.5625 6.171875 -12.21875 C 5.117188 -9.882812 4.59375 -7.664062 4.59375 -5.5625 C 4.59375 -3.6875 4.898438 -2.410156 5.515625 -1.734375 C 6.140625 -1.054688 7.15625 -0.71875 8.5625 -0.71875 C 12.757812 -0.71875 16.898438 -4.835938 20.984375 -13.078125 L 21.71875 -12.265625 C 20.207031 -7.742188 17.984375 -4.21875 15.046875 -1.6875 C 12.117188 0.832031 9.039062 2.09375 5.8125 2.09375 Z M 5.8125 2.09375 "/></g></g></g><g fill="#e97dc7" fill-opacity="1"><g transform="translate(77.602838, 64.31427)"><g><path d="M 3.875 3.796875 C 2.09375 3.796875 0.65625 3.21875 -0.4375 2.0625 C -1.539062 0.90625 -2.09375 -0.75 -2.09375 -2.90625 C -2.09375 -6.082031 -0.953125 -9.632812 1.328125 -13.5625 C 3.617188 -17.488281 6.507812 -20.820312 10 -23.5625 C 13.5 -26.3125 16.921875 -27.6875 20.265625 -27.6875 C 22.359375 -27.6875 24.101562 -27.117188 25.5 -25.984375 C 26.90625 -24.859375 27.609375 -23.40625 27.609375 -21.625 C 27.609375 -20.394531 27.253906 -19.507812 26.546875 -18.96875 C 25.847656 -18.425781 24.882812 -18.15625 23.65625 -18.15625 C 23.914062 -19.125 24.046875 -20.066406 24.046875 -20.984375 C 24.046875 -22.328125 23.722656 -23.414062 23.078125 -24.25 C 22.429688 -25.082031 21.4375 -25.5 20.09375 -25.5 C 17.726562 -25.5 15.238281 -24.179688 12.625 -21.546875 C 10.019531 -18.910156 7.84375 -15.765625 6.09375 -12.109375 C 4.34375 -8.453125 3.46875 -5.300781 3.46875 -2.65625 C 3.46875 -0.5625 4.195312 0.484375 5.65625 0.484375 C 7.800781 0.484375 10.328125 -1.222656 13.234375 -4.640625 C 16.140625 -8.054688 19.257812 -12.210938 22.59375 -17.109375 C 23.300781 -17.003906 24.015625 -16.773438 24.734375 -16.421875 C 25.460938 -16.078125 25.828125 -15.632812 25.828125 -15.09375 C 25.828125 -14.664062 25.570312 -13.976562 25.0625 -13.03125 C 24.550781 -12.09375 24.242188 -11.539062 24.140625 -11.375 C 23.222656 -9.820312 22.492188 -8.4375 21.953125 -7.21875 C 21.410156 -6.007812 21.140625 -4.894531 21.140625 -3.875 C 21.140625 -2.957031 21.367188 -2.132812 21.828125 -1.40625 C 22.285156 -0.6875 22.972656 -0.328125 23.890625 -0.328125 C 25.453125 -0.328125 27.414062 -1.441406 29.78125 -3.671875 C 32.15625 -5.898438 34.5 -9.035156 36.8125 -13.078125 L 37.609375 -12.265625 C 36.484375 -9.410156 35.03125 -6.867188 33.25 -4.640625 C 31.476562 -2.410156 29.566406 -0.675781 27.515625 0.5625 C 25.472656 1.800781 23.507812 2.421875 21.625 2.421875 C 19.75 2.421875 18.3125 1.867188 17.3125 0.765625 C 16.320312 -0.335938 15.828125 -1.671875 15.828125 -3.234375 C 15.828125 -3.929688 15.90625 -4.707031 16.0625 -5.5625 C 13.644531 -2.332031 11.476562 0.03125 9.5625 1.53125 C 7.65625 3.039062 5.757812 3.796875 3.875 3.796875 Z M 3.875 3.796875 "/></g></g></g><g fill="#e97dc7" fill-opacity="1"><g transform="translate(112.798531, 64.31427)"><g/></g></g><g fill="#e97dc7" fill-opacity="1"><g transform="translate(133.786793, 64.31427)"><g><path d="M 12.265625 7.015625 C 10.003906 6.859375 8.523438 6.269531 7.828125 5.25 C 7.128906 4.226562 6.78125 2.691406 6.78125 0.640625 C 6.78125 -1.617188 7.316406 -4.46875 8.390625 -7.90625 C 9.472656 -11.351562 11.144531 -16.171875 13.40625 -22.359375 C 13.726562 -23.109375 14.15625 -24.238281 14.6875 -25.75 C 13.34375 -25.644531 11.269531 -25.398438 8.46875 -25.015625 L 5.734375 -24.625 C 5.941406 -28.175781 9.46875 -30.054688 16.3125 -30.265625 C 19.800781 -39.898438 22.921875 -47.570312 25.671875 -53.28125 C 24.265625 -53.382812 23.210938 -53.4375 22.515625 -53.4375 C 19.078125 -53.4375 16.425781 -53.085938 14.5625 -52.390625 C 12.707031 -51.691406 11.414062 -50.640625 10.6875 -49.234375 C 9.96875 -47.835938 9.609375 -45.957031 9.609375 -43.59375 C 9.609375 -41.382812 9.957031 -39.257812 10.65625 -37.21875 C 7.101562 -37.800781 5.328125 -39.894531 5.328125 -43.5 C 5.328125 -46.25 6.304688 -48.695312 8.265625 -50.84375 C 10.234375 -53 12.910156 -54.679688 16.296875 -55.890625 C 19.691406 -57.109375 23.4375 -57.71875 27.53125 -57.71875 C 29.519531 -57.71875 32.34375 -57.5 36 -57.0625 C 36.539062 -57.007812 37.617188 -56.898438 39.234375 -56.734375 C 40.847656 -56.578125 42.300781 -56.5 43.59375 -56.5 C 45.738281 -56.5 47.726562 -56.769531 49.5625 -57.3125 C 47.675781 -55.15625 46.0625 -53.671875 44.71875 -52.859375 C 43.375 -52.054688 41.945312 -51.65625 40.4375 -51.65625 C 39.414062 -51.65625 37.585938 -51.84375 34.953125 -52.21875 C 33.609375 -52.488281 31.617188 -52.757812 28.984375 -53.03125 C 27.472656 -49.375 24.890625 -41.757812 21.234375 -30.1875 C 23.816406 -30.03125 26.238281 -29.789062 28.5 -29.46875 C 31.882812 -29.144531 34.171875 -28.953125 35.359375 -28.890625 C 34.765625 -28.035156 34.050781 -27.429688 33.21875 -27.078125 C 32.382812 -26.734375 31.09375 -26.503906 29.34375 -26.390625 C 27.59375 -26.285156 24.484375 -26.179688 20.015625 -26.078125 L 16.46875 -14.046875 C 13.78125 -5.003906 12.378906 2.015625 12.265625 7.015625 Z M 12.265625 7.015625 "/></g></g></g><g fill="#e97dc7" fill-opacity="1"><g transform="translate(172.695793, 64.31427)"><g><path d="M 8.71875 3.546875 C 5.539062 3.546875 3.101562 2.671875 1.40625 0.921875 C -0.28125 -0.816406 -1.125 -3.0625 -1.125 -5.8125 C -1.125 -8.988281 -0.078125 -12.40625 2.015625 -16.0625 C 4.117188 -19.71875 6.769531 -22.796875 9.96875 -25.296875 C 13.164062 -27.804688 16.300781 -29.0625 19.375 -29.0625 C 22.707031 -29.0625 24.375 -27.421875 24.375 -24.140625 C 24.375 -21.503906 23.378906 -19.039062 21.390625 -16.75 C 19.398438 -14.457031 16.84375 -12.582031 13.71875 -11.125 C 10.601562 -9.675781 7.484375 -8.789062 4.359375 -8.46875 C 4.140625 -7.5625 4.03125 -6.59375 4.03125 -5.5625 C 4.03125 -3.625 4.515625 -2.007812 5.484375 -0.71875 C 6.453125 0.5625 8.09375 1.203125 10.40625 1.203125 C 13.695312 1.203125 17.007812 -0.164062 20.34375 -2.90625 C 23.675781 -5.644531 26.394531 -9.035156 28.5 -13.078125 L 29.46875 -12.34375 C 27.3125 -7.5625 24.320312 -3.71875 20.5 -0.8125 C 16.675781 2.09375 12.75 3.546875 8.71875 3.546875 Z M 4.765625 -10.015625 C 7.023438 -10.816406 9.390625 -11.941406 11.859375 -13.390625 C 14.335938 -14.847656 16.453125 -16.554688 18.203125 -18.515625 C 19.953125 -20.484375 20.828125 -22.546875 20.828125 -24.703125 C 20.828125 -25.347656 20.703125 -25.816406 20.453125 -26.109375 C 20.210938 -26.410156 19.769531 -26.5625 19.125 -26.5625 C 17.457031 -26.5625 15.640625 -25.722656 13.671875 -24.046875 C 11.710938 -22.378906 9.910156 -20.253906 8.265625 -17.671875 C 6.628906 -15.085938 5.460938 -12.535156 4.765625 -10.015625 Z M 4.765625 -10.015625 "/></g></g></g><g fill="#e97dc7" fill-opacity="1"><g transform="translate(199.576912, 64.31427)"><g><path d="M 7.5 5.890625 C 4.757812 5.890625 2.6875 4.988281 1.28125 3.1875 C -0.113281 1.382812 -0.8125 -1.101562 -0.8125 -4.28125 C -0.8125 -9.394531 0.800781 -16.226562 4.03125 -24.78125 C 7.257812 -33.332031 10.90625 -40.945312 14.96875 -47.625 C 19.03125 -54.300781 22.140625 -57.640625 24.296875 -57.640625 C 25.097656 -57.640625 25.726562 -57.113281 26.1875 -56.0625 C 26.644531 -55.007812 26.875 -53.835938 26.875 -52.546875 C 26.875 -50.015625 25.984375 -46.648438 24.203125 -42.453125 C 22.429688 -38.253906 20.117188 -34.21875 17.265625 -30.34375 C 14.421875 -26.46875 11.488281 -23.617188 8.46875 -21.796875 C 7.769531 -20.503906 6.945312 -18.082031 6 -14.53125 C 5.0625 -10.976562 4.59375 -7.722656 4.59375 -4.765625 C 4.59375 0.296875 6.078125 2.828125 9.046875 2.828125 C 10.597656 2.828125 12.207031 2.191406 13.875 0.921875 C 15.550781 -0.335938 16.898438 -1.960938 17.921875 -3.953125 C 16.035156 -4.921875 14.582031 -6.359375 13.5625 -8.265625 C 12.539062 -10.179688 12.03125 -12.21875 12.03125 -14.375 C 12.03125 -16.894531 12.6875 -18.945312 14 -20.53125 C 15.320312 -22.125 16.925781 -22.921875 18.8125 -22.921875 C 20.363281 -22.921875 21.597656 -22.273438 22.515625 -20.984375 C 23.429688 -19.691406 23.890625 -17.863281 23.890625 -15.5 C 23.890625 -11.945312 22.945312 -8.285156 21.0625 -4.515625 C 21.707031 -4.359375 22.410156 -4.28125 23.171875 -4.28125 C 25.691406 -4.28125 27.71875 -5.085938 29.25 -6.703125 C 30.789062 -8.316406 32.207031 -10.441406 33.5 -13.078125 L 34.46875 -12.03125 C 33.070312 -8.582031 31.390625 -6.1875 29.421875 -4.84375 C 27.453125 -3.5 25.285156 -2.828125 22.921875 -2.828125 C 22.003906 -2.828125 21.144531 -2.90625 20.34375 -3.0625 C 18.726562 -0.375 16.84375 1.785156 14.6875 3.421875 C 12.539062 5.066406 10.144531 5.890625 7.5 5.890625 Z M 9.359375 -24.9375 C 11.671875 -26.769531 13.972656 -29.421875 16.265625 -32.890625 C 18.554688 -36.359375 20.441406 -39.800781 21.921875 -43.21875 C 23.398438 -46.632812 24.140625 -49.046875 24.140625 -50.453125 C 24.140625 -50.878906 24.03125 -51.09375 23.8125 -51.09375 C 23.21875 -51.09375 21.960938 -49.71875 20.046875 -46.96875 C 18.140625 -44.226562 16.164062 -40.828125 14.125 -36.765625 C 12.082031 -32.703125 10.492188 -28.757812 9.359375 -24.9375 Z M 18.734375 -5.5625 C 19.960938 -8.207031 20.578125 -10.925781 20.578125 -13.71875 C 20.578125 -15.550781 20.320312 -17.019531 19.8125 -18.125 C 19.300781 -19.226562 18.671875 -19.78125 17.921875 -19.78125 C 17.109375 -19.78125 16.394531 -19.210938 15.78125 -18.078125 C 15.164062 -16.953125 14.859375 -15.582031 14.859375 -13.96875 C 14.859375 -12.351562 15.179688 -10.765625 15.828125 -9.203125 C 16.472656 -7.640625 17.441406 -6.425781 18.734375 -5.5625 Z M 18.734375 -5.5625 "/></g></g></g><g fill="#e97dc7" fill-opacity="1"><g transform="translate(231.382196, 64.31427)"><g><path d="M 13.96875 2.09375 C 12.132812 2.09375 10.691406 1.609375 9.640625 0.640625 C 8.597656 -0.328125 8.078125 -1.585938 8.078125 -3.140625 C 8.078125 -4.972656 8.851562 -7.613281 10.40625 -11.0625 C 11.113281 -12.832031 11.640625 -14.242188 11.984375 -15.296875 C 12.335938 -16.347656 12.515625 -17.332031 12.515625 -18.25 C 12.515625 -19.59375 12.203125 -20.648438 11.578125 -21.421875 C 10.960938 -22.203125 10.273438 -22.847656 9.515625 -23.359375 C 8.765625 -23.878906 8.253906 -24.21875 7.984375 -24.375 C 6.804688 -21.363281 5.539062 -18.414062 4.1875 -15.53125 C 2.84375 -12.65625 1.71875 -10.4375 0.8125 -8.875 L 0.078125 -10.25 C 2.660156 -15.257812 4.84375 -20.375 6.625 -25.59375 C 6.082031 -26.125 5.8125 -26.769531 5.8125 -27.53125 C 5.8125 -28.5 6.007812 -29.410156 6.40625 -30.265625 C 6.8125 -31.128906 7.296875 -31.800781 7.859375 -32.28125 C 8.429688 -32.769531 8.878906 -33.015625 9.203125 -33.015625 C 9.953125 -33.015625 10.328125 -32.367188 10.328125 -31.078125 C 10.328125 -30.859375 10.191406 -30.375 9.921875 -29.625 C 9.660156 -28.875 9.5 -28.363281 9.4375 -28.09375 C 9.4375 -27.550781 9.664062 -27.050781 10.125 -26.59375 C 10.582031 -26.132812 11.320312 -25.554688 12.34375 -24.859375 C 14.019531 -23.671875 15.328125 -22.5 16.265625 -21.34375 C 17.203125 -20.1875 17.671875 -18.695312 17.671875 -16.875 C 17.671875 -15.6875 17.484375 -14.515625 17.109375 -13.359375 C 16.734375 -12.203125 16.171875 -10.679688 15.421875 -8.796875 C 14.234375 -6.210938 13.640625 -4.359375 13.640625 -3.234375 C 13.640625 -1.617188 14.445312 -0.8125 16.0625 -0.8125 C 17.675781 -0.8125 19.410156 -1.457031 21.265625 -2.75 C 23.117188 -4.039062 24.828125 -5.640625 26.390625 -7.546875 C 27.953125 -9.453125 29.082031 -11.210938 29.78125 -12.828125 L 30.828125 -12.03125 C 29.160156 -8.3125 26.738281 -5.023438 23.5625 -2.171875 C 20.394531 0.671875 17.195312 2.09375 13.96875 2.09375 Z M 13.96875 2.09375 "/></g></g></g><g fill="#e97dc7" fill-opacity="1"><g transform="translate(259.474173, 64.31427)"><g><path d="M 8.71875 3.546875 C 5.539062 3.546875 3.101562 2.671875 1.40625 0.921875 C -0.28125 -0.816406 -1.125 -3.0625 -1.125 -5.8125 C -1.125 -8.988281 -0.078125 -12.40625 2.015625 -16.0625 C 4.117188 -19.71875 6.769531 -22.796875 9.96875 -25.296875 C 13.164062 -27.804688 16.300781 -29.0625 19.375 -29.0625 C 22.707031 -29.0625 24.375 -27.421875 24.375 -24.140625 C 24.375 -21.503906 23.378906 -19.039062 21.390625 -16.75 C 19.398438 -14.457031 16.84375 -12.582031 13.71875 -11.125 C 10.601562 -9.675781 7.484375 -8.789062 4.359375 -8.46875 C 4.140625 -7.5625 4.03125 -6.59375 4.03125 -5.5625 C 4.03125 -3.625 4.515625 -2.007812 5.484375 -0.71875 C 6.453125 0.5625 8.09375 1.203125 10.40625 1.203125 C 13.695312 1.203125 17.007812 -0.164062 20.34375 -2.90625 C 23.675781 -5.644531 26.394531 -9.035156 28.5 -13.078125 L 29.46875 -12.34375 C 27.3125 -7.5625 24.320312 -3.71875 20.5 -0.8125 C 16.675781 2.09375 12.75 3.546875 8.71875 3.546875 Z M 4.765625 -10.015625 C 7.023438 -10.816406 9.390625 -11.941406 11.859375 -13.390625 C 14.335938 -14.847656 16.453125 -16.554688 18.203125 -18.515625 C 19.953125 -20.484375 20.828125 -22.546875 20.828125 -24.703125 C 20.828125 -25.347656 20.703125 -25.816406 20.453125 -26.109375 C 20.210938 -26.410156 19.769531 -26.5625 19.125 -26.5625 C 17.457031 -26.5625 15.640625 -25.722656 13.671875 -24.046875 C 11.710938 -22.378906 9.910156 -20.253906 8.265625 -17.671875 C 6.628906 -15.085938 5.460938 -12.535156 4.765625 -10.015625 Z M 4.765625 -10.015625 "/></g></g></g><g fill="#e97dc7" fill-opacity="1"><g transform="translate(286.355304, 64.31427)"><g><path d="M 8.46875 4.109375 C 4.976562 4.109375 2.425781 3.0625 0.8125 0.96875 C -0.800781 -1.125 -1.609375 -3.597656 -1.609375 -6.453125 C -1.609375 -8.609375 -1.234375 -10.128906 -0.484375 -11.015625 C 0.265625 -11.898438 1.082031 -12.53125 1.96875 -12.90625 C 2.863281 -13.289062 3.390625 -13.5625 3.546875 -13.71875 C 6.992188 -17.488281 9.660156 -21.390625 11.546875 -25.421875 L 11.546875 -26.390625 C 11.546875 -28.222656 11.851562 -29.597656 12.46875 -30.515625 C 13.09375 -31.429688 13.832031 -31.890625 14.6875 -31.890625 C 15.125 -31.890625 15.445312 -31.789062 15.65625 -31.59375 C 15.875 -31.40625 15.984375 -31.148438 15.984375 -30.828125 C 15.984375 -30.617188 15.898438 -30.175781 15.734375 -29.5 C 15.578125 -28.832031 15.5 -28.09375 15.5 -27.28125 C 15.5 -26.207031 15.644531 -25.0625 15.9375 -23.84375 C 16.238281 -22.632812 16.710938 -21.0625 17.359375 -19.125 C 18.109375 -16.8125 18.6875 -14.796875 19.09375 -13.078125 C 19.5 -11.359375 19.703125 -9.609375 19.703125 -7.828125 C 19.703125 -6.429688 19.539062 -5.113281 19.21875 -3.875 C 21.144531 -4.195312 22.941406 -5.070312 24.609375 -6.5 C 26.285156 -7.925781 27.875 -10.09375 29.375 -13 L 30.109375 -12.1875 C 29.140625 -9.382812 27.660156 -7.175781 25.671875 -5.5625 C 23.679688 -3.945312 21.394531 -2.953125 18.8125 -2.578125 C 18 -0.378906 16.675781 1.28125 14.84375 2.40625 C 13.019531 3.539062 10.894531 4.109375 8.46875 4.109375 Z M 14.125 -3.953125 C 14.34375 -5.347656 14.453125 -6.613281 14.453125 -7.75 C 14.453125 -9.363281 14.316406 -10.976562 14.046875 -12.59375 C 13.773438 -14.207031 13.367188 -16.0625 12.828125 -18.15625 C 12.347656 -20.3125 12.054688 -21.710938 11.953125 -22.359375 C 9.203125 -17.835938 6.585938 -14.335938 4.109375 -11.859375 C 4.972656 -9.984375 6.28125 -8.316406 8.03125 -6.859375 C 9.78125 -5.410156 11.8125 -4.441406 14.125 -3.953125 Z M 8.640625 1.296875 C 11.109375 1.296875 12.800781 -0.0195312 13.71875 -2.65625 C 11.570312 -3.09375 9.609375 -3.941406 7.828125 -5.203125 C 6.054688 -6.472656 4.710938 -7.859375 3.796875 -9.359375 C 2.609375 -9.304688 2.015625 -8.363281 2.015625 -6.53125 C 2.015625 -4.488281 2.617188 -2.671875 3.828125 -1.078125 C 5.046875 0.503906 6.648438 1.296875 8.640625 1.296875 Z M 8.640625 1.296875 "/></g></g></g><g fill="#000000" fill-opacity="1"><g transform="translate(163.415459, 106.093872)"><g/></g></g></svg>